M48
; DRILL file {KiCad 9.0.0} date 2025-05-14T11:22:41+0200
; FORMAT={-:-/ absolute / metric / decimal}
; #@! TF.CreationDate,2025-05-14T11:22:41+02:00
; #@! TF.GenerationSoftware,Kicad,Pcbnew,9.0.0
; #@! TF.FileFunction,Plated,1,2,PTH
FMAT,2
METRIC
; #@! TA.AperFunction,Plated,PTH,ComponentDrill
T1C0.700
; #@! TA.AperFunction,Plated,PTH,ComponentDrill
T2C0.730
; #@! TA.AperFunction,Plated,PTH,ViaDrill
T3C0.800
; #@! TA.AperFunction,Plated,PTH,ComponentDrill
T4C0.800
; #@! TA.AperFunction,Plated,PTH,ComponentDrill
T5C0.813
; #@! TA.AperFunction,Plated,PTH,ComponentDrill
T6C0.850
; #@! TA.AperFunction,Plated,PTH,ComponentDrill
T7C0.950
; #@! TA.AperFunction,Plated,PTH,ComponentDrill
T8C1.000
; #@! TA.AperFunction,Plated,PTH,ComponentDrill
T9C1.050
; #@! TA.AperFunction,Plated,PTH,ComponentDrill
T10C1.300
; #@! TA.AperFunction,Plated,PTH,ComponentDrill
T11C3.200
%
G90
G05
T1
X116.0Y-84.052
X116.0Y-86.593
X121.46Y-109.25
X124.0Y-109.25
X125.25Y-89.46
X125.25Y-92.0
X128.25Y-106.71
X128.25Y-109.25
X132.46Y-86.0
X135.0Y-86.0
X135.028Y-90.5
X137.567Y-90.5
X143.5Y-127.75
X143.5Y-130.29
X144.5Y-119.0
X147.04Y-119.0
X150.0Y-85.96
X150.0Y-88.5
X156.21Y-122.0
X156.96Y-134.75
X158.75Y-122.0
X159.5Y-130.0
X159.5Y-132.54
X159.5Y-134.75
X163.46Y-90.5
X166.0Y-90.5
X172.25Y-129.53
X172.25Y-132.07
T2
X146.81Y-125.69
X146.81Y-128.23
X146.81Y-130.77
X146.81Y-133.31
X154.75Y-125.69
X154.75Y-128.23
X154.75Y-130.77
X154.75Y-133.31
T3
X120.25Y-102.0
X129.25Y-122.0
X134.25Y-108.25
X135.25Y-122.0
X135.25Y-126.75
X160.75Y-121.75
X168.75Y-120.25
X172.25Y-127.5
X174.17Y-124.65
T4
X126.5Y-115.0
X126.5Y-120.0
X130.0Y-73.25
X132.0Y-127.75
X132.0Y-132.75
X135.0Y-73.25
X135.0Y-80.25
X136.5Y-96.75
X140.0Y-80.25
X141.5Y-96.75
X141.75Y-102.0
X141.75Y-107.0
X144.5Y-110.5
X144.5Y-115.5
X150.0Y-91.75
X150.0Y-96.75
X150.0Y-100.96
X150.0Y-103.5
X150.0Y-106.04
X150.0Y-108.58
X150.0Y-111.12
X150.0Y-113.66
X150.0Y-116.2
X150.0Y-118.74
X157.62Y-100.96
X157.62Y-103.5
X157.62Y-106.04
X157.62Y-108.58
X157.62Y-111.12
X157.62Y-113.66
X157.62Y-116.2
X157.62Y-118.74
X161.0Y-117.75
X164.25Y-122.75
X164.25Y-127.75
X164.75Y-132.25
X166.0Y-78.0
X166.0Y-83.0
X166.0Y-117.75
X169.75Y-132.25
X171.5Y-83.25
X171.5Y-88.25
X178.25Y-114.0
X180.25Y-83.0
X180.25Y-88.0
X183.25Y-114.0
T5
X122.71Y-83.54
X122.75Y-98.5
X125.25Y-81.0
X125.25Y-86.08
X125.29Y-95.96
X127.83Y-98.5
X140.46Y-88.0
X143.0Y-85.46
X143.0Y-90.54
X154.46Y-88.0
X157.0Y-85.46
X157.0Y-90.54
T6
X180.25Y-95.3
X180.25Y-97.84
X180.25Y-100.38
X180.25Y-105.46
X180.25Y-108.0
T7
X118.0Y-117.0
X118.0Y-119.5
X118.0Y-122.0
T8
X138.25Y-122.0
X140.79Y-122.0
X143.33Y-122.0
X147.42Y-122.25
X149.96Y-122.25
X152.5Y-122.25
X174.0Y-117.475
X174.0Y-120.015
X174.0Y-122.555
X183.0Y-120.75
X183.0Y-123.25
T9
X150.0Y-69.2
X150.0Y-76.8
T10
X132.75Y-115.0
X137.75Y-112.5
X137.75Y-117.5
X164.75Y-97.5
X165.0Y-106.0
X165.0Y-111.0
X169.75Y-95.0
X169.75Y-100.0
X170.0Y-108.5
T11
X120.0Y-70.0
X120.0Y-130.0
X180.0Y-70.0
X180.0Y-130.0
M30
