%TF.GenerationSoftware,KiCad,Pcbnew,9.0.0*%
%TF.CreationDate,2025-05-14T11:21:04+02:00*%
%TF.ProjectId,Alarme,416c6172-6d65-42e6-9b69-6361645f7063,V0*%
%TF.SameCoordinates,Original*%
%TF.FileFunction,Soldermask,Top*%
%TF.FilePolarity,Negative*%
%FSLAX46Y46*%
G04 Gerber Fmt 4.6, Leading zero omitted, Abs format (unit mm)*
G04 Created by KiCad (PCBNEW 9.0.0) date 2025-05-14 11:21:04*
%MOMM*%
%LPD*%
G01*
G04 APERTURE LIST*
G04 Aperture macros list*
%AMRoundRect*
0 Rectangle with rounded corners*
0 $1 Rounding radius*
0 $2 $3 $4 $5 $6 $7 $8 $9 X,Y pos of 4 corners*
0 Add a 4 corners polygon primitive as box body*
4,1,4,$2,$3,$4,$5,$6,$7,$8,$9,$2,$3,0*
0 Add four circle primitives for the rounded corners*
1,1,$1+$1,$2,$3*
1,1,$1+$1,$4,$5*
1,1,$1+$1,$6,$7*
1,1,$1+$1,$8,$9*
0 Add four rect primitives between the rounded corners*
20,1,$1+$1,$2,$3,$4,$5,0*
20,1,$1+$1,$4,$5,$6,$7,0*
20,1,$1+$1,$6,$7,$8,$9,0*
20,1,$1+$1,$8,$9,$2,$3,0*%
G04 Aperture macros list end*
%ADD10O,1.700000X1.700000*%
%ADD11R,1.700000X1.700000*%
%ADD12R,1.600000X1.600000*%
%ADD13C,1.600000*%
%ADD14C,2.340000*%
%ADD15C,1.400000*%
%ADD16O,1.400000X1.400000*%
%ADD17RoundRect,0.250000X-0.750000X0.600000X-0.750000X-0.600000X0.750000X-0.600000X0.750000X0.600000X0*%
%ADD18O,2.000000X1.700000*%
%ADD19RoundRect,0.250000X-0.950000X-0.550000X0.950000X-0.550000X0.950000X0.550000X-0.950000X0.550000X0*%
%ADD20O,2.400000X1.600000*%
%ADD21C,1.524800*%
%ADD22C,5.600000*%
%ADD23C,1.779000*%
%ADD24RoundRect,0.250000X-0.725000X0.600000X-0.725000X-0.600000X0.725000X-0.600000X0.725000X0.600000X0*%
%ADD25O,1.950000X1.700000*%
%ADD26R,1.130000X1.130000*%
%ADD27C,1.130000*%
%ADD28R,1.850000X1.850000*%
%ADD29C,1.850000*%
G04 APERTURE END LIST*
D10*
%TO.C,JP5*%
X174000000Y-122555000D03*
X174000000Y-120015000D03*
D11*
X174000000Y-117475000D03*
%TD*%
D12*
%TO.C,C8*%
X166000000Y-117750000D03*
D13*
X161000000Y-117750000D03*
%TD*%
D14*
%TO.C,RV3*%
X137750000Y-117500000D03*
X132750000Y-115000000D03*
X137750000Y-112500000D03*
%TD*%
D11*
%TO.C,JP2*%
X147420000Y-122250000D03*
D10*
X149960000Y-122250000D03*
X152500000Y-122250000D03*
%TD*%
D12*
%TO.C,C19*%
X164250000Y-127750000D03*
D13*
X164250000Y-122750000D03*
%TD*%
D12*
%TO.C,C9*%
X135000000Y-80250000D03*
D13*
X140000000Y-80250000D03*
%TD*%
D12*
%TO.C,C5*%
X135000000Y-73250000D03*
D13*
X130000000Y-73250000D03*
%TD*%
D15*
%TO.C,R5*%
X159500000Y-134750000D03*
D16*
X156960000Y-134750000D03*
%TD*%
D15*
%TO.C,R8*%
X143500000Y-127750000D03*
D16*
X143500000Y-130290000D03*
%TD*%
D15*
%TO.C,R15*%
X156210000Y-122000000D03*
D16*
X158750000Y-122000000D03*
%TD*%
D15*
%TO.C,R1*%
X172250000Y-129530000D03*
D16*
X172250000Y-132070000D03*
%TD*%
D12*
%TO.C,C3*%
X150000000Y-96750000D03*
D13*
X150000000Y-91750000D03*
%TD*%
D12*
%TO.C,C12*%
X180250000Y-88000000D03*
D13*
X180250000Y-83000000D03*
%TD*%
D17*
%TO.C,J1*%
X183000000Y-120750000D03*
D18*
X183000000Y-123250000D03*
%TD*%
D12*
%TO.C,C14*%
X136500000Y-96750000D03*
D13*
X141500000Y-96750000D03*
%TD*%
D15*
%TO.C,R11*%
X125250000Y-92000000D03*
D16*
X125250000Y-89460000D03*
%TD*%
D12*
%TO.C,C13*%
X171500000Y-88250000D03*
D13*
X171500000Y-83250000D03*
%TD*%
D12*
%TO.C,C15*%
X126500000Y-115000000D03*
D13*
X126500000Y-120000000D03*
%TD*%
D15*
%TO.C,R13*%
X124000000Y-109250000D03*
D16*
X121460000Y-109250000D03*
%TD*%
D12*
%TO.C,C2*%
X169750000Y-132250000D03*
D13*
X164750000Y-132250000D03*
%TD*%
D12*
%TO.C,C10*%
X178250000Y-114000000D03*
D13*
X183250000Y-114000000D03*
%TD*%
D19*
%TO.C,U2*%
X150000000Y-100960000D03*
D20*
X150000000Y-103500000D03*
X150000000Y-106040000D03*
X150000000Y-108580000D03*
X150000000Y-111120000D03*
X150000000Y-113660000D03*
X150000000Y-116200000D03*
X150000000Y-118740000D03*
X157620000Y-118740000D03*
X157620000Y-116200000D03*
X157620000Y-113660000D03*
X157620000Y-111120000D03*
X157620000Y-108580000D03*
X157620000Y-106040000D03*
X157620000Y-103500000D03*
X157620000Y-100960000D03*
%TD*%
D21*
%TO.C,Q4*%
X127830000Y-98500000D03*
X125290000Y-95960000D03*
X122750000Y-98500000D03*
%TD*%
D12*
%TO.C,C17*%
X141750000Y-107000000D03*
D13*
X141750000Y-102000000D03*
%TD*%
D22*
%TO.C,H5*%
X180000000Y-130000000D03*
%TD*%
D23*
%TO.C,LS1*%
X150000000Y-69200000D03*
X150000000Y-76800000D03*
%TD*%
D12*
%TO.C,C20*%
X132000000Y-127750000D03*
D13*
X132000000Y-132750000D03*
%TD*%
D12*
%TO.C,C4*%
X166000000Y-78000000D03*
D13*
X166000000Y-83000000D03*
%TD*%
D14*
%TO.C,RV2*%
X169750000Y-100000000D03*
X164750000Y-97500000D03*
X169750000Y-95000000D03*
%TD*%
D15*
%TO.C,R12*%
X128250000Y-106710000D03*
D16*
X128250000Y-109250000D03*
%TD*%
D24*
%TO.C,J2*%
X118000000Y-117000000D03*
D25*
X118000000Y-119500000D03*
X118000000Y-122000000D03*
%TD*%
D15*
%TO.C,R2*%
X159500000Y-130000000D03*
D16*
X159500000Y-132540000D03*
%TD*%
D11*
%TO.C,JP4*%
X138250000Y-122000000D03*
D10*
X140790000Y-122000000D03*
X143330000Y-122000000D03*
%TD*%
D22*
%TO.C,H6*%
X120000000Y-70000000D03*
%TD*%
D15*
%TO.C,R9*%
X116000000Y-86592500D03*
D16*
X116000000Y-84052500D03*
%TD*%
D26*
%TO.C,U1*%
X154750000Y-133310000D03*
D27*
X154750000Y-130770000D03*
X154750000Y-128230000D03*
X154750000Y-125690000D03*
X146810000Y-125690000D03*
X146810000Y-128230000D03*
X146810000Y-130770000D03*
X146810000Y-133310000D03*
%TD*%
D15*
%TO.C,R7*%
X137567500Y-90500000D03*
D16*
X135027500Y-90500000D03*
%TD*%
D28*
%TO.C,PS1*%
X180250000Y-108000000D03*
D29*
X180250000Y-105460000D03*
X180250000Y-100380000D03*
X180250000Y-97840000D03*
X180250000Y-95300000D03*
%TD*%
D12*
%TO.C,C7*%
X144500000Y-110500000D03*
D13*
X144500000Y-115500000D03*
%TD*%
D21*
%TO.C,Q2*%
X157000000Y-85460000D03*
X154460000Y-88000000D03*
X157000000Y-90540000D03*
%TD*%
%TO.C,Q3*%
X125250000Y-81000000D03*
X122710000Y-83540000D03*
X125250000Y-86080000D03*
%TD*%
D15*
%TO.C,R14*%
X144500000Y-119000000D03*
D16*
X147040000Y-119000000D03*
%TD*%
D21*
%TO.C,Q1*%
X143000000Y-85460000D03*
X140460000Y-88000000D03*
X143000000Y-90540000D03*
%TD*%
D15*
%TO.C,R10*%
X135000000Y-86000000D03*
D16*
X132460000Y-86000000D03*
%TD*%
D15*
%TO.C,R6*%
X166000000Y-90500000D03*
D16*
X163460000Y-90500000D03*
%TD*%
D22*
%TO.C,H8*%
X180000000Y-70000000D03*
%TD*%
D14*
%TO.C,RV4*%
X165000000Y-106000000D03*
X170000000Y-108500000D03*
X165000000Y-111000000D03*
%TD*%
D22*
%TO.C,H7*%
X120000000Y-130000000D03*
%TD*%
D15*
%TO.C,R4*%
X150000000Y-88500000D03*
D16*
X150000000Y-85960000D03*
%TD*%
M02*
