%TF.GenerationSoftware,KiCad,Pcbnew,9.0.0*%
%TF.CreationDate,2025-05-14T11:22:41+02:00*%
%TF.ProjectId,Alarme,416c6172-6d65-42e6-9b69-6361645f7063,V0*%
%TF.SameCoordinates,Original*%
%TF.FileFunction,Drillmap*%
%TF.FilePolarity,Positive*%
%FSLAX45Y45*%
G04 Gerber Fmt 4.5, Leading zero omitted, Abs format (unit mm)*
G04 Created by KiCad (PCBNEW 9.0.0) date 2025-05-14 11:22:41*
%MOMM*%
%LPD*%
G01*
G04 APERTURE LIST*
%ADD10C,0.050000*%
%ADD11C,0.200000*%
%ADD12C,0.100000*%
%ADD13C,0.105000*%
%ADD14C,0.130000*%
%ADD15C,0.320000*%
G04 APERTURE END LIST*
D10*
X18000000Y-6400000D02*
G75*
G02*
X18600000Y-7000000I0J-600000D01*
G01*
X18600000Y-7000000D02*
X18600000Y-13000000D01*
X18000000Y-13600000D02*
X12000000Y-13600000D01*
X11400000Y-7000000D02*
G75*
G02*
X12000000Y-6400000I600000J0D01*
G01*
X12000000Y-6400000D02*
X18000000Y-6400000D01*
X12000000Y-13600000D02*
G75*
G02*
X11400000Y-13000000I0J600000D01*
G01*
X11400000Y-13000000D02*
X11400000Y-7000000D01*
X18600000Y-13000000D02*
G75*
G02*
X18000000Y-13600000I-600000J0D01*
G01*
D11*
D12*
X11565000Y-8370250D02*
X11635000Y-8440250D01*
X11635000Y-8370250D02*
X11565000Y-8440250D01*
X11565000Y-8624250D02*
X11635000Y-8694250D01*
X11635000Y-8624250D02*
X11565000Y-8694250D01*
X12111000Y-10890000D02*
X12181000Y-10960000D01*
X12181000Y-10890000D02*
X12111000Y-10960000D01*
X12365000Y-10890000D02*
X12435000Y-10960000D01*
X12435000Y-10890000D02*
X12365000Y-10960000D01*
X12490000Y-8911000D02*
X12560000Y-8981000D01*
X12560000Y-8911000D02*
X12490000Y-8981000D01*
X12490000Y-9165000D02*
X12560000Y-9235000D01*
X12560000Y-9165000D02*
X12490000Y-9235000D01*
X12790000Y-10636000D02*
X12860000Y-10706000D01*
X12860000Y-10636000D02*
X12790000Y-10706000D01*
X12790000Y-10890000D02*
X12860000Y-10960000D01*
X12860000Y-10890000D02*
X12790000Y-10960000D01*
X13211000Y-8565000D02*
X13281000Y-8635000D01*
X13281000Y-8565000D02*
X13211000Y-8635000D01*
X13465000Y-8565000D02*
X13535000Y-8635000D01*
X13535000Y-8565000D02*
X13465000Y-8635000D01*
X13467750Y-9015000D02*
X13537750Y-9085000D01*
X13537750Y-9015000D02*
X13467750Y-9085000D01*
X13721750Y-9015000D02*
X13791750Y-9085000D01*
X13791750Y-9015000D02*
X13721750Y-9085000D01*
X14315000Y-12740000D02*
X14385000Y-12810000D01*
X14385000Y-12740000D02*
X14315000Y-12810000D01*
X14315000Y-12994000D02*
X14385000Y-13064000D01*
X14385000Y-12994000D02*
X14315000Y-13064000D01*
X14415000Y-11865000D02*
X14485000Y-11935000D01*
X14485000Y-11865000D02*
X14415000Y-11935000D01*
X14669000Y-11865000D02*
X14739000Y-11935000D01*
X14739000Y-11865000D02*
X14669000Y-11935000D01*
X14965000Y-8561000D02*
X15035000Y-8631000D01*
X15035000Y-8561000D02*
X14965000Y-8631000D01*
X14965000Y-8815000D02*
X15035000Y-8885000D01*
X15035000Y-8815000D02*
X14965000Y-8885000D01*
X15586000Y-12165000D02*
X15656000Y-12235000D01*
X15656000Y-12165000D02*
X15586000Y-12235000D01*
X15661000Y-13440000D02*
X15731000Y-13510000D01*
X15731000Y-13440000D02*
X15661000Y-13510000D01*
X15840000Y-12165000D02*
X15910000Y-12235000D01*
X15910000Y-12165000D02*
X15840000Y-12235000D01*
X15915000Y-12965000D02*
X15985000Y-13035000D01*
X15985000Y-12965000D02*
X15915000Y-13035000D01*
X15915000Y-13219000D02*
X15985000Y-13289000D01*
X15985000Y-13219000D02*
X15915000Y-13289000D01*
X15915000Y-13440000D02*
X15985000Y-13510000D01*
X15985000Y-13440000D02*
X15915000Y-13510000D01*
X16311000Y-9015000D02*
X16381000Y-9085000D01*
X16381000Y-9015000D02*
X16311000Y-9085000D01*
X16565000Y-9015000D02*
X16635000Y-9085000D01*
X16635000Y-9015000D02*
X16565000Y-9085000D01*
X17190000Y-12918000D02*
X17260000Y-12988000D01*
X17260000Y-12918000D02*
X17190000Y-12988000D01*
X17190000Y-13172000D02*
X17260000Y-13242000D01*
X17260000Y-13172000D02*
X17190000Y-13242000D01*
X14717500Y-12569000D02*
G75*
G02*
X14644500Y-12569000I-36500J0D01*
G01*
X14644500Y-12569000D02*
G75*
G02*
X14717500Y-12569000I36500J0D01*
G01*
X14717500Y-12823000D02*
G75*
G02*
X14644500Y-12823000I-36500J0D01*
G01*
X14644500Y-12823000D02*
G75*
G02*
X14717500Y-12823000I36500J0D01*
G01*
X14717500Y-13077000D02*
G75*
G02*
X14644500Y-13077000I-36500J0D01*
G01*
X14644500Y-13077000D02*
G75*
G02*
X14717500Y-13077000I36500J0D01*
G01*
X14717500Y-13331000D02*
G75*
G02*
X14644500Y-13331000I-36500J0D01*
G01*
X14644500Y-13331000D02*
G75*
G02*
X14717500Y-13331000I36500J0D01*
G01*
X15511500Y-12569000D02*
G75*
G02*
X15438500Y-12569000I-36500J0D01*
G01*
X15438500Y-12569000D02*
G75*
G02*
X15511500Y-12569000I36500J0D01*
G01*
X15511500Y-12823000D02*
G75*
G02*
X15438500Y-12823000I-36500J0D01*
G01*
X15438500Y-12823000D02*
G75*
G02*
X15511500Y-12823000I36500J0D01*
G01*
X15511500Y-13077000D02*
G75*
G02*
X15438500Y-13077000I-36500J0D01*
G01*
X15438500Y-13077000D02*
G75*
G02*
X15511500Y-13077000I36500J0D01*
G01*
X15511500Y-13331000D02*
G75*
G02*
X15438500Y-13331000I-36500J0D01*
G01*
X15438500Y-13331000D02*
G75*
G02*
X15511500Y-13331000I36500J0D01*
G01*
X12025000Y-10160000D02*
X12025000Y-10240000D01*
X11985000Y-10200000D02*
X12065000Y-10200000D01*
X12925000Y-12160000D02*
X12925000Y-12240000D01*
X12885000Y-12200000D02*
X12965000Y-12200000D01*
X13425000Y-10785000D02*
X13425000Y-10865000D01*
X13385000Y-10825000D02*
X13465000Y-10825000D01*
X13525000Y-12160000D02*
X13525000Y-12240000D01*
X13485000Y-12200000D02*
X13565000Y-12200000D01*
X13525000Y-12635000D02*
X13525000Y-12715000D01*
X13485000Y-12675000D02*
X13565000Y-12675000D01*
X16075000Y-12135000D02*
X16075000Y-12215000D01*
X16035000Y-12175000D02*
X16115000Y-12175000D01*
X16875000Y-11985000D02*
X16875000Y-12065000D01*
X16835000Y-12025000D02*
X16915000Y-12025000D01*
X17225000Y-12710000D02*
X17225000Y-12790000D01*
X17185000Y-12750000D02*
X17265000Y-12750000D01*
X17417000Y-12425000D02*
X17417000Y-12505000D01*
X17377000Y-12465000D02*
X17457000Y-12465000D01*
X12678284Y-11528284D02*
X12678284Y-11471715D01*
X12621715Y-11471715D01*
X12621715Y-11528284D01*
X12678284Y-11528284D01*
X12678284Y-12028284D02*
X12678284Y-11971715D01*
X12621715Y-11971715D01*
X12621715Y-12028284D01*
X12678284Y-12028284D01*
X13028284Y-7353284D02*
X13028284Y-7296715D01*
X12971715Y-7296715D01*
X12971715Y-7353284D01*
X13028284Y-7353284D01*
X13228284Y-12803284D02*
X13228284Y-12746715D01*
X13171715Y-12746715D01*
X13171715Y-12803284D01*
X13228284Y-12803284D01*
X13228284Y-13303284D02*
X13228284Y-13246715D01*
X13171715Y-13246715D01*
X13171715Y-13303284D01*
X13228284Y-13303284D01*
X13528284Y-7353284D02*
X13528284Y-7296715D01*
X13471715Y-7296715D01*
X13471715Y-7353284D01*
X13528284Y-7353284D01*
X13528284Y-8053284D02*
X13528284Y-7996715D01*
X13471715Y-7996715D01*
X13471715Y-8053284D01*
X13528284Y-8053284D01*
X13678284Y-9703285D02*
X13678284Y-9646716D01*
X13621715Y-9646716D01*
X13621715Y-9703285D01*
X13678284Y-9703285D01*
X14028284Y-8053284D02*
X14028284Y-7996715D01*
X13971715Y-7996715D01*
X13971715Y-8053284D01*
X14028284Y-8053284D01*
X14178284Y-9703285D02*
X14178284Y-9646716D01*
X14121715Y-9646716D01*
X14121715Y-9703285D01*
X14178284Y-9703285D01*
X14203284Y-10228285D02*
X14203284Y-10171716D01*
X14146715Y-10171716D01*
X14146715Y-10228285D01*
X14203284Y-10228285D01*
X14203284Y-10728285D02*
X14203284Y-10671716D01*
X14146715Y-10671716D01*
X14146715Y-10728285D01*
X14203284Y-10728285D01*
X14478284Y-11078285D02*
X14478284Y-11021716D01*
X14421715Y-11021716D01*
X14421715Y-11078285D01*
X14478284Y-11078285D01*
X14478284Y-11578284D02*
X14478284Y-11521715D01*
X14421715Y-11521715D01*
X14421715Y-11578284D01*
X14478284Y-11578284D01*
X15028284Y-9203285D02*
X15028284Y-9146716D01*
X14971715Y-9146716D01*
X14971715Y-9203285D01*
X15028284Y-9203285D01*
X15028284Y-9703285D02*
X15028284Y-9646716D01*
X14971715Y-9646716D01*
X14971715Y-9703285D01*
X15028284Y-9703285D01*
X15028284Y-10124285D02*
X15028284Y-10067716D01*
X14971715Y-10067716D01*
X14971715Y-10124285D01*
X15028284Y-10124285D01*
X15028284Y-10378285D02*
X15028284Y-10321716D01*
X14971715Y-10321716D01*
X14971715Y-10378285D01*
X15028284Y-10378285D01*
X15028284Y-10632285D02*
X15028284Y-10575716D01*
X14971715Y-10575716D01*
X14971715Y-10632285D01*
X15028284Y-10632285D01*
X15028284Y-10886285D02*
X15028284Y-10829716D01*
X14971715Y-10829716D01*
X14971715Y-10886285D01*
X15028284Y-10886285D01*
X15028284Y-11140285D02*
X15028284Y-11083716D01*
X14971715Y-11083716D01*
X14971715Y-11140285D01*
X15028284Y-11140285D01*
X15028284Y-11394284D02*
X15028284Y-11337715D01*
X14971715Y-11337715D01*
X14971715Y-11394284D01*
X15028284Y-11394284D01*
X15028284Y-11648284D02*
X15028284Y-11591715D01*
X14971715Y-11591715D01*
X14971715Y-11648284D01*
X15028284Y-11648284D01*
X15028284Y-11902284D02*
X15028284Y-11845715D01*
X14971715Y-11845715D01*
X14971715Y-11902284D01*
X15028284Y-11902284D01*
X15790284Y-10124285D02*
X15790284Y-10067716D01*
X15733715Y-10067716D01*
X15733715Y-10124285D01*
X15790284Y-10124285D01*
X15790284Y-10378285D02*
X15790284Y-10321716D01*
X15733715Y-10321716D01*
X15733715Y-10378285D01*
X15790284Y-10378285D01*
X15790284Y-10632285D02*
X15790284Y-10575716D01*
X15733715Y-10575716D01*
X15733715Y-10632285D01*
X15790284Y-10632285D01*
X15790284Y-10886285D02*
X15790284Y-10829716D01*
X15733715Y-10829716D01*
X15733715Y-10886285D01*
X15790284Y-10886285D01*
X15790284Y-11140285D02*
X15790284Y-11083716D01*
X15733715Y-11083716D01*
X15733715Y-11140285D01*
X15790284Y-11140285D01*
X15790284Y-11394284D02*
X15790284Y-11337715D01*
X15733715Y-11337715D01*
X15733715Y-11394284D01*
X15790284Y-11394284D01*
X15790284Y-11648284D02*
X15790284Y-11591715D01*
X15733715Y-11591715D01*
X15733715Y-11648284D01*
X15790284Y-11648284D01*
X15790284Y-11902284D02*
X15790284Y-11845715D01*
X15733715Y-11845715D01*
X15733715Y-11902284D01*
X15790284Y-11902284D01*
X16128284Y-11803284D02*
X16128284Y-11746715D01*
X16071715Y-11746715D01*
X16071715Y-11803284D01*
X16128284Y-11803284D01*
X16453284Y-12303284D02*
X16453284Y-12246715D01*
X16396715Y-12246715D01*
X16396715Y-12303284D01*
X16453284Y-12303284D01*
X16453284Y-12803284D02*
X16453284Y-12746715D01*
X16396715Y-12746715D01*
X16396715Y-12803284D01*
X16453284Y-12803284D01*
X16503284Y-13253284D02*
X16503284Y-13196715D01*
X16446715Y-13196715D01*
X16446715Y-13253284D01*
X16503284Y-13253284D01*
X16628284Y-7828284D02*
X16628284Y-7771715D01*
X16571715Y-7771715D01*
X16571715Y-7828284D01*
X16628284Y-7828284D01*
X16628284Y-8328284D02*
X16628284Y-8271715D01*
X16571715Y-8271715D01*
X16571715Y-8328284D01*
X16628284Y-8328284D01*
X16628284Y-11803284D02*
X16628284Y-11746715D01*
X16571715Y-11746715D01*
X16571715Y-11803284D01*
X16628284Y-11803284D01*
X17003285Y-13253284D02*
X17003285Y-13196715D01*
X16946716Y-13196715D01*
X16946716Y-13253284D01*
X17003285Y-13253284D01*
X17178285Y-8353284D02*
X17178285Y-8296715D01*
X17121716Y-8296715D01*
X17121716Y-8353284D01*
X17178285Y-8353284D01*
X17178285Y-8853285D02*
X17178285Y-8796716D01*
X17121716Y-8796716D01*
X17121716Y-8853285D01*
X17178285Y-8853285D01*
X17853285Y-11428284D02*
X17853285Y-11371715D01*
X17796716Y-11371715D01*
X17796716Y-11428284D01*
X17853285Y-11428284D01*
X18053285Y-8328284D02*
X18053285Y-8271715D01*
X17996716Y-8271715D01*
X17996716Y-8328284D01*
X18053285Y-8328284D01*
X18053285Y-8828285D02*
X18053285Y-8771716D01*
X17996716Y-8771716D01*
X17996716Y-8828285D01*
X18053285Y-8828285D01*
X18353285Y-11428284D02*
X18353285Y-11371715D01*
X18296716Y-11371715D01*
X18296716Y-11428284D01*
X18353285Y-11428284D01*
X12271000Y-8394640D02*
X12311640Y-8354000D01*
X12271000Y-8313360D01*
X12230360Y-8354000D01*
X12271000Y-8394640D01*
X12275000Y-9890640D02*
X12315640Y-9850000D01*
X12275000Y-9809360D01*
X12234360Y-9850000D01*
X12275000Y-9890640D01*
X12525000Y-8140640D02*
X12565640Y-8100000D01*
X12525000Y-8059360D01*
X12484360Y-8100000D01*
X12525000Y-8140640D01*
X12525000Y-8648640D02*
X12565640Y-8608000D01*
X12525000Y-8567360D01*
X12484360Y-8608000D01*
X12525000Y-8648640D01*
X12529000Y-9636640D02*
X12569640Y-9596000D01*
X12529000Y-9555360D01*
X12488360Y-9596000D01*
X12529000Y-9636640D01*
X12783000Y-9890640D02*
X12823640Y-9850000D01*
X12783000Y-9809360D01*
X12742360Y-9850000D01*
X12783000Y-9890640D01*
X14046000Y-8840640D02*
X14086640Y-8800000D01*
X14046000Y-8759360D01*
X14005360Y-8800000D01*
X14046000Y-8840640D01*
X14300000Y-8586640D02*
X14340640Y-8546000D01*
X14300000Y-8505360D01*
X14259360Y-8546000D01*
X14300000Y-8586640D01*
X14300000Y-9094640D02*
X14340640Y-9054000D01*
X14300000Y-9013360D01*
X14259360Y-9054000D01*
X14300000Y-9094640D01*
X15446000Y-8840640D02*
X15486640Y-8800000D01*
X15446000Y-8759360D01*
X15405360Y-8800000D01*
X15446000Y-8840640D01*
X15700000Y-8586640D02*
X15740640Y-8546000D01*
X15700000Y-8505360D01*
X15659360Y-8546000D01*
X15700000Y-8586640D01*
X15700000Y-9094640D02*
X15740640Y-9054000D01*
X15700000Y-9013360D01*
X15659360Y-9054000D01*
X15700000Y-9094640D01*
X17982500Y-9487500D02*
X18067500Y-9572500D01*
X18067500Y-9487500D02*
X17982500Y-9572500D01*
X18067500Y-9530000D02*
G75*
G02*
X17982500Y-9530000I-42500J0D01*
G01*
X17982500Y-9530000D02*
G75*
G02*
X18067500Y-9530000I42500J0D01*
G01*
X17982500Y-9741500D02*
X18067500Y-9826500D01*
X18067500Y-9741500D02*
X17982500Y-9826500D01*
X18067500Y-9784000D02*
G75*
G02*
X17982500Y-9784000I-42500J0D01*
G01*
X17982500Y-9784000D02*
G75*
G02*
X18067500Y-9784000I42500J0D01*
G01*
X17982500Y-9995500D02*
X18067500Y-10080500D01*
X18067500Y-9995500D02*
X17982500Y-10080500D01*
X18067500Y-10038000D02*
G75*
G02*
X17982500Y-10038000I-42500J0D01*
G01*
X17982500Y-10038000D02*
G75*
G02*
X18067500Y-10038000I42500J0D01*
G01*
X17982500Y-10503500D02*
X18067500Y-10588500D01*
X18067500Y-10503500D02*
X17982500Y-10588500D01*
X18067500Y-10546000D02*
G75*
G02*
X17982500Y-10546000I-42500J0D01*
G01*
X17982500Y-10546000D02*
G75*
G02*
X18067500Y-10546000I42500J0D01*
G01*
X17982500Y-10757500D02*
X18067500Y-10842500D01*
X18067500Y-10757500D02*
X17982500Y-10842500D01*
X18067500Y-10800000D02*
G75*
G02*
X17982500Y-10800000I-42500J0D01*
G01*
X17982500Y-10800000D02*
G75*
G02*
X18067500Y-10800000I42500J0D01*
G01*
X11752500Y-11652500D02*
X11847500Y-11747500D01*
X11847500Y-11652500D02*
X11752500Y-11747500D01*
X11800000Y-11652500D02*
X11800000Y-11747500D01*
X11752500Y-11700000D02*
X11847500Y-11700000D01*
X11752500Y-11902500D02*
X11847500Y-11997500D01*
X11847500Y-11902500D02*
X11752500Y-11997500D01*
X11800000Y-11902500D02*
X11800000Y-11997500D01*
X11752500Y-11950000D02*
X11847500Y-11950000D01*
X11752500Y-12152500D02*
X11847500Y-12247500D01*
X11847500Y-12152500D02*
X11752500Y-12247500D01*
X11800000Y-12152500D02*
X11800000Y-12247500D01*
X11752500Y-12200000D02*
X11847500Y-12200000D01*
X13775000Y-12150000D02*
X13875000Y-12250000D01*
X13875000Y-12150000D02*
X13775000Y-12250000D01*
X13860356Y-12235356D02*
X13860356Y-12164644D01*
X13789644Y-12164644D01*
X13789644Y-12235356D01*
X13860356Y-12235356D01*
X14029000Y-12150000D02*
X14129000Y-12250000D01*
X14129000Y-12150000D02*
X14029000Y-12250000D01*
X14114356Y-12235356D02*
X14114356Y-12164644D01*
X14043644Y-12164644D01*
X14043644Y-12235356D01*
X14114356Y-12235356D01*
X14283000Y-12150000D02*
X14383000Y-12250000D01*
X14383000Y-12150000D02*
X14283000Y-12250000D01*
X14368356Y-12235356D02*
X14368356Y-12164644D01*
X14297644Y-12164644D01*
X14297644Y-12235356D01*
X14368356Y-12235356D01*
X14692000Y-12175000D02*
X14792000Y-12275000D01*
X14792000Y-12175000D02*
X14692000Y-12275000D01*
X14777356Y-12260356D02*
X14777356Y-12189644D01*
X14706644Y-12189644D01*
X14706644Y-12260356D01*
X14777356Y-12260356D01*
X14946000Y-12175000D02*
X15046000Y-12275000D01*
X15046000Y-12175000D02*
X14946000Y-12275000D01*
X15031356Y-12260356D02*
X15031356Y-12189644D01*
X14960644Y-12189644D01*
X14960644Y-12260356D01*
X15031356Y-12260356D01*
X15200000Y-12175000D02*
X15300000Y-12275000D01*
X15300000Y-12175000D02*
X15200000Y-12275000D01*
X15285356Y-12260356D02*
X15285356Y-12189644D01*
X15214644Y-12189644D01*
X15214644Y-12260356D01*
X15285356Y-12260356D01*
X17350000Y-11697500D02*
X17450000Y-11797500D01*
X17450000Y-11697500D02*
X17350000Y-11797500D01*
X17435356Y-11782856D02*
X17435356Y-11712144D01*
X17364644Y-11712144D01*
X17364644Y-11782856D01*
X17435356Y-11782856D01*
X17350000Y-11951500D02*
X17450000Y-12051500D01*
X17450000Y-11951500D02*
X17350000Y-12051500D01*
X17435356Y-12036856D02*
X17435356Y-11966144D01*
X17364644Y-11966144D01*
X17364644Y-12036856D01*
X17435356Y-12036856D01*
X17350000Y-12205500D02*
X17450000Y-12305500D01*
X17450000Y-12205500D02*
X17350000Y-12305500D01*
X17435356Y-12290856D02*
X17435356Y-12220144D01*
X17364644Y-12220144D01*
X17364644Y-12290856D01*
X17435356Y-12290856D01*
X18250000Y-12025000D02*
X18350000Y-12125000D01*
X18350000Y-12025000D02*
X18250000Y-12125000D01*
X18335356Y-12110356D02*
X18335356Y-12039644D01*
X18264644Y-12039644D01*
X18264644Y-12110356D01*
X18335356Y-12110356D01*
X18250000Y-12275000D02*
X18350000Y-12375000D01*
X18350000Y-12275000D02*
X18250000Y-12375000D01*
X18335356Y-12360356D02*
X18335356Y-12289644D01*
X18264644Y-12289644D01*
X18264644Y-12360356D01*
X18335356Y-12360356D01*
D13*
X14947500Y-6867500D02*
X15052500Y-6972500D01*
X15052500Y-6867500D02*
X14947500Y-6972500D01*
X15000000Y-6972500D02*
X15052500Y-6920000D01*
X15000000Y-6867500D01*
X14947500Y-6920000D01*
X15000000Y-6972500D01*
X14947500Y-7627500D02*
X15052500Y-7732500D01*
X15052500Y-7627500D02*
X14947500Y-7732500D01*
X15000000Y-7732500D02*
X15052500Y-7680000D01*
X15000000Y-7627500D01*
X14947500Y-7680000D01*
X15000000Y-7732500D01*
D14*
X13275000Y-11435000D02*
X13275000Y-11565000D01*
X13210000Y-11500000D02*
X13340000Y-11500000D01*
X13340000Y-11500000D02*
G75*
G02*
X13210000Y-11500000I-65000J0D01*
G01*
X13210000Y-11500000D02*
G75*
G02*
X13340000Y-11500000I65000J0D01*
G01*
X13775000Y-11185000D02*
X13775000Y-11315000D01*
X13710000Y-11250000D02*
X13840000Y-11250000D01*
X13840000Y-11250000D02*
G75*
G02*
X13710000Y-11250000I-65000J0D01*
G01*
X13710000Y-11250000D02*
G75*
G02*
X13840000Y-11250000I65000J0D01*
G01*
X13775000Y-11685000D02*
X13775000Y-11815000D01*
X13710000Y-11750000D02*
X13840000Y-11750000D01*
X13840000Y-11750000D02*
G75*
G02*
X13710000Y-11750000I-65000J0D01*
G01*
X13710000Y-11750000D02*
G75*
G02*
X13840000Y-11750000I65000J0D01*
G01*
X16475000Y-9685000D02*
X16475000Y-9815000D01*
X16410000Y-9750000D02*
X16540000Y-9750000D01*
X16540000Y-9750000D02*
G75*
G02*
X16410000Y-9750000I-65000J0D01*
G01*
X16410000Y-9750000D02*
G75*
G02*
X16540000Y-9750000I65000J0D01*
G01*
X16500000Y-10535000D02*
X16500000Y-10665000D01*
X16435000Y-10600000D02*
X16565000Y-10600000D01*
X16565000Y-10600000D02*
G75*
G02*
X16435000Y-10600000I-65000J0D01*
G01*
X16435000Y-10600000D02*
G75*
G02*
X16565000Y-10600000I65000J0D01*
G01*
X16500000Y-11035000D02*
X16500000Y-11165000D01*
X16435000Y-11100000D02*
X16565000Y-11100000D01*
X16565000Y-11100000D02*
G75*
G02*
X16435000Y-11100000I-65000J0D01*
G01*
X16435000Y-11100000D02*
G75*
G02*
X16565000Y-11100000I65000J0D01*
G01*
X16975000Y-9435000D02*
X16975000Y-9565000D01*
X16910000Y-9500000D02*
X17040000Y-9500000D01*
X17040000Y-9500000D02*
G75*
G02*
X16910000Y-9500000I-65000J0D01*
G01*
X16910000Y-9500000D02*
G75*
G02*
X17040000Y-9500000I65000J0D01*
G01*
X16975000Y-9935000D02*
X16975000Y-10065000D01*
X16910000Y-10000000D02*
X17040000Y-10000000D01*
X17040000Y-10000000D02*
G75*
G02*
X16910000Y-10000000I-65000J0D01*
G01*
X16910000Y-10000000D02*
G75*
G02*
X17040000Y-10000000I65000J0D01*
G01*
X17000000Y-10785000D02*
X17000000Y-10915000D01*
X16935000Y-10850000D02*
X17065000Y-10850000D01*
X17065000Y-10850000D02*
G75*
G02*
X16935000Y-10850000I-65000J0D01*
G01*
X16935000Y-10850000D02*
G75*
G02*
X17065000Y-10850000I65000J0D01*
G01*
D15*
X12113138Y-7113138D02*
X12113138Y-6886862D01*
X11886862Y-6886862D01*
X11886862Y-7113138D01*
X12113138Y-7113138D01*
X12160000Y-7000000D02*
G75*
G02*
X11840000Y-7000000I-160000J0D01*
G01*
X11840000Y-7000000D02*
G75*
G02*
X12160000Y-7000000I160000J0D01*
G01*
X12113138Y-13113138D02*
X12113138Y-12886862D01*
X11886862Y-12886862D01*
X11886862Y-13113138D01*
X12113138Y-13113138D01*
X12160000Y-13000000D02*
G75*
G02*
X11840000Y-13000000I-160000J0D01*
G01*
X11840000Y-13000000D02*
G75*
G02*
X12160000Y-13000000I160000J0D01*
G01*
X18113138Y-7113138D02*
X18113138Y-6886862D01*
X17886862Y-6886862D01*
X17886862Y-7113138D01*
X18113138Y-7113138D01*
X18160000Y-7000000D02*
G75*
G02*
X17840000Y-7000000I-160000J0D01*
G01*
X17840000Y-7000000D02*
G75*
G02*
X18160000Y-7000000I160000J0D01*
G01*
X18113138Y-13113138D02*
X18113138Y-12886862D01*
X17886862Y-12886862D01*
X17886862Y-13113138D01*
X18113138Y-13113138D01*
X18160000Y-13000000D02*
G75*
G02*
X17840000Y-13000000I-160000J0D01*
G01*
X17840000Y-13000000D02*
G75*
G02*
X18160000Y-13000000I160000J0D01*
G01*
D11*
X11658277Y-13913984D02*
X11658277Y-13713984D01*
X11658277Y-13713984D02*
X11705896Y-13713984D01*
X11705896Y-13713984D02*
X11734467Y-13723508D01*
X11734467Y-13723508D02*
X11753515Y-13742555D01*
X11753515Y-13742555D02*
X11763039Y-13761603D01*
X11763039Y-13761603D02*
X11772562Y-13799698D01*
X11772562Y-13799698D02*
X11772562Y-13828269D01*
X11772562Y-13828269D02*
X11763039Y-13866365D01*
X11763039Y-13866365D02*
X11753515Y-13885412D01*
X11753515Y-13885412D02*
X11734467Y-13904460D01*
X11734467Y-13904460D02*
X11705896Y-13913984D01*
X11705896Y-13913984D02*
X11658277Y-13913984D01*
X11858277Y-13913984D02*
X11858277Y-13780650D01*
X11858277Y-13818746D02*
X11867801Y-13799698D01*
X11867801Y-13799698D02*
X11877324Y-13790174D01*
X11877324Y-13790174D02*
X11896372Y-13780650D01*
X11896372Y-13780650D02*
X11915420Y-13780650D01*
X11982086Y-13913984D02*
X11982086Y-13780650D01*
X11982086Y-13713984D02*
X11972562Y-13723508D01*
X11972562Y-13723508D02*
X11982086Y-13733031D01*
X11982086Y-13733031D02*
X11991610Y-13723508D01*
X11991610Y-13723508D02*
X11982086Y-13713984D01*
X11982086Y-13713984D02*
X11982086Y-13733031D01*
X12105896Y-13913984D02*
X12086848Y-13904460D01*
X12086848Y-13904460D02*
X12077324Y-13885412D01*
X12077324Y-13885412D02*
X12077324Y-13713984D01*
X12210658Y-13913984D02*
X12191610Y-13904460D01*
X12191610Y-13904460D02*
X12182086Y-13885412D01*
X12182086Y-13885412D02*
X12182086Y-13713984D01*
X12439229Y-13913984D02*
X12439229Y-13713984D01*
X12439229Y-13713984D02*
X12505896Y-13856841D01*
X12505896Y-13856841D02*
X12572562Y-13713984D01*
X12572562Y-13713984D02*
X12572562Y-13913984D01*
X12753515Y-13913984D02*
X12753515Y-13809222D01*
X12753515Y-13809222D02*
X12743991Y-13790174D01*
X12743991Y-13790174D02*
X12724943Y-13780650D01*
X12724943Y-13780650D02*
X12686848Y-13780650D01*
X12686848Y-13780650D02*
X12667801Y-13790174D01*
X12753515Y-13904460D02*
X12734467Y-13913984D01*
X12734467Y-13913984D02*
X12686848Y-13913984D01*
X12686848Y-13913984D02*
X12667801Y-13904460D01*
X12667801Y-13904460D02*
X12658277Y-13885412D01*
X12658277Y-13885412D02*
X12658277Y-13866365D01*
X12658277Y-13866365D02*
X12667801Y-13847317D01*
X12667801Y-13847317D02*
X12686848Y-13837793D01*
X12686848Y-13837793D02*
X12734467Y-13837793D01*
X12734467Y-13837793D02*
X12753515Y-13828269D01*
X12848753Y-13780650D02*
X12848753Y-13980650D01*
X12848753Y-13790174D02*
X12867801Y-13780650D01*
X12867801Y-13780650D02*
X12905896Y-13780650D01*
X12905896Y-13780650D02*
X12924943Y-13790174D01*
X12924943Y-13790174D02*
X12934467Y-13799698D01*
X12934467Y-13799698D02*
X12943991Y-13818746D01*
X12943991Y-13818746D02*
X12943991Y-13875888D01*
X12943991Y-13875888D02*
X12934467Y-13894936D01*
X12934467Y-13894936D02*
X12924943Y-13904460D01*
X12924943Y-13904460D02*
X12905896Y-13913984D01*
X12905896Y-13913984D02*
X12867801Y-13913984D01*
X12867801Y-13913984D02*
X12848753Y-13904460D01*
X13029705Y-13894936D02*
X13039229Y-13904460D01*
X13039229Y-13904460D02*
X13029705Y-13913984D01*
X13029705Y-13913984D02*
X13020182Y-13904460D01*
X13020182Y-13904460D02*
X13029705Y-13894936D01*
X13029705Y-13894936D02*
X13029705Y-13913984D01*
X13029705Y-13790174D02*
X13039229Y-13799698D01*
X13039229Y-13799698D02*
X13029705Y-13809222D01*
X13029705Y-13809222D02*
X13020182Y-13799698D01*
X13020182Y-13799698D02*
X13029705Y-13790174D01*
X13029705Y-13790174D02*
X13029705Y-13809222D01*
D12*
X11327500Y-14207500D02*
X11397500Y-14277500D01*
X11397500Y-14207500D02*
X11327500Y-14277500D01*
D11*
X11696372Y-14133984D02*
X11715420Y-14133984D01*
X11715420Y-14133984D02*
X11734467Y-14143508D01*
X11734467Y-14143508D02*
X11743991Y-14153031D01*
X11743991Y-14153031D02*
X11753515Y-14172079D01*
X11753515Y-14172079D02*
X11763039Y-14210174D01*
X11763039Y-14210174D02*
X11763039Y-14257793D01*
X11763039Y-14257793D02*
X11753515Y-14295888D01*
X11753515Y-14295888D02*
X11743991Y-14314936D01*
X11743991Y-14314936D02*
X11734467Y-14324460D01*
X11734467Y-14324460D02*
X11715420Y-14333984D01*
X11715420Y-14333984D02*
X11696372Y-14333984D01*
X11696372Y-14333984D02*
X11677324Y-14324460D01*
X11677324Y-14324460D02*
X11667801Y-14314936D01*
X11667801Y-14314936D02*
X11658277Y-14295888D01*
X11658277Y-14295888D02*
X11648753Y-14257793D01*
X11648753Y-14257793D02*
X11648753Y-14210174D01*
X11648753Y-14210174D02*
X11658277Y-14172079D01*
X11658277Y-14172079D02*
X11667801Y-14153031D01*
X11667801Y-14153031D02*
X11677324Y-14143508D01*
X11677324Y-14143508D02*
X11696372Y-14133984D01*
X11848753Y-14314936D02*
X11858277Y-14324460D01*
X11858277Y-14324460D02*
X11848753Y-14333984D01*
X11848753Y-14333984D02*
X11839229Y-14324460D01*
X11839229Y-14324460D02*
X11848753Y-14314936D01*
X11848753Y-14314936D02*
X11848753Y-14333984D01*
X11924943Y-14133984D02*
X12058277Y-14133984D01*
X12058277Y-14133984D02*
X11972562Y-14333984D01*
X12172562Y-14133984D02*
X12191610Y-14133984D01*
X12191610Y-14133984D02*
X12210658Y-14143508D01*
X12210658Y-14143508D02*
X12220182Y-14153031D01*
X12220182Y-14153031D02*
X12229705Y-14172079D01*
X12229705Y-14172079D02*
X12239229Y-14210174D01*
X12239229Y-14210174D02*
X12239229Y-14257793D01*
X12239229Y-14257793D02*
X12229705Y-14295888D01*
X12229705Y-14295888D02*
X12220182Y-14314936D01*
X12220182Y-14314936D02*
X12210658Y-14324460D01*
X12210658Y-14324460D02*
X12191610Y-14333984D01*
X12191610Y-14333984D02*
X12172562Y-14333984D01*
X12172562Y-14333984D02*
X12153515Y-14324460D01*
X12153515Y-14324460D02*
X12143991Y-14314936D01*
X12143991Y-14314936D02*
X12134467Y-14295888D01*
X12134467Y-14295888D02*
X12124943Y-14257793D01*
X12124943Y-14257793D02*
X12124943Y-14210174D01*
X12124943Y-14210174D02*
X12134467Y-14172079D01*
X12134467Y-14172079D02*
X12143991Y-14153031D01*
X12143991Y-14153031D02*
X12153515Y-14143508D01*
X12153515Y-14143508D02*
X12172562Y-14133984D01*
X12363039Y-14133984D02*
X12382086Y-14133984D01*
X12382086Y-14133984D02*
X12401134Y-14143508D01*
X12401134Y-14143508D02*
X12410658Y-14153031D01*
X12410658Y-14153031D02*
X12420182Y-14172079D01*
X12420182Y-14172079D02*
X12429705Y-14210174D01*
X12429705Y-14210174D02*
X12429705Y-14257793D01*
X12429705Y-14257793D02*
X12420182Y-14295888D01*
X12420182Y-14295888D02*
X12410658Y-14314936D01*
X12410658Y-14314936D02*
X12401134Y-14324460D01*
X12401134Y-14324460D02*
X12382086Y-14333984D01*
X12382086Y-14333984D02*
X12363039Y-14333984D01*
X12363039Y-14333984D02*
X12343991Y-14324460D01*
X12343991Y-14324460D02*
X12334467Y-14314936D01*
X12334467Y-14314936D02*
X12324943Y-14295888D01*
X12324943Y-14295888D02*
X12315420Y-14257793D01*
X12315420Y-14257793D02*
X12315420Y-14210174D01*
X12315420Y-14210174D02*
X12324943Y-14172079D01*
X12324943Y-14172079D02*
X12334467Y-14153031D01*
X12334467Y-14153031D02*
X12343991Y-14143508D01*
X12343991Y-14143508D02*
X12363039Y-14133984D01*
X12515420Y-14333984D02*
X12515420Y-14200650D01*
X12515420Y-14219698D02*
X12524943Y-14210174D01*
X12524943Y-14210174D02*
X12543991Y-14200650D01*
X12543991Y-14200650D02*
X12572563Y-14200650D01*
X12572563Y-14200650D02*
X12591610Y-14210174D01*
X12591610Y-14210174D02*
X12601134Y-14229222D01*
X12601134Y-14229222D02*
X12601134Y-14333984D01*
X12601134Y-14229222D02*
X12610658Y-14210174D01*
X12610658Y-14210174D02*
X12629705Y-14200650D01*
X12629705Y-14200650D02*
X12658277Y-14200650D01*
X12658277Y-14200650D02*
X12677324Y-14210174D01*
X12677324Y-14210174D02*
X12686848Y-14229222D01*
X12686848Y-14229222D02*
X12686848Y-14333984D01*
X12782086Y-14333984D02*
X12782086Y-14200650D01*
X12782086Y-14219698D02*
X12791610Y-14210174D01*
X12791610Y-14210174D02*
X12810658Y-14200650D01*
X12810658Y-14200650D02*
X12839229Y-14200650D01*
X12839229Y-14200650D02*
X12858277Y-14210174D01*
X12858277Y-14210174D02*
X12867801Y-14229222D01*
X12867801Y-14229222D02*
X12867801Y-14333984D01*
X12867801Y-14229222D02*
X12877324Y-14210174D01*
X12877324Y-14210174D02*
X12896372Y-14200650D01*
X12896372Y-14200650D02*
X12924943Y-14200650D01*
X12924943Y-14200650D02*
X12943991Y-14210174D01*
X12943991Y-14210174D02*
X12953515Y-14229222D01*
X12953515Y-14229222D02*
X12953515Y-14333984D01*
X13343991Y-14124460D02*
X13172563Y-14381603D01*
X13601134Y-14133984D02*
X13620182Y-14133984D01*
X13620182Y-14133984D02*
X13639229Y-14143508D01*
X13639229Y-14143508D02*
X13648753Y-14153031D01*
X13648753Y-14153031D02*
X13658277Y-14172079D01*
X13658277Y-14172079D02*
X13667801Y-14210174D01*
X13667801Y-14210174D02*
X13667801Y-14257793D01*
X13667801Y-14257793D02*
X13658277Y-14295888D01*
X13658277Y-14295888D02*
X13648753Y-14314936D01*
X13648753Y-14314936D02*
X13639229Y-14324460D01*
X13639229Y-14324460D02*
X13620182Y-14333984D01*
X13620182Y-14333984D02*
X13601134Y-14333984D01*
X13601134Y-14333984D02*
X13582086Y-14324460D01*
X13582086Y-14324460D02*
X13572563Y-14314936D01*
X13572563Y-14314936D02*
X13563039Y-14295888D01*
X13563039Y-14295888D02*
X13553515Y-14257793D01*
X13553515Y-14257793D02*
X13553515Y-14210174D01*
X13553515Y-14210174D02*
X13563039Y-14172079D01*
X13563039Y-14172079D02*
X13572563Y-14153031D01*
X13572563Y-14153031D02*
X13582086Y-14143508D01*
X13582086Y-14143508D02*
X13601134Y-14133984D01*
X13753515Y-14314936D02*
X13763039Y-14324460D01*
X13763039Y-14324460D02*
X13753515Y-14333984D01*
X13753515Y-14333984D02*
X13743991Y-14324460D01*
X13743991Y-14324460D02*
X13753515Y-14314936D01*
X13753515Y-14314936D02*
X13753515Y-14333984D01*
X13886848Y-14133984D02*
X13905896Y-14133984D01*
X13905896Y-14133984D02*
X13924944Y-14143508D01*
X13924944Y-14143508D02*
X13934467Y-14153031D01*
X13934467Y-14153031D02*
X13943991Y-14172079D01*
X13943991Y-14172079D02*
X13953515Y-14210174D01*
X13953515Y-14210174D02*
X13953515Y-14257793D01*
X13953515Y-14257793D02*
X13943991Y-14295888D01*
X13943991Y-14295888D02*
X13934467Y-14314936D01*
X13934467Y-14314936D02*
X13924944Y-14324460D01*
X13924944Y-14324460D02*
X13905896Y-14333984D01*
X13905896Y-14333984D02*
X13886848Y-14333984D01*
X13886848Y-14333984D02*
X13867801Y-14324460D01*
X13867801Y-14324460D02*
X13858277Y-14314936D01*
X13858277Y-14314936D02*
X13848753Y-14295888D01*
X13848753Y-14295888D02*
X13839229Y-14257793D01*
X13839229Y-14257793D02*
X13839229Y-14210174D01*
X13839229Y-14210174D02*
X13848753Y-14172079D01*
X13848753Y-14172079D02*
X13858277Y-14153031D01*
X13858277Y-14153031D02*
X13867801Y-14143508D01*
X13867801Y-14143508D02*
X13886848Y-14133984D01*
X14029706Y-14153031D02*
X14039229Y-14143508D01*
X14039229Y-14143508D02*
X14058277Y-14133984D01*
X14058277Y-14133984D02*
X14105896Y-14133984D01*
X14105896Y-14133984D02*
X14124944Y-14143508D01*
X14124944Y-14143508D02*
X14134467Y-14153031D01*
X14134467Y-14153031D02*
X14143991Y-14172079D01*
X14143991Y-14172079D02*
X14143991Y-14191127D01*
X14143991Y-14191127D02*
X14134467Y-14219698D01*
X14134467Y-14219698D02*
X14020182Y-14333984D01*
X14020182Y-14333984D02*
X14143991Y-14333984D01*
X14210658Y-14133984D02*
X14343991Y-14133984D01*
X14343991Y-14133984D02*
X14258277Y-14333984D01*
X14505896Y-14133984D02*
X14467801Y-14133984D01*
X14467801Y-14133984D02*
X14448753Y-14143508D01*
X14448753Y-14143508D02*
X14439229Y-14153031D01*
X14439229Y-14153031D02*
X14420182Y-14181603D01*
X14420182Y-14181603D02*
X14410658Y-14219698D01*
X14410658Y-14219698D02*
X14410658Y-14295888D01*
X14410658Y-14295888D02*
X14420182Y-14314936D01*
X14420182Y-14314936D02*
X14429706Y-14324460D01*
X14429706Y-14324460D02*
X14448753Y-14333984D01*
X14448753Y-14333984D02*
X14486848Y-14333984D01*
X14486848Y-14333984D02*
X14505896Y-14324460D01*
X14505896Y-14324460D02*
X14515420Y-14314936D01*
X14515420Y-14314936D02*
X14524944Y-14295888D01*
X14524944Y-14295888D02*
X14524944Y-14248269D01*
X14524944Y-14248269D02*
X14515420Y-14229222D01*
X14515420Y-14229222D02*
X14505896Y-14219698D01*
X14505896Y-14219698D02*
X14486848Y-14210174D01*
X14486848Y-14210174D02*
X14448753Y-14210174D01*
X14448753Y-14210174D02*
X14429706Y-14219698D01*
X14429706Y-14219698D02*
X14420182Y-14229222D01*
X14420182Y-14229222D02*
X14410658Y-14248269D01*
X14601134Y-14133984D02*
X14601134Y-14172079D01*
X14677325Y-14133984D02*
X14677325Y-14172079D01*
X14972563Y-14410174D02*
X14963039Y-14400650D01*
X14963039Y-14400650D02*
X14943991Y-14372079D01*
X14943991Y-14372079D02*
X14934468Y-14353031D01*
X14934468Y-14353031D02*
X14924944Y-14324460D01*
X14924944Y-14324460D02*
X14915420Y-14276841D01*
X14915420Y-14276841D02*
X14915420Y-14238746D01*
X14915420Y-14238746D02*
X14924944Y-14191127D01*
X14924944Y-14191127D02*
X14934468Y-14162555D01*
X14934468Y-14162555D02*
X14943991Y-14143508D01*
X14943991Y-14143508D02*
X14963039Y-14114936D01*
X14963039Y-14114936D02*
X14972563Y-14105412D01*
X15039229Y-14153031D02*
X15048753Y-14143508D01*
X15048753Y-14143508D02*
X15067801Y-14133984D01*
X15067801Y-14133984D02*
X15115420Y-14133984D01*
X15115420Y-14133984D02*
X15134468Y-14143508D01*
X15134468Y-14143508D02*
X15143991Y-14153031D01*
X15143991Y-14153031D02*
X15153515Y-14172079D01*
X15153515Y-14172079D02*
X15153515Y-14191127D01*
X15153515Y-14191127D02*
X15143991Y-14219698D01*
X15143991Y-14219698D02*
X15029706Y-14333984D01*
X15029706Y-14333984D02*
X15153515Y-14333984D01*
X15267801Y-14219698D02*
X15248753Y-14210174D01*
X15248753Y-14210174D02*
X15239229Y-14200650D01*
X15239229Y-14200650D02*
X15229706Y-14181603D01*
X15229706Y-14181603D02*
X15229706Y-14172079D01*
X15229706Y-14172079D02*
X15239229Y-14153031D01*
X15239229Y-14153031D02*
X15248753Y-14143508D01*
X15248753Y-14143508D02*
X15267801Y-14133984D01*
X15267801Y-14133984D02*
X15305896Y-14133984D01*
X15305896Y-14133984D02*
X15324944Y-14143508D01*
X15324944Y-14143508D02*
X15334468Y-14153031D01*
X15334468Y-14153031D02*
X15343991Y-14172079D01*
X15343991Y-14172079D02*
X15343991Y-14181603D01*
X15343991Y-14181603D02*
X15334468Y-14200650D01*
X15334468Y-14200650D02*
X15324944Y-14210174D01*
X15324944Y-14210174D02*
X15305896Y-14219698D01*
X15305896Y-14219698D02*
X15267801Y-14219698D01*
X15267801Y-14219698D02*
X15248753Y-14229222D01*
X15248753Y-14229222D02*
X15239229Y-14238746D01*
X15239229Y-14238746D02*
X15229706Y-14257793D01*
X15229706Y-14257793D02*
X15229706Y-14295888D01*
X15229706Y-14295888D02*
X15239229Y-14314936D01*
X15239229Y-14314936D02*
X15248753Y-14324460D01*
X15248753Y-14324460D02*
X15267801Y-14333984D01*
X15267801Y-14333984D02*
X15305896Y-14333984D01*
X15305896Y-14333984D02*
X15324944Y-14324460D01*
X15324944Y-14324460D02*
X15334468Y-14314936D01*
X15334468Y-14314936D02*
X15343991Y-14295888D01*
X15343991Y-14295888D02*
X15343991Y-14257793D01*
X15343991Y-14257793D02*
X15334468Y-14238746D01*
X15334468Y-14238746D02*
X15324944Y-14229222D01*
X15324944Y-14229222D02*
X15305896Y-14219698D01*
X15582087Y-14333984D02*
X15582087Y-14133984D01*
X15667801Y-14333984D02*
X15667801Y-14229222D01*
X15667801Y-14229222D02*
X15658277Y-14210174D01*
X15658277Y-14210174D02*
X15639230Y-14200650D01*
X15639230Y-14200650D02*
X15610658Y-14200650D01*
X15610658Y-14200650D02*
X15591610Y-14210174D01*
X15591610Y-14210174D02*
X15582087Y-14219698D01*
X15791610Y-14333984D02*
X15772563Y-14324460D01*
X15772563Y-14324460D02*
X15763039Y-14314936D01*
X15763039Y-14314936D02*
X15753515Y-14295888D01*
X15753515Y-14295888D02*
X15753515Y-14238746D01*
X15753515Y-14238746D02*
X15763039Y-14219698D01*
X15763039Y-14219698D02*
X15772563Y-14210174D01*
X15772563Y-14210174D02*
X15791610Y-14200650D01*
X15791610Y-14200650D02*
X15820182Y-14200650D01*
X15820182Y-14200650D02*
X15839230Y-14210174D01*
X15839230Y-14210174D02*
X15848753Y-14219698D01*
X15848753Y-14219698D02*
X15858277Y-14238746D01*
X15858277Y-14238746D02*
X15858277Y-14295888D01*
X15858277Y-14295888D02*
X15848753Y-14314936D01*
X15848753Y-14314936D02*
X15839230Y-14324460D01*
X15839230Y-14324460D02*
X15820182Y-14333984D01*
X15820182Y-14333984D02*
X15791610Y-14333984D01*
X15972563Y-14333984D02*
X15953515Y-14324460D01*
X15953515Y-14324460D02*
X15943991Y-14305412D01*
X15943991Y-14305412D02*
X15943991Y-14133984D01*
X16124944Y-14324460D02*
X16105896Y-14333984D01*
X16105896Y-14333984D02*
X16067801Y-14333984D01*
X16067801Y-14333984D02*
X16048753Y-14324460D01*
X16048753Y-14324460D02*
X16039230Y-14305412D01*
X16039230Y-14305412D02*
X16039230Y-14229222D01*
X16039230Y-14229222D02*
X16048753Y-14210174D01*
X16048753Y-14210174D02*
X16067801Y-14200650D01*
X16067801Y-14200650D02*
X16105896Y-14200650D01*
X16105896Y-14200650D02*
X16124944Y-14210174D01*
X16124944Y-14210174D02*
X16134468Y-14229222D01*
X16134468Y-14229222D02*
X16134468Y-14248269D01*
X16134468Y-14248269D02*
X16039230Y-14267317D01*
X16210658Y-14324460D02*
X16229706Y-14333984D01*
X16229706Y-14333984D02*
X16267801Y-14333984D01*
X16267801Y-14333984D02*
X16286849Y-14324460D01*
X16286849Y-14324460D02*
X16296372Y-14305412D01*
X16296372Y-14305412D02*
X16296372Y-14295888D01*
X16296372Y-14295888D02*
X16286849Y-14276841D01*
X16286849Y-14276841D02*
X16267801Y-14267317D01*
X16267801Y-14267317D02*
X16239230Y-14267317D01*
X16239230Y-14267317D02*
X16220182Y-14257793D01*
X16220182Y-14257793D02*
X16210658Y-14238746D01*
X16210658Y-14238746D02*
X16210658Y-14229222D01*
X16210658Y-14229222D02*
X16220182Y-14210174D01*
X16220182Y-14210174D02*
X16239230Y-14200650D01*
X16239230Y-14200650D02*
X16267801Y-14200650D01*
X16267801Y-14200650D02*
X16286849Y-14210174D01*
X16363039Y-14410174D02*
X16372563Y-14400650D01*
X16372563Y-14400650D02*
X16391611Y-14372079D01*
X16391611Y-14372079D02*
X16401134Y-14353031D01*
X16401134Y-14353031D02*
X16410658Y-14324460D01*
X16410658Y-14324460D02*
X16420182Y-14276841D01*
X16420182Y-14276841D02*
X16420182Y-14238746D01*
X16420182Y-14238746D02*
X16410658Y-14191127D01*
X16410658Y-14191127D02*
X16401134Y-14162555D01*
X16401134Y-14162555D02*
X16391611Y-14143508D01*
X16391611Y-14143508D02*
X16372563Y-14114936D01*
X16372563Y-14114936D02*
X16363039Y-14105412D01*
D12*
X11397500Y-14506500D02*
G75*
G02*
X11324500Y-14506500I-36500J0D01*
G01*
X11324500Y-14506500D02*
G75*
G02*
X11397500Y-14506500I36500J0D01*
G01*
D11*
X11696372Y-14397984D02*
X11715420Y-14397984D01*
X11715420Y-14397984D02*
X11734467Y-14407508D01*
X11734467Y-14407508D02*
X11743991Y-14417031D01*
X11743991Y-14417031D02*
X11753515Y-14436079D01*
X11753515Y-14436079D02*
X11763039Y-14474174D01*
X11763039Y-14474174D02*
X11763039Y-14521793D01*
X11763039Y-14521793D02*
X11753515Y-14559888D01*
X11753515Y-14559888D02*
X11743991Y-14578936D01*
X11743991Y-14578936D02*
X11734467Y-14588460D01*
X11734467Y-14588460D02*
X11715420Y-14597984D01*
X11715420Y-14597984D02*
X11696372Y-14597984D01*
X11696372Y-14597984D02*
X11677324Y-14588460D01*
X11677324Y-14588460D02*
X11667801Y-14578936D01*
X11667801Y-14578936D02*
X11658277Y-14559888D01*
X11658277Y-14559888D02*
X11648753Y-14521793D01*
X11648753Y-14521793D02*
X11648753Y-14474174D01*
X11648753Y-14474174D02*
X11658277Y-14436079D01*
X11658277Y-14436079D02*
X11667801Y-14417031D01*
X11667801Y-14417031D02*
X11677324Y-14407508D01*
X11677324Y-14407508D02*
X11696372Y-14397984D01*
X11848753Y-14578936D02*
X11858277Y-14588460D01*
X11858277Y-14588460D02*
X11848753Y-14597984D01*
X11848753Y-14597984D02*
X11839229Y-14588460D01*
X11839229Y-14588460D02*
X11848753Y-14578936D01*
X11848753Y-14578936D02*
X11848753Y-14597984D01*
X11924943Y-14397984D02*
X12058277Y-14397984D01*
X12058277Y-14397984D02*
X11972562Y-14597984D01*
X12115420Y-14397984D02*
X12239229Y-14397984D01*
X12239229Y-14397984D02*
X12172562Y-14474174D01*
X12172562Y-14474174D02*
X12201134Y-14474174D01*
X12201134Y-14474174D02*
X12220182Y-14483698D01*
X12220182Y-14483698D02*
X12229705Y-14493222D01*
X12229705Y-14493222D02*
X12239229Y-14512269D01*
X12239229Y-14512269D02*
X12239229Y-14559888D01*
X12239229Y-14559888D02*
X12229705Y-14578936D01*
X12229705Y-14578936D02*
X12220182Y-14588460D01*
X12220182Y-14588460D02*
X12201134Y-14597984D01*
X12201134Y-14597984D02*
X12143991Y-14597984D01*
X12143991Y-14597984D02*
X12124943Y-14588460D01*
X12124943Y-14588460D02*
X12115420Y-14578936D01*
X12363039Y-14397984D02*
X12382086Y-14397984D01*
X12382086Y-14397984D02*
X12401134Y-14407508D01*
X12401134Y-14407508D02*
X12410658Y-14417031D01*
X12410658Y-14417031D02*
X12420182Y-14436079D01*
X12420182Y-14436079D02*
X12429705Y-14474174D01*
X12429705Y-14474174D02*
X12429705Y-14521793D01*
X12429705Y-14521793D02*
X12420182Y-14559888D01*
X12420182Y-14559888D02*
X12410658Y-14578936D01*
X12410658Y-14578936D02*
X12401134Y-14588460D01*
X12401134Y-14588460D02*
X12382086Y-14597984D01*
X12382086Y-14597984D02*
X12363039Y-14597984D01*
X12363039Y-14597984D02*
X12343991Y-14588460D01*
X12343991Y-14588460D02*
X12334467Y-14578936D01*
X12334467Y-14578936D02*
X12324943Y-14559888D01*
X12324943Y-14559888D02*
X12315420Y-14521793D01*
X12315420Y-14521793D02*
X12315420Y-14474174D01*
X12315420Y-14474174D02*
X12324943Y-14436079D01*
X12324943Y-14436079D02*
X12334467Y-14417031D01*
X12334467Y-14417031D02*
X12343991Y-14407508D01*
X12343991Y-14407508D02*
X12363039Y-14397984D01*
X12515420Y-14597984D02*
X12515420Y-14464650D01*
X12515420Y-14483698D02*
X12524943Y-14474174D01*
X12524943Y-14474174D02*
X12543991Y-14464650D01*
X12543991Y-14464650D02*
X12572563Y-14464650D01*
X12572563Y-14464650D02*
X12591610Y-14474174D01*
X12591610Y-14474174D02*
X12601134Y-14493222D01*
X12601134Y-14493222D02*
X12601134Y-14597984D01*
X12601134Y-14493222D02*
X12610658Y-14474174D01*
X12610658Y-14474174D02*
X12629705Y-14464650D01*
X12629705Y-14464650D02*
X12658277Y-14464650D01*
X12658277Y-14464650D02*
X12677324Y-14474174D01*
X12677324Y-14474174D02*
X12686848Y-14493222D01*
X12686848Y-14493222D02*
X12686848Y-14597984D01*
X12782086Y-14597984D02*
X12782086Y-14464650D01*
X12782086Y-14483698D02*
X12791610Y-14474174D01*
X12791610Y-14474174D02*
X12810658Y-14464650D01*
X12810658Y-14464650D02*
X12839229Y-14464650D01*
X12839229Y-14464650D02*
X12858277Y-14474174D01*
X12858277Y-14474174D02*
X12867801Y-14493222D01*
X12867801Y-14493222D02*
X12867801Y-14597984D01*
X12867801Y-14493222D02*
X12877324Y-14474174D01*
X12877324Y-14474174D02*
X12896372Y-14464650D01*
X12896372Y-14464650D02*
X12924943Y-14464650D01*
X12924943Y-14464650D02*
X12943991Y-14474174D01*
X12943991Y-14474174D02*
X12953515Y-14493222D01*
X12953515Y-14493222D02*
X12953515Y-14597984D01*
X13343991Y-14388460D02*
X13172563Y-14645603D01*
X13601134Y-14397984D02*
X13620182Y-14397984D01*
X13620182Y-14397984D02*
X13639229Y-14407508D01*
X13639229Y-14407508D02*
X13648753Y-14417031D01*
X13648753Y-14417031D02*
X13658277Y-14436079D01*
X13658277Y-14436079D02*
X13667801Y-14474174D01*
X13667801Y-14474174D02*
X13667801Y-14521793D01*
X13667801Y-14521793D02*
X13658277Y-14559888D01*
X13658277Y-14559888D02*
X13648753Y-14578936D01*
X13648753Y-14578936D02*
X13639229Y-14588460D01*
X13639229Y-14588460D02*
X13620182Y-14597984D01*
X13620182Y-14597984D02*
X13601134Y-14597984D01*
X13601134Y-14597984D02*
X13582086Y-14588460D01*
X13582086Y-14588460D02*
X13572563Y-14578936D01*
X13572563Y-14578936D02*
X13563039Y-14559888D01*
X13563039Y-14559888D02*
X13553515Y-14521793D01*
X13553515Y-14521793D02*
X13553515Y-14474174D01*
X13553515Y-14474174D02*
X13563039Y-14436079D01*
X13563039Y-14436079D02*
X13572563Y-14417031D01*
X13572563Y-14417031D02*
X13582086Y-14407508D01*
X13582086Y-14407508D02*
X13601134Y-14397984D01*
X13753515Y-14578936D02*
X13763039Y-14588460D01*
X13763039Y-14588460D02*
X13753515Y-14597984D01*
X13753515Y-14597984D02*
X13743991Y-14588460D01*
X13743991Y-14588460D02*
X13753515Y-14578936D01*
X13753515Y-14578936D02*
X13753515Y-14597984D01*
X13886848Y-14397984D02*
X13905896Y-14397984D01*
X13905896Y-14397984D02*
X13924944Y-14407508D01*
X13924944Y-14407508D02*
X13934467Y-14417031D01*
X13934467Y-14417031D02*
X13943991Y-14436079D01*
X13943991Y-14436079D02*
X13953515Y-14474174D01*
X13953515Y-14474174D02*
X13953515Y-14521793D01*
X13953515Y-14521793D02*
X13943991Y-14559888D01*
X13943991Y-14559888D02*
X13934467Y-14578936D01*
X13934467Y-14578936D02*
X13924944Y-14588460D01*
X13924944Y-14588460D02*
X13905896Y-14597984D01*
X13905896Y-14597984D02*
X13886848Y-14597984D01*
X13886848Y-14597984D02*
X13867801Y-14588460D01*
X13867801Y-14588460D02*
X13858277Y-14578936D01*
X13858277Y-14578936D02*
X13848753Y-14559888D01*
X13848753Y-14559888D02*
X13839229Y-14521793D01*
X13839229Y-14521793D02*
X13839229Y-14474174D01*
X13839229Y-14474174D02*
X13848753Y-14436079D01*
X13848753Y-14436079D02*
X13858277Y-14417031D01*
X13858277Y-14417031D02*
X13867801Y-14407508D01*
X13867801Y-14407508D02*
X13886848Y-14397984D01*
X14029706Y-14417031D02*
X14039229Y-14407508D01*
X14039229Y-14407508D02*
X14058277Y-14397984D01*
X14058277Y-14397984D02*
X14105896Y-14397984D01*
X14105896Y-14397984D02*
X14124944Y-14407508D01*
X14124944Y-14407508D02*
X14134467Y-14417031D01*
X14134467Y-14417031D02*
X14143991Y-14436079D01*
X14143991Y-14436079D02*
X14143991Y-14455127D01*
X14143991Y-14455127D02*
X14134467Y-14483698D01*
X14134467Y-14483698D02*
X14020182Y-14597984D01*
X14020182Y-14597984D02*
X14143991Y-14597984D01*
X14258277Y-14483698D02*
X14239229Y-14474174D01*
X14239229Y-14474174D02*
X14229706Y-14464650D01*
X14229706Y-14464650D02*
X14220182Y-14445603D01*
X14220182Y-14445603D02*
X14220182Y-14436079D01*
X14220182Y-14436079D02*
X14229706Y-14417031D01*
X14229706Y-14417031D02*
X14239229Y-14407508D01*
X14239229Y-14407508D02*
X14258277Y-14397984D01*
X14258277Y-14397984D02*
X14296372Y-14397984D01*
X14296372Y-14397984D02*
X14315420Y-14407508D01*
X14315420Y-14407508D02*
X14324944Y-14417031D01*
X14324944Y-14417031D02*
X14334467Y-14436079D01*
X14334467Y-14436079D02*
X14334467Y-14445603D01*
X14334467Y-14445603D02*
X14324944Y-14464650D01*
X14324944Y-14464650D02*
X14315420Y-14474174D01*
X14315420Y-14474174D02*
X14296372Y-14483698D01*
X14296372Y-14483698D02*
X14258277Y-14483698D01*
X14258277Y-14483698D02*
X14239229Y-14493222D01*
X14239229Y-14493222D02*
X14229706Y-14502746D01*
X14229706Y-14502746D02*
X14220182Y-14521793D01*
X14220182Y-14521793D02*
X14220182Y-14559888D01*
X14220182Y-14559888D02*
X14229706Y-14578936D01*
X14229706Y-14578936D02*
X14239229Y-14588460D01*
X14239229Y-14588460D02*
X14258277Y-14597984D01*
X14258277Y-14597984D02*
X14296372Y-14597984D01*
X14296372Y-14597984D02*
X14315420Y-14588460D01*
X14315420Y-14588460D02*
X14324944Y-14578936D01*
X14324944Y-14578936D02*
X14334467Y-14559888D01*
X14334467Y-14559888D02*
X14334467Y-14521793D01*
X14334467Y-14521793D02*
X14324944Y-14502746D01*
X14324944Y-14502746D02*
X14315420Y-14493222D01*
X14315420Y-14493222D02*
X14296372Y-14483698D01*
X14401134Y-14397984D02*
X14534467Y-14397984D01*
X14534467Y-14397984D02*
X14448753Y-14597984D01*
X14601134Y-14397984D02*
X14601134Y-14436079D01*
X14677325Y-14397984D02*
X14677325Y-14436079D01*
X14972563Y-14674174D02*
X14963039Y-14664650D01*
X14963039Y-14664650D02*
X14943991Y-14636079D01*
X14943991Y-14636079D02*
X14934468Y-14617031D01*
X14934468Y-14617031D02*
X14924944Y-14588460D01*
X14924944Y-14588460D02*
X14915420Y-14540841D01*
X14915420Y-14540841D02*
X14915420Y-14502746D01*
X14915420Y-14502746D02*
X14924944Y-14455127D01*
X14924944Y-14455127D02*
X14934468Y-14426555D01*
X14934468Y-14426555D02*
X14943991Y-14407508D01*
X14943991Y-14407508D02*
X14963039Y-14378936D01*
X14963039Y-14378936D02*
X14972563Y-14369412D01*
X15077325Y-14483698D02*
X15058277Y-14474174D01*
X15058277Y-14474174D02*
X15048753Y-14464650D01*
X15048753Y-14464650D02*
X15039229Y-14445603D01*
X15039229Y-14445603D02*
X15039229Y-14436079D01*
X15039229Y-14436079D02*
X15048753Y-14417031D01*
X15048753Y-14417031D02*
X15058277Y-14407508D01*
X15058277Y-14407508D02*
X15077325Y-14397984D01*
X15077325Y-14397984D02*
X15115420Y-14397984D01*
X15115420Y-14397984D02*
X15134468Y-14407508D01*
X15134468Y-14407508D02*
X15143991Y-14417031D01*
X15143991Y-14417031D02*
X15153515Y-14436079D01*
X15153515Y-14436079D02*
X15153515Y-14445603D01*
X15153515Y-14445603D02*
X15143991Y-14464650D01*
X15143991Y-14464650D02*
X15134468Y-14474174D01*
X15134468Y-14474174D02*
X15115420Y-14483698D01*
X15115420Y-14483698D02*
X15077325Y-14483698D01*
X15077325Y-14483698D02*
X15058277Y-14493222D01*
X15058277Y-14493222D02*
X15048753Y-14502746D01*
X15048753Y-14502746D02*
X15039229Y-14521793D01*
X15039229Y-14521793D02*
X15039229Y-14559888D01*
X15039229Y-14559888D02*
X15048753Y-14578936D01*
X15048753Y-14578936D02*
X15058277Y-14588460D01*
X15058277Y-14588460D02*
X15077325Y-14597984D01*
X15077325Y-14597984D02*
X15115420Y-14597984D01*
X15115420Y-14597984D02*
X15134468Y-14588460D01*
X15134468Y-14588460D02*
X15143991Y-14578936D01*
X15143991Y-14578936D02*
X15153515Y-14559888D01*
X15153515Y-14559888D02*
X15153515Y-14521793D01*
X15153515Y-14521793D02*
X15143991Y-14502746D01*
X15143991Y-14502746D02*
X15134468Y-14493222D01*
X15134468Y-14493222D02*
X15115420Y-14483698D01*
X15391610Y-14597984D02*
X15391610Y-14397984D01*
X15477325Y-14597984D02*
X15477325Y-14493222D01*
X15477325Y-14493222D02*
X15467801Y-14474174D01*
X15467801Y-14474174D02*
X15448753Y-14464650D01*
X15448753Y-14464650D02*
X15420182Y-14464650D01*
X15420182Y-14464650D02*
X15401134Y-14474174D01*
X15401134Y-14474174D02*
X15391610Y-14483698D01*
X15601134Y-14597984D02*
X15582087Y-14588460D01*
X15582087Y-14588460D02*
X15572563Y-14578936D01*
X15572563Y-14578936D02*
X15563039Y-14559888D01*
X15563039Y-14559888D02*
X15563039Y-14502746D01*
X15563039Y-14502746D02*
X15572563Y-14483698D01*
X15572563Y-14483698D02*
X15582087Y-14474174D01*
X15582087Y-14474174D02*
X15601134Y-14464650D01*
X15601134Y-14464650D02*
X15629706Y-14464650D01*
X15629706Y-14464650D02*
X15648753Y-14474174D01*
X15648753Y-14474174D02*
X15658277Y-14483698D01*
X15658277Y-14483698D02*
X15667801Y-14502746D01*
X15667801Y-14502746D02*
X15667801Y-14559888D01*
X15667801Y-14559888D02*
X15658277Y-14578936D01*
X15658277Y-14578936D02*
X15648753Y-14588460D01*
X15648753Y-14588460D02*
X15629706Y-14597984D01*
X15629706Y-14597984D02*
X15601134Y-14597984D01*
X15782087Y-14597984D02*
X15763039Y-14588460D01*
X15763039Y-14588460D02*
X15753515Y-14569412D01*
X15753515Y-14569412D02*
X15753515Y-14397984D01*
X15934468Y-14588460D02*
X15915420Y-14597984D01*
X15915420Y-14597984D02*
X15877325Y-14597984D01*
X15877325Y-14597984D02*
X15858277Y-14588460D01*
X15858277Y-14588460D02*
X15848753Y-14569412D01*
X15848753Y-14569412D02*
X15848753Y-14493222D01*
X15848753Y-14493222D02*
X15858277Y-14474174D01*
X15858277Y-14474174D02*
X15877325Y-14464650D01*
X15877325Y-14464650D02*
X15915420Y-14464650D01*
X15915420Y-14464650D02*
X15934468Y-14474174D01*
X15934468Y-14474174D02*
X15943991Y-14493222D01*
X15943991Y-14493222D02*
X15943991Y-14512269D01*
X15943991Y-14512269D02*
X15848753Y-14531317D01*
X16020182Y-14588460D02*
X16039230Y-14597984D01*
X16039230Y-14597984D02*
X16077325Y-14597984D01*
X16077325Y-14597984D02*
X16096372Y-14588460D01*
X16096372Y-14588460D02*
X16105896Y-14569412D01*
X16105896Y-14569412D02*
X16105896Y-14559888D01*
X16105896Y-14559888D02*
X16096372Y-14540841D01*
X16096372Y-14540841D02*
X16077325Y-14531317D01*
X16077325Y-14531317D02*
X16048753Y-14531317D01*
X16048753Y-14531317D02*
X16029706Y-14521793D01*
X16029706Y-14521793D02*
X16020182Y-14502746D01*
X16020182Y-14502746D02*
X16020182Y-14493222D01*
X16020182Y-14493222D02*
X16029706Y-14474174D01*
X16029706Y-14474174D02*
X16048753Y-14464650D01*
X16048753Y-14464650D02*
X16077325Y-14464650D01*
X16077325Y-14464650D02*
X16096372Y-14474174D01*
X16172563Y-14674174D02*
X16182087Y-14664650D01*
X16182087Y-14664650D02*
X16201134Y-14636079D01*
X16201134Y-14636079D02*
X16210658Y-14617031D01*
X16210658Y-14617031D02*
X16220182Y-14588460D01*
X16220182Y-14588460D02*
X16229706Y-14540841D01*
X16229706Y-14540841D02*
X16229706Y-14502746D01*
X16229706Y-14502746D02*
X16220182Y-14455127D01*
X16220182Y-14455127D02*
X16210658Y-14426555D01*
X16210658Y-14426555D02*
X16201134Y-14407508D01*
X16201134Y-14407508D02*
X16182087Y-14378936D01*
X16182087Y-14378936D02*
X16172563Y-14369412D01*
D12*
X11357500Y-14730500D02*
X11357500Y-14810500D01*
X11317500Y-14770500D02*
X11397500Y-14770500D01*
D11*
X11696372Y-14661984D02*
X11715420Y-14661984D01*
X11715420Y-14661984D02*
X11734467Y-14671508D01*
X11734467Y-14671508D02*
X11743991Y-14681031D01*
X11743991Y-14681031D02*
X11753515Y-14700079D01*
X11753515Y-14700079D02*
X11763039Y-14738174D01*
X11763039Y-14738174D02*
X11763039Y-14785793D01*
X11763039Y-14785793D02*
X11753515Y-14823888D01*
X11753515Y-14823888D02*
X11743991Y-14842936D01*
X11743991Y-14842936D02*
X11734467Y-14852460D01*
X11734467Y-14852460D02*
X11715420Y-14861984D01*
X11715420Y-14861984D02*
X11696372Y-14861984D01*
X11696372Y-14861984D02*
X11677324Y-14852460D01*
X11677324Y-14852460D02*
X11667801Y-14842936D01*
X11667801Y-14842936D02*
X11658277Y-14823888D01*
X11658277Y-14823888D02*
X11648753Y-14785793D01*
X11648753Y-14785793D02*
X11648753Y-14738174D01*
X11648753Y-14738174D02*
X11658277Y-14700079D01*
X11658277Y-14700079D02*
X11667801Y-14681031D01*
X11667801Y-14681031D02*
X11677324Y-14671508D01*
X11677324Y-14671508D02*
X11696372Y-14661984D01*
X11848753Y-14842936D02*
X11858277Y-14852460D01*
X11858277Y-14852460D02*
X11848753Y-14861984D01*
X11848753Y-14861984D02*
X11839229Y-14852460D01*
X11839229Y-14852460D02*
X11848753Y-14842936D01*
X11848753Y-14842936D02*
X11848753Y-14861984D01*
X11972562Y-14747698D02*
X11953515Y-14738174D01*
X11953515Y-14738174D02*
X11943991Y-14728650D01*
X11943991Y-14728650D02*
X11934467Y-14709603D01*
X11934467Y-14709603D02*
X11934467Y-14700079D01*
X11934467Y-14700079D02*
X11943991Y-14681031D01*
X11943991Y-14681031D02*
X11953515Y-14671508D01*
X11953515Y-14671508D02*
X11972562Y-14661984D01*
X11972562Y-14661984D02*
X12010658Y-14661984D01*
X12010658Y-14661984D02*
X12029705Y-14671508D01*
X12029705Y-14671508D02*
X12039229Y-14681031D01*
X12039229Y-14681031D02*
X12048753Y-14700079D01*
X12048753Y-14700079D02*
X12048753Y-14709603D01*
X12048753Y-14709603D02*
X12039229Y-14728650D01*
X12039229Y-14728650D02*
X12029705Y-14738174D01*
X12029705Y-14738174D02*
X12010658Y-14747698D01*
X12010658Y-14747698D02*
X11972562Y-14747698D01*
X11972562Y-14747698D02*
X11953515Y-14757222D01*
X11953515Y-14757222D02*
X11943991Y-14766746D01*
X11943991Y-14766746D02*
X11934467Y-14785793D01*
X11934467Y-14785793D02*
X11934467Y-14823888D01*
X11934467Y-14823888D02*
X11943991Y-14842936D01*
X11943991Y-14842936D02*
X11953515Y-14852460D01*
X11953515Y-14852460D02*
X11972562Y-14861984D01*
X11972562Y-14861984D02*
X12010658Y-14861984D01*
X12010658Y-14861984D02*
X12029705Y-14852460D01*
X12029705Y-14852460D02*
X12039229Y-14842936D01*
X12039229Y-14842936D02*
X12048753Y-14823888D01*
X12048753Y-14823888D02*
X12048753Y-14785793D01*
X12048753Y-14785793D02*
X12039229Y-14766746D01*
X12039229Y-14766746D02*
X12029705Y-14757222D01*
X12029705Y-14757222D02*
X12010658Y-14747698D01*
X12172562Y-14661984D02*
X12191610Y-14661984D01*
X12191610Y-14661984D02*
X12210658Y-14671508D01*
X12210658Y-14671508D02*
X12220182Y-14681031D01*
X12220182Y-14681031D02*
X12229705Y-14700079D01*
X12229705Y-14700079D02*
X12239229Y-14738174D01*
X12239229Y-14738174D02*
X12239229Y-14785793D01*
X12239229Y-14785793D02*
X12229705Y-14823888D01*
X12229705Y-14823888D02*
X12220182Y-14842936D01*
X12220182Y-14842936D02*
X12210658Y-14852460D01*
X12210658Y-14852460D02*
X12191610Y-14861984D01*
X12191610Y-14861984D02*
X12172562Y-14861984D01*
X12172562Y-14861984D02*
X12153515Y-14852460D01*
X12153515Y-14852460D02*
X12143991Y-14842936D01*
X12143991Y-14842936D02*
X12134467Y-14823888D01*
X12134467Y-14823888D02*
X12124943Y-14785793D01*
X12124943Y-14785793D02*
X12124943Y-14738174D01*
X12124943Y-14738174D02*
X12134467Y-14700079D01*
X12134467Y-14700079D02*
X12143991Y-14681031D01*
X12143991Y-14681031D02*
X12153515Y-14671508D01*
X12153515Y-14671508D02*
X12172562Y-14661984D01*
X12363039Y-14661984D02*
X12382086Y-14661984D01*
X12382086Y-14661984D02*
X12401134Y-14671508D01*
X12401134Y-14671508D02*
X12410658Y-14681031D01*
X12410658Y-14681031D02*
X12420182Y-14700079D01*
X12420182Y-14700079D02*
X12429705Y-14738174D01*
X12429705Y-14738174D02*
X12429705Y-14785793D01*
X12429705Y-14785793D02*
X12420182Y-14823888D01*
X12420182Y-14823888D02*
X12410658Y-14842936D01*
X12410658Y-14842936D02*
X12401134Y-14852460D01*
X12401134Y-14852460D02*
X12382086Y-14861984D01*
X12382086Y-14861984D02*
X12363039Y-14861984D01*
X12363039Y-14861984D02*
X12343991Y-14852460D01*
X12343991Y-14852460D02*
X12334467Y-14842936D01*
X12334467Y-14842936D02*
X12324943Y-14823888D01*
X12324943Y-14823888D02*
X12315420Y-14785793D01*
X12315420Y-14785793D02*
X12315420Y-14738174D01*
X12315420Y-14738174D02*
X12324943Y-14700079D01*
X12324943Y-14700079D02*
X12334467Y-14681031D01*
X12334467Y-14681031D02*
X12343991Y-14671508D01*
X12343991Y-14671508D02*
X12363039Y-14661984D01*
X12515420Y-14861984D02*
X12515420Y-14728650D01*
X12515420Y-14747698D02*
X12524943Y-14738174D01*
X12524943Y-14738174D02*
X12543991Y-14728650D01*
X12543991Y-14728650D02*
X12572563Y-14728650D01*
X12572563Y-14728650D02*
X12591610Y-14738174D01*
X12591610Y-14738174D02*
X12601134Y-14757222D01*
X12601134Y-14757222D02*
X12601134Y-14861984D01*
X12601134Y-14757222D02*
X12610658Y-14738174D01*
X12610658Y-14738174D02*
X12629705Y-14728650D01*
X12629705Y-14728650D02*
X12658277Y-14728650D01*
X12658277Y-14728650D02*
X12677324Y-14738174D01*
X12677324Y-14738174D02*
X12686848Y-14757222D01*
X12686848Y-14757222D02*
X12686848Y-14861984D01*
X12782086Y-14861984D02*
X12782086Y-14728650D01*
X12782086Y-14747698D02*
X12791610Y-14738174D01*
X12791610Y-14738174D02*
X12810658Y-14728650D01*
X12810658Y-14728650D02*
X12839229Y-14728650D01*
X12839229Y-14728650D02*
X12858277Y-14738174D01*
X12858277Y-14738174D02*
X12867801Y-14757222D01*
X12867801Y-14757222D02*
X12867801Y-14861984D01*
X12867801Y-14757222D02*
X12877324Y-14738174D01*
X12877324Y-14738174D02*
X12896372Y-14728650D01*
X12896372Y-14728650D02*
X12924943Y-14728650D01*
X12924943Y-14728650D02*
X12943991Y-14738174D01*
X12943991Y-14738174D02*
X12953515Y-14757222D01*
X12953515Y-14757222D02*
X12953515Y-14861984D01*
X13343991Y-14652460D02*
X13172563Y-14909603D01*
X13601134Y-14661984D02*
X13620182Y-14661984D01*
X13620182Y-14661984D02*
X13639229Y-14671508D01*
X13639229Y-14671508D02*
X13648753Y-14681031D01*
X13648753Y-14681031D02*
X13658277Y-14700079D01*
X13658277Y-14700079D02*
X13667801Y-14738174D01*
X13667801Y-14738174D02*
X13667801Y-14785793D01*
X13667801Y-14785793D02*
X13658277Y-14823888D01*
X13658277Y-14823888D02*
X13648753Y-14842936D01*
X13648753Y-14842936D02*
X13639229Y-14852460D01*
X13639229Y-14852460D02*
X13620182Y-14861984D01*
X13620182Y-14861984D02*
X13601134Y-14861984D01*
X13601134Y-14861984D02*
X13582086Y-14852460D01*
X13582086Y-14852460D02*
X13572563Y-14842936D01*
X13572563Y-14842936D02*
X13563039Y-14823888D01*
X13563039Y-14823888D02*
X13553515Y-14785793D01*
X13553515Y-14785793D02*
X13553515Y-14738174D01*
X13553515Y-14738174D02*
X13563039Y-14700079D01*
X13563039Y-14700079D02*
X13572563Y-14681031D01*
X13572563Y-14681031D02*
X13582086Y-14671508D01*
X13582086Y-14671508D02*
X13601134Y-14661984D01*
X13753515Y-14842936D02*
X13763039Y-14852460D01*
X13763039Y-14852460D02*
X13753515Y-14861984D01*
X13753515Y-14861984D02*
X13743991Y-14852460D01*
X13743991Y-14852460D02*
X13753515Y-14842936D01*
X13753515Y-14842936D02*
X13753515Y-14861984D01*
X13886848Y-14661984D02*
X13905896Y-14661984D01*
X13905896Y-14661984D02*
X13924944Y-14671508D01*
X13924944Y-14671508D02*
X13934467Y-14681031D01*
X13934467Y-14681031D02*
X13943991Y-14700079D01*
X13943991Y-14700079D02*
X13953515Y-14738174D01*
X13953515Y-14738174D02*
X13953515Y-14785793D01*
X13953515Y-14785793D02*
X13943991Y-14823888D01*
X13943991Y-14823888D02*
X13934467Y-14842936D01*
X13934467Y-14842936D02*
X13924944Y-14852460D01*
X13924944Y-14852460D02*
X13905896Y-14861984D01*
X13905896Y-14861984D02*
X13886848Y-14861984D01*
X13886848Y-14861984D02*
X13867801Y-14852460D01*
X13867801Y-14852460D02*
X13858277Y-14842936D01*
X13858277Y-14842936D02*
X13848753Y-14823888D01*
X13848753Y-14823888D02*
X13839229Y-14785793D01*
X13839229Y-14785793D02*
X13839229Y-14738174D01*
X13839229Y-14738174D02*
X13848753Y-14700079D01*
X13848753Y-14700079D02*
X13858277Y-14681031D01*
X13858277Y-14681031D02*
X13867801Y-14671508D01*
X13867801Y-14671508D02*
X13886848Y-14661984D01*
X14020182Y-14661984D02*
X14143991Y-14661984D01*
X14143991Y-14661984D02*
X14077325Y-14738174D01*
X14077325Y-14738174D02*
X14105896Y-14738174D01*
X14105896Y-14738174D02*
X14124944Y-14747698D01*
X14124944Y-14747698D02*
X14134467Y-14757222D01*
X14134467Y-14757222D02*
X14143991Y-14776269D01*
X14143991Y-14776269D02*
X14143991Y-14823888D01*
X14143991Y-14823888D02*
X14134467Y-14842936D01*
X14134467Y-14842936D02*
X14124944Y-14852460D01*
X14124944Y-14852460D02*
X14105896Y-14861984D01*
X14105896Y-14861984D02*
X14048753Y-14861984D01*
X14048753Y-14861984D02*
X14029706Y-14852460D01*
X14029706Y-14852460D02*
X14020182Y-14842936D01*
X14334467Y-14861984D02*
X14220182Y-14861984D01*
X14277325Y-14861984D02*
X14277325Y-14661984D01*
X14277325Y-14661984D02*
X14258277Y-14690555D01*
X14258277Y-14690555D02*
X14239229Y-14709603D01*
X14239229Y-14709603D02*
X14220182Y-14719127D01*
X14515420Y-14661984D02*
X14420182Y-14661984D01*
X14420182Y-14661984D02*
X14410658Y-14757222D01*
X14410658Y-14757222D02*
X14420182Y-14747698D01*
X14420182Y-14747698D02*
X14439229Y-14738174D01*
X14439229Y-14738174D02*
X14486848Y-14738174D01*
X14486848Y-14738174D02*
X14505896Y-14747698D01*
X14505896Y-14747698D02*
X14515420Y-14757222D01*
X14515420Y-14757222D02*
X14524944Y-14776269D01*
X14524944Y-14776269D02*
X14524944Y-14823888D01*
X14524944Y-14823888D02*
X14515420Y-14842936D01*
X14515420Y-14842936D02*
X14505896Y-14852460D01*
X14505896Y-14852460D02*
X14486848Y-14861984D01*
X14486848Y-14861984D02*
X14439229Y-14861984D01*
X14439229Y-14861984D02*
X14420182Y-14852460D01*
X14420182Y-14852460D02*
X14410658Y-14842936D01*
X14601134Y-14661984D02*
X14601134Y-14700079D01*
X14677325Y-14661984D02*
X14677325Y-14700079D01*
X14972563Y-14938174D02*
X14963039Y-14928650D01*
X14963039Y-14928650D02*
X14943991Y-14900079D01*
X14943991Y-14900079D02*
X14934468Y-14881031D01*
X14934468Y-14881031D02*
X14924944Y-14852460D01*
X14924944Y-14852460D02*
X14915420Y-14804841D01*
X14915420Y-14804841D02*
X14915420Y-14766746D01*
X14915420Y-14766746D02*
X14924944Y-14719127D01*
X14924944Y-14719127D02*
X14934468Y-14690555D01*
X14934468Y-14690555D02*
X14943991Y-14671508D01*
X14943991Y-14671508D02*
X14963039Y-14642936D01*
X14963039Y-14642936D02*
X14972563Y-14633412D01*
X15058277Y-14861984D02*
X15096372Y-14861984D01*
X15096372Y-14861984D02*
X15115420Y-14852460D01*
X15115420Y-14852460D02*
X15124944Y-14842936D01*
X15124944Y-14842936D02*
X15143991Y-14814365D01*
X15143991Y-14814365D02*
X15153515Y-14776269D01*
X15153515Y-14776269D02*
X15153515Y-14700079D01*
X15153515Y-14700079D02*
X15143991Y-14681031D01*
X15143991Y-14681031D02*
X15134468Y-14671508D01*
X15134468Y-14671508D02*
X15115420Y-14661984D01*
X15115420Y-14661984D02*
X15077325Y-14661984D01*
X15077325Y-14661984D02*
X15058277Y-14671508D01*
X15058277Y-14671508D02*
X15048753Y-14681031D01*
X15048753Y-14681031D02*
X15039229Y-14700079D01*
X15039229Y-14700079D02*
X15039229Y-14747698D01*
X15039229Y-14747698D02*
X15048753Y-14766746D01*
X15048753Y-14766746D02*
X15058277Y-14776269D01*
X15058277Y-14776269D02*
X15077325Y-14785793D01*
X15077325Y-14785793D02*
X15115420Y-14785793D01*
X15115420Y-14785793D02*
X15134468Y-14776269D01*
X15134468Y-14776269D02*
X15143991Y-14766746D01*
X15143991Y-14766746D02*
X15153515Y-14747698D01*
X15391610Y-14861984D02*
X15391610Y-14661984D01*
X15477325Y-14861984D02*
X15477325Y-14757222D01*
X15477325Y-14757222D02*
X15467801Y-14738174D01*
X15467801Y-14738174D02*
X15448753Y-14728650D01*
X15448753Y-14728650D02*
X15420182Y-14728650D01*
X15420182Y-14728650D02*
X15401134Y-14738174D01*
X15401134Y-14738174D02*
X15391610Y-14747698D01*
X15601134Y-14861984D02*
X15582087Y-14852460D01*
X15582087Y-14852460D02*
X15572563Y-14842936D01*
X15572563Y-14842936D02*
X15563039Y-14823888D01*
X15563039Y-14823888D02*
X15563039Y-14766746D01*
X15563039Y-14766746D02*
X15572563Y-14747698D01*
X15572563Y-14747698D02*
X15582087Y-14738174D01*
X15582087Y-14738174D02*
X15601134Y-14728650D01*
X15601134Y-14728650D02*
X15629706Y-14728650D01*
X15629706Y-14728650D02*
X15648753Y-14738174D01*
X15648753Y-14738174D02*
X15658277Y-14747698D01*
X15658277Y-14747698D02*
X15667801Y-14766746D01*
X15667801Y-14766746D02*
X15667801Y-14823888D01*
X15667801Y-14823888D02*
X15658277Y-14842936D01*
X15658277Y-14842936D02*
X15648753Y-14852460D01*
X15648753Y-14852460D02*
X15629706Y-14861984D01*
X15629706Y-14861984D02*
X15601134Y-14861984D01*
X15782087Y-14861984D02*
X15763039Y-14852460D01*
X15763039Y-14852460D02*
X15753515Y-14833412D01*
X15753515Y-14833412D02*
X15753515Y-14661984D01*
X15934468Y-14852460D02*
X15915420Y-14861984D01*
X15915420Y-14861984D02*
X15877325Y-14861984D01*
X15877325Y-14861984D02*
X15858277Y-14852460D01*
X15858277Y-14852460D02*
X15848753Y-14833412D01*
X15848753Y-14833412D02*
X15848753Y-14757222D01*
X15848753Y-14757222D02*
X15858277Y-14738174D01*
X15858277Y-14738174D02*
X15877325Y-14728650D01*
X15877325Y-14728650D02*
X15915420Y-14728650D01*
X15915420Y-14728650D02*
X15934468Y-14738174D01*
X15934468Y-14738174D02*
X15943991Y-14757222D01*
X15943991Y-14757222D02*
X15943991Y-14776269D01*
X15943991Y-14776269D02*
X15848753Y-14795317D01*
X16020182Y-14852460D02*
X16039230Y-14861984D01*
X16039230Y-14861984D02*
X16077325Y-14861984D01*
X16077325Y-14861984D02*
X16096372Y-14852460D01*
X16096372Y-14852460D02*
X16105896Y-14833412D01*
X16105896Y-14833412D02*
X16105896Y-14823888D01*
X16105896Y-14823888D02*
X16096372Y-14804841D01*
X16096372Y-14804841D02*
X16077325Y-14795317D01*
X16077325Y-14795317D02*
X16048753Y-14795317D01*
X16048753Y-14795317D02*
X16029706Y-14785793D01*
X16029706Y-14785793D02*
X16020182Y-14766746D01*
X16020182Y-14766746D02*
X16020182Y-14757222D01*
X16020182Y-14757222D02*
X16029706Y-14738174D01*
X16029706Y-14738174D02*
X16048753Y-14728650D01*
X16048753Y-14728650D02*
X16077325Y-14728650D01*
X16077325Y-14728650D02*
X16096372Y-14738174D01*
X16172563Y-14938174D02*
X16182087Y-14928650D01*
X16182087Y-14928650D02*
X16201134Y-14900079D01*
X16201134Y-14900079D02*
X16210658Y-14881031D01*
X16210658Y-14881031D02*
X16220182Y-14852460D01*
X16220182Y-14852460D02*
X16229706Y-14804841D01*
X16229706Y-14804841D02*
X16229706Y-14766746D01*
X16229706Y-14766746D02*
X16220182Y-14719127D01*
X16220182Y-14719127D02*
X16210658Y-14690555D01*
X16210658Y-14690555D02*
X16201134Y-14671508D01*
X16201134Y-14671508D02*
X16182087Y-14642936D01*
X16182087Y-14642936D02*
X16172563Y-14633412D01*
D12*
X11385784Y-15062784D02*
X11385784Y-15006215D01*
X11329215Y-15006215D01*
X11329215Y-15062784D01*
X11385784Y-15062784D01*
D11*
X11696372Y-14925984D02*
X11715420Y-14925984D01*
X11715420Y-14925984D02*
X11734467Y-14935508D01*
X11734467Y-14935508D02*
X11743991Y-14945031D01*
X11743991Y-14945031D02*
X11753515Y-14964079D01*
X11753515Y-14964079D02*
X11763039Y-15002174D01*
X11763039Y-15002174D02*
X11763039Y-15049793D01*
X11763039Y-15049793D02*
X11753515Y-15087888D01*
X11753515Y-15087888D02*
X11743991Y-15106936D01*
X11743991Y-15106936D02*
X11734467Y-15116460D01*
X11734467Y-15116460D02*
X11715420Y-15125984D01*
X11715420Y-15125984D02*
X11696372Y-15125984D01*
X11696372Y-15125984D02*
X11677324Y-15116460D01*
X11677324Y-15116460D02*
X11667801Y-15106936D01*
X11667801Y-15106936D02*
X11658277Y-15087888D01*
X11658277Y-15087888D02*
X11648753Y-15049793D01*
X11648753Y-15049793D02*
X11648753Y-15002174D01*
X11648753Y-15002174D02*
X11658277Y-14964079D01*
X11658277Y-14964079D02*
X11667801Y-14945031D01*
X11667801Y-14945031D02*
X11677324Y-14935508D01*
X11677324Y-14935508D02*
X11696372Y-14925984D01*
X11848753Y-15106936D02*
X11858277Y-15116460D01*
X11858277Y-15116460D02*
X11848753Y-15125984D01*
X11848753Y-15125984D02*
X11839229Y-15116460D01*
X11839229Y-15116460D02*
X11848753Y-15106936D01*
X11848753Y-15106936D02*
X11848753Y-15125984D01*
X11972562Y-15011698D02*
X11953515Y-15002174D01*
X11953515Y-15002174D02*
X11943991Y-14992650D01*
X11943991Y-14992650D02*
X11934467Y-14973603D01*
X11934467Y-14973603D02*
X11934467Y-14964079D01*
X11934467Y-14964079D02*
X11943991Y-14945031D01*
X11943991Y-14945031D02*
X11953515Y-14935508D01*
X11953515Y-14935508D02*
X11972562Y-14925984D01*
X11972562Y-14925984D02*
X12010658Y-14925984D01*
X12010658Y-14925984D02*
X12029705Y-14935508D01*
X12029705Y-14935508D02*
X12039229Y-14945031D01*
X12039229Y-14945031D02*
X12048753Y-14964079D01*
X12048753Y-14964079D02*
X12048753Y-14973603D01*
X12048753Y-14973603D02*
X12039229Y-14992650D01*
X12039229Y-14992650D02*
X12029705Y-15002174D01*
X12029705Y-15002174D02*
X12010658Y-15011698D01*
X12010658Y-15011698D02*
X11972562Y-15011698D01*
X11972562Y-15011698D02*
X11953515Y-15021222D01*
X11953515Y-15021222D02*
X11943991Y-15030746D01*
X11943991Y-15030746D02*
X11934467Y-15049793D01*
X11934467Y-15049793D02*
X11934467Y-15087888D01*
X11934467Y-15087888D02*
X11943991Y-15106936D01*
X11943991Y-15106936D02*
X11953515Y-15116460D01*
X11953515Y-15116460D02*
X11972562Y-15125984D01*
X11972562Y-15125984D02*
X12010658Y-15125984D01*
X12010658Y-15125984D02*
X12029705Y-15116460D01*
X12029705Y-15116460D02*
X12039229Y-15106936D01*
X12039229Y-15106936D02*
X12048753Y-15087888D01*
X12048753Y-15087888D02*
X12048753Y-15049793D01*
X12048753Y-15049793D02*
X12039229Y-15030746D01*
X12039229Y-15030746D02*
X12029705Y-15021222D01*
X12029705Y-15021222D02*
X12010658Y-15011698D01*
X12172562Y-14925984D02*
X12191610Y-14925984D01*
X12191610Y-14925984D02*
X12210658Y-14935508D01*
X12210658Y-14935508D02*
X12220182Y-14945031D01*
X12220182Y-14945031D02*
X12229705Y-14964079D01*
X12229705Y-14964079D02*
X12239229Y-15002174D01*
X12239229Y-15002174D02*
X12239229Y-15049793D01*
X12239229Y-15049793D02*
X12229705Y-15087888D01*
X12229705Y-15087888D02*
X12220182Y-15106936D01*
X12220182Y-15106936D02*
X12210658Y-15116460D01*
X12210658Y-15116460D02*
X12191610Y-15125984D01*
X12191610Y-15125984D02*
X12172562Y-15125984D01*
X12172562Y-15125984D02*
X12153515Y-15116460D01*
X12153515Y-15116460D02*
X12143991Y-15106936D01*
X12143991Y-15106936D02*
X12134467Y-15087888D01*
X12134467Y-15087888D02*
X12124943Y-15049793D01*
X12124943Y-15049793D02*
X12124943Y-15002174D01*
X12124943Y-15002174D02*
X12134467Y-14964079D01*
X12134467Y-14964079D02*
X12143991Y-14945031D01*
X12143991Y-14945031D02*
X12153515Y-14935508D01*
X12153515Y-14935508D02*
X12172562Y-14925984D01*
X12363039Y-14925984D02*
X12382086Y-14925984D01*
X12382086Y-14925984D02*
X12401134Y-14935508D01*
X12401134Y-14935508D02*
X12410658Y-14945031D01*
X12410658Y-14945031D02*
X12420182Y-14964079D01*
X12420182Y-14964079D02*
X12429705Y-15002174D01*
X12429705Y-15002174D02*
X12429705Y-15049793D01*
X12429705Y-15049793D02*
X12420182Y-15087888D01*
X12420182Y-15087888D02*
X12410658Y-15106936D01*
X12410658Y-15106936D02*
X12401134Y-15116460D01*
X12401134Y-15116460D02*
X12382086Y-15125984D01*
X12382086Y-15125984D02*
X12363039Y-15125984D01*
X12363039Y-15125984D02*
X12343991Y-15116460D01*
X12343991Y-15116460D02*
X12334467Y-15106936D01*
X12334467Y-15106936D02*
X12324943Y-15087888D01*
X12324943Y-15087888D02*
X12315420Y-15049793D01*
X12315420Y-15049793D02*
X12315420Y-15002174D01*
X12315420Y-15002174D02*
X12324943Y-14964079D01*
X12324943Y-14964079D02*
X12334467Y-14945031D01*
X12334467Y-14945031D02*
X12343991Y-14935508D01*
X12343991Y-14935508D02*
X12363039Y-14925984D01*
X12515420Y-15125984D02*
X12515420Y-14992650D01*
X12515420Y-15011698D02*
X12524943Y-15002174D01*
X12524943Y-15002174D02*
X12543991Y-14992650D01*
X12543991Y-14992650D02*
X12572563Y-14992650D01*
X12572563Y-14992650D02*
X12591610Y-15002174D01*
X12591610Y-15002174D02*
X12601134Y-15021222D01*
X12601134Y-15021222D02*
X12601134Y-15125984D01*
X12601134Y-15021222D02*
X12610658Y-15002174D01*
X12610658Y-15002174D02*
X12629705Y-14992650D01*
X12629705Y-14992650D02*
X12658277Y-14992650D01*
X12658277Y-14992650D02*
X12677324Y-15002174D01*
X12677324Y-15002174D02*
X12686848Y-15021222D01*
X12686848Y-15021222D02*
X12686848Y-15125984D01*
X12782086Y-15125984D02*
X12782086Y-14992650D01*
X12782086Y-15011698D02*
X12791610Y-15002174D01*
X12791610Y-15002174D02*
X12810658Y-14992650D01*
X12810658Y-14992650D02*
X12839229Y-14992650D01*
X12839229Y-14992650D02*
X12858277Y-15002174D01*
X12858277Y-15002174D02*
X12867801Y-15021222D01*
X12867801Y-15021222D02*
X12867801Y-15125984D01*
X12867801Y-15021222D02*
X12877324Y-15002174D01*
X12877324Y-15002174D02*
X12896372Y-14992650D01*
X12896372Y-14992650D02*
X12924943Y-14992650D01*
X12924943Y-14992650D02*
X12943991Y-15002174D01*
X12943991Y-15002174D02*
X12953515Y-15021222D01*
X12953515Y-15021222D02*
X12953515Y-15125984D01*
X13343991Y-14916460D02*
X13172563Y-15173603D01*
X13601134Y-14925984D02*
X13620182Y-14925984D01*
X13620182Y-14925984D02*
X13639229Y-14935508D01*
X13639229Y-14935508D02*
X13648753Y-14945031D01*
X13648753Y-14945031D02*
X13658277Y-14964079D01*
X13658277Y-14964079D02*
X13667801Y-15002174D01*
X13667801Y-15002174D02*
X13667801Y-15049793D01*
X13667801Y-15049793D02*
X13658277Y-15087888D01*
X13658277Y-15087888D02*
X13648753Y-15106936D01*
X13648753Y-15106936D02*
X13639229Y-15116460D01*
X13639229Y-15116460D02*
X13620182Y-15125984D01*
X13620182Y-15125984D02*
X13601134Y-15125984D01*
X13601134Y-15125984D02*
X13582086Y-15116460D01*
X13582086Y-15116460D02*
X13572563Y-15106936D01*
X13572563Y-15106936D02*
X13563039Y-15087888D01*
X13563039Y-15087888D02*
X13553515Y-15049793D01*
X13553515Y-15049793D02*
X13553515Y-15002174D01*
X13553515Y-15002174D02*
X13563039Y-14964079D01*
X13563039Y-14964079D02*
X13572563Y-14945031D01*
X13572563Y-14945031D02*
X13582086Y-14935508D01*
X13582086Y-14935508D02*
X13601134Y-14925984D01*
X13753515Y-15106936D02*
X13763039Y-15116460D01*
X13763039Y-15116460D02*
X13753515Y-15125984D01*
X13753515Y-15125984D02*
X13743991Y-15116460D01*
X13743991Y-15116460D02*
X13753515Y-15106936D01*
X13753515Y-15106936D02*
X13753515Y-15125984D01*
X13886848Y-14925984D02*
X13905896Y-14925984D01*
X13905896Y-14925984D02*
X13924944Y-14935508D01*
X13924944Y-14935508D02*
X13934467Y-14945031D01*
X13934467Y-14945031D02*
X13943991Y-14964079D01*
X13943991Y-14964079D02*
X13953515Y-15002174D01*
X13953515Y-15002174D02*
X13953515Y-15049793D01*
X13953515Y-15049793D02*
X13943991Y-15087888D01*
X13943991Y-15087888D02*
X13934467Y-15106936D01*
X13934467Y-15106936D02*
X13924944Y-15116460D01*
X13924944Y-15116460D02*
X13905896Y-15125984D01*
X13905896Y-15125984D02*
X13886848Y-15125984D01*
X13886848Y-15125984D02*
X13867801Y-15116460D01*
X13867801Y-15116460D02*
X13858277Y-15106936D01*
X13858277Y-15106936D02*
X13848753Y-15087888D01*
X13848753Y-15087888D02*
X13839229Y-15049793D01*
X13839229Y-15049793D02*
X13839229Y-15002174D01*
X13839229Y-15002174D02*
X13848753Y-14964079D01*
X13848753Y-14964079D02*
X13858277Y-14945031D01*
X13858277Y-14945031D02*
X13867801Y-14935508D01*
X13867801Y-14935508D02*
X13886848Y-14925984D01*
X14020182Y-14925984D02*
X14143991Y-14925984D01*
X14143991Y-14925984D02*
X14077325Y-15002174D01*
X14077325Y-15002174D02*
X14105896Y-15002174D01*
X14105896Y-15002174D02*
X14124944Y-15011698D01*
X14124944Y-15011698D02*
X14134467Y-15021222D01*
X14134467Y-15021222D02*
X14143991Y-15040269D01*
X14143991Y-15040269D02*
X14143991Y-15087888D01*
X14143991Y-15087888D02*
X14134467Y-15106936D01*
X14134467Y-15106936D02*
X14124944Y-15116460D01*
X14124944Y-15116460D02*
X14105896Y-15125984D01*
X14105896Y-15125984D02*
X14048753Y-15125984D01*
X14048753Y-15125984D02*
X14029706Y-15116460D01*
X14029706Y-15116460D02*
X14020182Y-15106936D01*
X14334467Y-15125984D02*
X14220182Y-15125984D01*
X14277325Y-15125984D02*
X14277325Y-14925984D01*
X14277325Y-14925984D02*
X14258277Y-14954555D01*
X14258277Y-14954555D02*
X14239229Y-14973603D01*
X14239229Y-14973603D02*
X14220182Y-14983127D01*
X14515420Y-14925984D02*
X14420182Y-14925984D01*
X14420182Y-14925984D02*
X14410658Y-15021222D01*
X14410658Y-15021222D02*
X14420182Y-15011698D01*
X14420182Y-15011698D02*
X14439229Y-15002174D01*
X14439229Y-15002174D02*
X14486848Y-15002174D01*
X14486848Y-15002174D02*
X14505896Y-15011698D01*
X14505896Y-15011698D02*
X14515420Y-15021222D01*
X14515420Y-15021222D02*
X14524944Y-15040269D01*
X14524944Y-15040269D02*
X14524944Y-15087888D01*
X14524944Y-15087888D02*
X14515420Y-15106936D01*
X14515420Y-15106936D02*
X14505896Y-15116460D01*
X14505896Y-15116460D02*
X14486848Y-15125984D01*
X14486848Y-15125984D02*
X14439229Y-15125984D01*
X14439229Y-15125984D02*
X14420182Y-15116460D01*
X14420182Y-15116460D02*
X14410658Y-15106936D01*
X14601134Y-14925984D02*
X14601134Y-14964079D01*
X14677325Y-14925984D02*
X14677325Y-14964079D01*
X14972563Y-15202174D02*
X14963039Y-15192650D01*
X14963039Y-15192650D02*
X14943991Y-15164079D01*
X14943991Y-15164079D02*
X14934468Y-15145031D01*
X14934468Y-15145031D02*
X14924944Y-15116460D01*
X14924944Y-15116460D02*
X14915420Y-15068841D01*
X14915420Y-15068841D02*
X14915420Y-15030746D01*
X14915420Y-15030746D02*
X14924944Y-14983127D01*
X14924944Y-14983127D02*
X14934468Y-14954555D01*
X14934468Y-14954555D02*
X14943991Y-14935508D01*
X14943991Y-14935508D02*
X14963039Y-14906936D01*
X14963039Y-14906936D02*
X14972563Y-14897412D01*
X15134468Y-14992650D02*
X15134468Y-15125984D01*
X15086848Y-14916460D02*
X15039229Y-15059317D01*
X15039229Y-15059317D02*
X15163039Y-15059317D01*
X15324944Y-14925984D02*
X15286848Y-14925984D01*
X15286848Y-14925984D02*
X15267801Y-14935508D01*
X15267801Y-14935508D02*
X15258277Y-14945031D01*
X15258277Y-14945031D02*
X15239229Y-14973603D01*
X15239229Y-14973603D02*
X15229706Y-15011698D01*
X15229706Y-15011698D02*
X15229706Y-15087888D01*
X15229706Y-15087888D02*
X15239229Y-15106936D01*
X15239229Y-15106936D02*
X15248753Y-15116460D01*
X15248753Y-15116460D02*
X15267801Y-15125984D01*
X15267801Y-15125984D02*
X15305896Y-15125984D01*
X15305896Y-15125984D02*
X15324944Y-15116460D01*
X15324944Y-15116460D02*
X15334468Y-15106936D01*
X15334468Y-15106936D02*
X15343991Y-15087888D01*
X15343991Y-15087888D02*
X15343991Y-15040269D01*
X15343991Y-15040269D02*
X15334468Y-15021222D01*
X15334468Y-15021222D02*
X15324944Y-15011698D01*
X15324944Y-15011698D02*
X15305896Y-15002174D01*
X15305896Y-15002174D02*
X15267801Y-15002174D01*
X15267801Y-15002174D02*
X15248753Y-15011698D01*
X15248753Y-15011698D02*
X15239229Y-15021222D01*
X15239229Y-15021222D02*
X15229706Y-15040269D01*
X15582087Y-15125984D02*
X15582087Y-14925984D01*
X15667801Y-15125984D02*
X15667801Y-15021222D01*
X15667801Y-15021222D02*
X15658277Y-15002174D01*
X15658277Y-15002174D02*
X15639230Y-14992650D01*
X15639230Y-14992650D02*
X15610658Y-14992650D01*
X15610658Y-14992650D02*
X15591610Y-15002174D01*
X15591610Y-15002174D02*
X15582087Y-15011698D01*
X15791610Y-15125984D02*
X15772563Y-15116460D01*
X15772563Y-15116460D02*
X15763039Y-15106936D01*
X15763039Y-15106936D02*
X15753515Y-15087888D01*
X15753515Y-15087888D02*
X15753515Y-15030746D01*
X15753515Y-15030746D02*
X15763039Y-15011698D01*
X15763039Y-15011698D02*
X15772563Y-15002174D01*
X15772563Y-15002174D02*
X15791610Y-14992650D01*
X15791610Y-14992650D02*
X15820182Y-14992650D01*
X15820182Y-14992650D02*
X15839230Y-15002174D01*
X15839230Y-15002174D02*
X15848753Y-15011698D01*
X15848753Y-15011698D02*
X15858277Y-15030746D01*
X15858277Y-15030746D02*
X15858277Y-15087888D01*
X15858277Y-15087888D02*
X15848753Y-15106936D01*
X15848753Y-15106936D02*
X15839230Y-15116460D01*
X15839230Y-15116460D02*
X15820182Y-15125984D01*
X15820182Y-15125984D02*
X15791610Y-15125984D01*
X15972563Y-15125984D02*
X15953515Y-15116460D01*
X15953515Y-15116460D02*
X15943991Y-15097412D01*
X15943991Y-15097412D02*
X15943991Y-14925984D01*
X16124944Y-15116460D02*
X16105896Y-15125984D01*
X16105896Y-15125984D02*
X16067801Y-15125984D01*
X16067801Y-15125984D02*
X16048753Y-15116460D01*
X16048753Y-15116460D02*
X16039230Y-15097412D01*
X16039230Y-15097412D02*
X16039230Y-15021222D01*
X16039230Y-15021222D02*
X16048753Y-15002174D01*
X16048753Y-15002174D02*
X16067801Y-14992650D01*
X16067801Y-14992650D02*
X16105896Y-14992650D01*
X16105896Y-14992650D02*
X16124944Y-15002174D01*
X16124944Y-15002174D02*
X16134468Y-15021222D01*
X16134468Y-15021222D02*
X16134468Y-15040269D01*
X16134468Y-15040269D02*
X16039230Y-15059317D01*
X16210658Y-15116460D02*
X16229706Y-15125984D01*
X16229706Y-15125984D02*
X16267801Y-15125984D01*
X16267801Y-15125984D02*
X16286849Y-15116460D01*
X16286849Y-15116460D02*
X16296372Y-15097412D01*
X16296372Y-15097412D02*
X16296372Y-15087888D01*
X16296372Y-15087888D02*
X16286849Y-15068841D01*
X16286849Y-15068841D02*
X16267801Y-15059317D01*
X16267801Y-15059317D02*
X16239230Y-15059317D01*
X16239230Y-15059317D02*
X16220182Y-15049793D01*
X16220182Y-15049793D02*
X16210658Y-15030746D01*
X16210658Y-15030746D02*
X16210658Y-15021222D01*
X16210658Y-15021222D02*
X16220182Y-15002174D01*
X16220182Y-15002174D02*
X16239230Y-14992650D01*
X16239230Y-14992650D02*
X16267801Y-14992650D01*
X16267801Y-14992650D02*
X16286849Y-15002174D01*
X16363039Y-15202174D02*
X16372563Y-15192650D01*
X16372563Y-15192650D02*
X16391611Y-15164079D01*
X16391611Y-15164079D02*
X16401134Y-15145031D01*
X16401134Y-15145031D02*
X16410658Y-15116460D01*
X16410658Y-15116460D02*
X16420182Y-15068841D01*
X16420182Y-15068841D02*
X16420182Y-15030746D01*
X16420182Y-15030746D02*
X16410658Y-14983127D01*
X16410658Y-14983127D02*
X16401134Y-14954555D01*
X16401134Y-14954555D02*
X16391611Y-14935508D01*
X16391611Y-14935508D02*
X16372563Y-14906936D01*
X16372563Y-14906936D02*
X16363039Y-14897412D01*
D12*
X11356860Y-15339140D02*
X11397500Y-15298500D01*
X11356860Y-15257860D01*
X11316220Y-15298500D01*
X11356860Y-15339140D01*
D11*
X11696372Y-15189984D02*
X11715420Y-15189984D01*
X11715420Y-15189984D02*
X11734467Y-15199508D01*
X11734467Y-15199508D02*
X11743991Y-15209031D01*
X11743991Y-15209031D02*
X11753515Y-15228079D01*
X11753515Y-15228079D02*
X11763039Y-15266174D01*
X11763039Y-15266174D02*
X11763039Y-15313793D01*
X11763039Y-15313793D02*
X11753515Y-15351888D01*
X11753515Y-15351888D02*
X11743991Y-15370936D01*
X11743991Y-15370936D02*
X11734467Y-15380460D01*
X11734467Y-15380460D02*
X11715420Y-15389984D01*
X11715420Y-15389984D02*
X11696372Y-15389984D01*
X11696372Y-15389984D02*
X11677324Y-15380460D01*
X11677324Y-15380460D02*
X11667801Y-15370936D01*
X11667801Y-15370936D02*
X11658277Y-15351888D01*
X11658277Y-15351888D02*
X11648753Y-15313793D01*
X11648753Y-15313793D02*
X11648753Y-15266174D01*
X11648753Y-15266174D02*
X11658277Y-15228079D01*
X11658277Y-15228079D02*
X11667801Y-15209031D01*
X11667801Y-15209031D02*
X11677324Y-15199508D01*
X11677324Y-15199508D02*
X11696372Y-15189984D01*
X11848753Y-15370936D02*
X11858277Y-15380460D01*
X11858277Y-15380460D02*
X11848753Y-15389984D01*
X11848753Y-15389984D02*
X11839229Y-15380460D01*
X11839229Y-15380460D02*
X11848753Y-15370936D01*
X11848753Y-15370936D02*
X11848753Y-15389984D01*
X11972562Y-15275698D02*
X11953515Y-15266174D01*
X11953515Y-15266174D02*
X11943991Y-15256650D01*
X11943991Y-15256650D02*
X11934467Y-15237603D01*
X11934467Y-15237603D02*
X11934467Y-15228079D01*
X11934467Y-15228079D02*
X11943991Y-15209031D01*
X11943991Y-15209031D02*
X11953515Y-15199508D01*
X11953515Y-15199508D02*
X11972562Y-15189984D01*
X11972562Y-15189984D02*
X12010658Y-15189984D01*
X12010658Y-15189984D02*
X12029705Y-15199508D01*
X12029705Y-15199508D02*
X12039229Y-15209031D01*
X12039229Y-15209031D02*
X12048753Y-15228079D01*
X12048753Y-15228079D02*
X12048753Y-15237603D01*
X12048753Y-15237603D02*
X12039229Y-15256650D01*
X12039229Y-15256650D02*
X12029705Y-15266174D01*
X12029705Y-15266174D02*
X12010658Y-15275698D01*
X12010658Y-15275698D02*
X11972562Y-15275698D01*
X11972562Y-15275698D02*
X11953515Y-15285222D01*
X11953515Y-15285222D02*
X11943991Y-15294746D01*
X11943991Y-15294746D02*
X11934467Y-15313793D01*
X11934467Y-15313793D02*
X11934467Y-15351888D01*
X11934467Y-15351888D02*
X11943991Y-15370936D01*
X11943991Y-15370936D02*
X11953515Y-15380460D01*
X11953515Y-15380460D02*
X11972562Y-15389984D01*
X11972562Y-15389984D02*
X12010658Y-15389984D01*
X12010658Y-15389984D02*
X12029705Y-15380460D01*
X12029705Y-15380460D02*
X12039229Y-15370936D01*
X12039229Y-15370936D02*
X12048753Y-15351888D01*
X12048753Y-15351888D02*
X12048753Y-15313793D01*
X12048753Y-15313793D02*
X12039229Y-15294746D01*
X12039229Y-15294746D02*
X12029705Y-15285222D01*
X12029705Y-15285222D02*
X12010658Y-15275698D01*
X12239229Y-15389984D02*
X12124943Y-15389984D01*
X12182086Y-15389984D02*
X12182086Y-15189984D01*
X12182086Y-15189984D02*
X12163039Y-15218555D01*
X12163039Y-15218555D02*
X12143991Y-15237603D01*
X12143991Y-15237603D02*
X12124943Y-15247127D01*
X12305896Y-15189984D02*
X12429705Y-15189984D01*
X12429705Y-15189984D02*
X12363039Y-15266174D01*
X12363039Y-15266174D02*
X12391610Y-15266174D01*
X12391610Y-15266174D02*
X12410658Y-15275698D01*
X12410658Y-15275698D02*
X12420182Y-15285222D01*
X12420182Y-15285222D02*
X12429705Y-15304269D01*
X12429705Y-15304269D02*
X12429705Y-15351888D01*
X12429705Y-15351888D02*
X12420182Y-15370936D01*
X12420182Y-15370936D02*
X12410658Y-15380460D01*
X12410658Y-15380460D02*
X12391610Y-15389984D01*
X12391610Y-15389984D02*
X12334467Y-15389984D01*
X12334467Y-15389984D02*
X12315420Y-15380460D01*
X12315420Y-15380460D02*
X12305896Y-15370936D01*
X12515420Y-15389984D02*
X12515420Y-15256650D01*
X12515420Y-15275698D02*
X12524943Y-15266174D01*
X12524943Y-15266174D02*
X12543991Y-15256650D01*
X12543991Y-15256650D02*
X12572563Y-15256650D01*
X12572563Y-15256650D02*
X12591610Y-15266174D01*
X12591610Y-15266174D02*
X12601134Y-15285222D01*
X12601134Y-15285222D02*
X12601134Y-15389984D01*
X12601134Y-15285222D02*
X12610658Y-15266174D01*
X12610658Y-15266174D02*
X12629705Y-15256650D01*
X12629705Y-15256650D02*
X12658277Y-15256650D01*
X12658277Y-15256650D02*
X12677324Y-15266174D01*
X12677324Y-15266174D02*
X12686848Y-15285222D01*
X12686848Y-15285222D02*
X12686848Y-15389984D01*
X12782086Y-15389984D02*
X12782086Y-15256650D01*
X12782086Y-15275698D02*
X12791610Y-15266174D01*
X12791610Y-15266174D02*
X12810658Y-15256650D01*
X12810658Y-15256650D02*
X12839229Y-15256650D01*
X12839229Y-15256650D02*
X12858277Y-15266174D01*
X12858277Y-15266174D02*
X12867801Y-15285222D01*
X12867801Y-15285222D02*
X12867801Y-15389984D01*
X12867801Y-15285222D02*
X12877324Y-15266174D01*
X12877324Y-15266174D02*
X12896372Y-15256650D01*
X12896372Y-15256650D02*
X12924943Y-15256650D01*
X12924943Y-15256650D02*
X12943991Y-15266174D01*
X12943991Y-15266174D02*
X12953515Y-15285222D01*
X12953515Y-15285222D02*
X12953515Y-15389984D01*
X13343991Y-15180460D02*
X13172563Y-15437603D01*
X13601134Y-15189984D02*
X13620182Y-15189984D01*
X13620182Y-15189984D02*
X13639229Y-15199508D01*
X13639229Y-15199508D02*
X13648753Y-15209031D01*
X13648753Y-15209031D02*
X13658277Y-15228079D01*
X13658277Y-15228079D02*
X13667801Y-15266174D01*
X13667801Y-15266174D02*
X13667801Y-15313793D01*
X13667801Y-15313793D02*
X13658277Y-15351888D01*
X13658277Y-15351888D02*
X13648753Y-15370936D01*
X13648753Y-15370936D02*
X13639229Y-15380460D01*
X13639229Y-15380460D02*
X13620182Y-15389984D01*
X13620182Y-15389984D02*
X13601134Y-15389984D01*
X13601134Y-15389984D02*
X13582086Y-15380460D01*
X13582086Y-15380460D02*
X13572563Y-15370936D01*
X13572563Y-15370936D02*
X13563039Y-15351888D01*
X13563039Y-15351888D02*
X13553515Y-15313793D01*
X13553515Y-15313793D02*
X13553515Y-15266174D01*
X13553515Y-15266174D02*
X13563039Y-15228079D01*
X13563039Y-15228079D02*
X13572563Y-15209031D01*
X13572563Y-15209031D02*
X13582086Y-15199508D01*
X13582086Y-15199508D02*
X13601134Y-15189984D01*
X13753515Y-15370936D02*
X13763039Y-15380460D01*
X13763039Y-15380460D02*
X13753515Y-15389984D01*
X13753515Y-15389984D02*
X13743991Y-15380460D01*
X13743991Y-15380460D02*
X13753515Y-15370936D01*
X13753515Y-15370936D02*
X13753515Y-15389984D01*
X13886848Y-15189984D02*
X13905896Y-15189984D01*
X13905896Y-15189984D02*
X13924944Y-15199508D01*
X13924944Y-15199508D02*
X13934467Y-15209031D01*
X13934467Y-15209031D02*
X13943991Y-15228079D01*
X13943991Y-15228079D02*
X13953515Y-15266174D01*
X13953515Y-15266174D02*
X13953515Y-15313793D01*
X13953515Y-15313793D02*
X13943991Y-15351888D01*
X13943991Y-15351888D02*
X13934467Y-15370936D01*
X13934467Y-15370936D02*
X13924944Y-15380460D01*
X13924944Y-15380460D02*
X13905896Y-15389984D01*
X13905896Y-15389984D02*
X13886848Y-15389984D01*
X13886848Y-15389984D02*
X13867801Y-15380460D01*
X13867801Y-15380460D02*
X13858277Y-15370936D01*
X13858277Y-15370936D02*
X13848753Y-15351888D01*
X13848753Y-15351888D02*
X13839229Y-15313793D01*
X13839229Y-15313793D02*
X13839229Y-15266174D01*
X13839229Y-15266174D02*
X13848753Y-15228079D01*
X13848753Y-15228079D02*
X13858277Y-15209031D01*
X13858277Y-15209031D02*
X13867801Y-15199508D01*
X13867801Y-15199508D02*
X13886848Y-15189984D01*
X14020182Y-15189984D02*
X14143991Y-15189984D01*
X14143991Y-15189984D02*
X14077325Y-15266174D01*
X14077325Y-15266174D02*
X14105896Y-15266174D01*
X14105896Y-15266174D02*
X14124944Y-15275698D01*
X14124944Y-15275698D02*
X14134467Y-15285222D01*
X14134467Y-15285222D02*
X14143991Y-15304269D01*
X14143991Y-15304269D02*
X14143991Y-15351888D01*
X14143991Y-15351888D02*
X14134467Y-15370936D01*
X14134467Y-15370936D02*
X14124944Y-15380460D01*
X14124944Y-15380460D02*
X14105896Y-15389984D01*
X14105896Y-15389984D02*
X14048753Y-15389984D01*
X14048753Y-15389984D02*
X14029706Y-15380460D01*
X14029706Y-15380460D02*
X14020182Y-15370936D01*
X14220182Y-15209031D02*
X14229706Y-15199508D01*
X14229706Y-15199508D02*
X14248753Y-15189984D01*
X14248753Y-15189984D02*
X14296372Y-15189984D01*
X14296372Y-15189984D02*
X14315420Y-15199508D01*
X14315420Y-15199508D02*
X14324944Y-15209031D01*
X14324944Y-15209031D02*
X14334467Y-15228079D01*
X14334467Y-15228079D02*
X14334467Y-15247127D01*
X14334467Y-15247127D02*
X14324944Y-15275698D01*
X14324944Y-15275698D02*
X14210658Y-15389984D01*
X14210658Y-15389984D02*
X14334467Y-15389984D01*
X14458277Y-15189984D02*
X14477325Y-15189984D01*
X14477325Y-15189984D02*
X14496372Y-15199508D01*
X14496372Y-15199508D02*
X14505896Y-15209031D01*
X14505896Y-15209031D02*
X14515420Y-15228079D01*
X14515420Y-15228079D02*
X14524944Y-15266174D01*
X14524944Y-15266174D02*
X14524944Y-15313793D01*
X14524944Y-15313793D02*
X14515420Y-15351888D01*
X14515420Y-15351888D02*
X14505896Y-15370936D01*
X14505896Y-15370936D02*
X14496372Y-15380460D01*
X14496372Y-15380460D02*
X14477325Y-15389984D01*
X14477325Y-15389984D02*
X14458277Y-15389984D01*
X14458277Y-15389984D02*
X14439229Y-15380460D01*
X14439229Y-15380460D02*
X14429706Y-15370936D01*
X14429706Y-15370936D02*
X14420182Y-15351888D01*
X14420182Y-15351888D02*
X14410658Y-15313793D01*
X14410658Y-15313793D02*
X14410658Y-15266174D01*
X14410658Y-15266174D02*
X14420182Y-15228079D01*
X14420182Y-15228079D02*
X14429706Y-15209031D01*
X14429706Y-15209031D02*
X14439229Y-15199508D01*
X14439229Y-15199508D02*
X14458277Y-15189984D01*
X14601134Y-15189984D02*
X14601134Y-15228079D01*
X14677325Y-15189984D02*
X14677325Y-15228079D01*
X14972563Y-15466174D02*
X14963039Y-15456650D01*
X14963039Y-15456650D02*
X14943991Y-15428079D01*
X14943991Y-15428079D02*
X14934468Y-15409031D01*
X14934468Y-15409031D02*
X14924944Y-15380460D01*
X14924944Y-15380460D02*
X14915420Y-15332841D01*
X14915420Y-15332841D02*
X14915420Y-15294746D01*
X14915420Y-15294746D02*
X14924944Y-15247127D01*
X14924944Y-15247127D02*
X14934468Y-15218555D01*
X14934468Y-15218555D02*
X14943991Y-15199508D01*
X14943991Y-15199508D02*
X14963039Y-15170936D01*
X14963039Y-15170936D02*
X14972563Y-15161412D01*
X15153515Y-15389984D02*
X15039229Y-15389984D01*
X15096372Y-15389984D02*
X15096372Y-15189984D01*
X15096372Y-15189984D02*
X15077325Y-15218555D01*
X15077325Y-15218555D02*
X15058277Y-15237603D01*
X15058277Y-15237603D02*
X15039229Y-15247127D01*
X15229706Y-15209031D02*
X15239229Y-15199508D01*
X15239229Y-15199508D02*
X15258277Y-15189984D01*
X15258277Y-15189984D02*
X15305896Y-15189984D01*
X15305896Y-15189984D02*
X15324944Y-15199508D01*
X15324944Y-15199508D02*
X15334468Y-15209031D01*
X15334468Y-15209031D02*
X15343991Y-15228079D01*
X15343991Y-15228079D02*
X15343991Y-15247127D01*
X15343991Y-15247127D02*
X15334468Y-15275698D01*
X15334468Y-15275698D02*
X15220182Y-15389984D01*
X15220182Y-15389984D02*
X15343991Y-15389984D01*
X15582087Y-15389984D02*
X15582087Y-15189984D01*
X15667801Y-15389984D02*
X15667801Y-15285222D01*
X15667801Y-15285222D02*
X15658277Y-15266174D01*
X15658277Y-15266174D02*
X15639230Y-15256650D01*
X15639230Y-15256650D02*
X15610658Y-15256650D01*
X15610658Y-15256650D02*
X15591610Y-15266174D01*
X15591610Y-15266174D02*
X15582087Y-15275698D01*
X15791610Y-15389984D02*
X15772563Y-15380460D01*
X15772563Y-15380460D02*
X15763039Y-15370936D01*
X15763039Y-15370936D02*
X15753515Y-15351888D01*
X15753515Y-15351888D02*
X15753515Y-15294746D01*
X15753515Y-15294746D02*
X15763039Y-15275698D01*
X15763039Y-15275698D02*
X15772563Y-15266174D01*
X15772563Y-15266174D02*
X15791610Y-15256650D01*
X15791610Y-15256650D02*
X15820182Y-15256650D01*
X15820182Y-15256650D02*
X15839230Y-15266174D01*
X15839230Y-15266174D02*
X15848753Y-15275698D01*
X15848753Y-15275698D02*
X15858277Y-15294746D01*
X15858277Y-15294746D02*
X15858277Y-15351888D01*
X15858277Y-15351888D02*
X15848753Y-15370936D01*
X15848753Y-15370936D02*
X15839230Y-15380460D01*
X15839230Y-15380460D02*
X15820182Y-15389984D01*
X15820182Y-15389984D02*
X15791610Y-15389984D01*
X15972563Y-15389984D02*
X15953515Y-15380460D01*
X15953515Y-15380460D02*
X15943991Y-15361412D01*
X15943991Y-15361412D02*
X15943991Y-15189984D01*
X16124944Y-15380460D02*
X16105896Y-15389984D01*
X16105896Y-15389984D02*
X16067801Y-15389984D01*
X16067801Y-15389984D02*
X16048753Y-15380460D01*
X16048753Y-15380460D02*
X16039230Y-15361412D01*
X16039230Y-15361412D02*
X16039230Y-15285222D01*
X16039230Y-15285222D02*
X16048753Y-15266174D01*
X16048753Y-15266174D02*
X16067801Y-15256650D01*
X16067801Y-15256650D02*
X16105896Y-15256650D01*
X16105896Y-15256650D02*
X16124944Y-15266174D01*
X16124944Y-15266174D02*
X16134468Y-15285222D01*
X16134468Y-15285222D02*
X16134468Y-15304269D01*
X16134468Y-15304269D02*
X16039230Y-15323317D01*
X16210658Y-15380460D02*
X16229706Y-15389984D01*
X16229706Y-15389984D02*
X16267801Y-15389984D01*
X16267801Y-15389984D02*
X16286849Y-15380460D01*
X16286849Y-15380460D02*
X16296372Y-15361412D01*
X16296372Y-15361412D02*
X16296372Y-15351888D01*
X16296372Y-15351888D02*
X16286849Y-15332841D01*
X16286849Y-15332841D02*
X16267801Y-15323317D01*
X16267801Y-15323317D02*
X16239230Y-15323317D01*
X16239230Y-15323317D02*
X16220182Y-15313793D01*
X16220182Y-15313793D02*
X16210658Y-15294746D01*
X16210658Y-15294746D02*
X16210658Y-15285222D01*
X16210658Y-15285222D02*
X16220182Y-15266174D01*
X16220182Y-15266174D02*
X16239230Y-15256650D01*
X16239230Y-15256650D02*
X16267801Y-15256650D01*
X16267801Y-15256650D02*
X16286849Y-15266174D01*
X16363039Y-15466174D02*
X16372563Y-15456650D01*
X16372563Y-15456650D02*
X16391611Y-15428079D01*
X16391611Y-15428079D02*
X16401134Y-15409031D01*
X16401134Y-15409031D02*
X16410658Y-15380460D01*
X16410658Y-15380460D02*
X16420182Y-15332841D01*
X16420182Y-15332841D02*
X16420182Y-15294746D01*
X16420182Y-15294746D02*
X16410658Y-15247127D01*
X16410658Y-15247127D02*
X16401134Y-15218555D01*
X16401134Y-15218555D02*
X16391611Y-15199508D01*
X16391611Y-15199508D02*
X16372563Y-15170936D01*
X16372563Y-15170936D02*
X16363039Y-15161412D01*
D12*
X11312500Y-15520000D02*
X11397500Y-15605000D01*
X11397500Y-15520000D02*
X11312500Y-15605000D01*
X11397500Y-15562500D02*
G75*
G02*
X11312500Y-15562500I-42500J0D01*
G01*
X11312500Y-15562500D02*
G75*
G02*
X11397500Y-15562500I42500J0D01*
G01*
D11*
X11696372Y-15453984D02*
X11715420Y-15453984D01*
X11715420Y-15453984D02*
X11734467Y-15463508D01*
X11734467Y-15463508D02*
X11743991Y-15473031D01*
X11743991Y-15473031D02*
X11753515Y-15492079D01*
X11753515Y-15492079D02*
X11763039Y-15530174D01*
X11763039Y-15530174D02*
X11763039Y-15577793D01*
X11763039Y-15577793D02*
X11753515Y-15615888D01*
X11753515Y-15615888D02*
X11743991Y-15634936D01*
X11743991Y-15634936D02*
X11734467Y-15644460D01*
X11734467Y-15644460D02*
X11715420Y-15653984D01*
X11715420Y-15653984D02*
X11696372Y-15653984D01*
X11696372Y-15653984D02*
X11677324Y-15644460D01*
X11677324Y-15644460D02*
X11667801Y-15634936D01*
X11667801Y-15634936D02*
X11658277Y-15615888D01*
X11658277Y-15615888D02*
X11648753Y-15577793D01*
X11648753Y-15577793D02*
X11648753Y-15530174D01*
X11648753Y-15530174D02*
X11658277Y-15492079D01*
X11658277Y-15492079D02*
X11667801Y-15473031D01*
X11667801Y-15473031D02*
X11677324Y-15463508D01*
X11677324Y-15463508D02*
X11696372Y-15453984D01*
X11848753Y-15634936D02*
X11858277Y-15644460D01*
X11858277Y-15644460D02*
X11848753Y-15653984D01*
X11848753Y-15653984D02*
X11839229Y-15644460D01*
X11839229Y-15644460D02*
X11848753Y-15634936D01*
X11848753Y-15634936D02*
X11848753Y-15653984D01*
X11972562Y-15539698D02*
X11953515Y-15530174D01*
X11953515Y-15530174D02*
X11943991Y-15520650D01*
X11943991Y-15520650D02*
X11934467Y-15501603D01*
X11934467Y-15501603D02*
X11934467Y-15492079D01*
X11934467Y-15492079D02*
X11943991Y-15473031D01*
X11943991Y-15473031D02*
X11953515Y-15463508D01*
X11953515Y-15463508D02*
X11972562Y-15453984D01*
X11972562Y-15453984D02*
X12010658Y-15453984D01*
X12010658Y-15453984D02*
X12029705Y-15463508D01*
X12029705Y-15463508D02*
X12039229Y-15473031D01*
X12039229Y-15473031D02*
X12048753Y-15492079D01*
X12048753Y-15492079D02*
X12048753Y-15501603D01*
X12048753Y-15501603D02*
X12039229Y-15520650D01*
X12039229Y-15520650D02*
X12029705Y-15530174D01*
X12029705Y-15530174D02*
X12010658Y-15539698D01*
X12010658Y-15539698D02*
X11972562Y-15539698D01*
X11972562Y-15539698D02*
X11953515Y-15549222D01*
X11953515Y-15549222D02*
X11943991Y-15558746D01*
X11943991Y-15558746D02*
X11934467Y-15577793D01*
X11934467Y-15577793D02*
X11934467Y-15615888D01*
X11934467Y-15615888D02*
X11943991Y-15634936D01*
X11943991Y-15634936D02*
X11953515Y-15644460D01*
X11953515Y-15644460D02*
X11972562Y-15653984D01*
X11972562Y-15653984D02*
X12010658Y-15653984D01*
X12010658Y-15653984D02*
X12029705Y-15644460D01*
X12029705Y-15644460D02*
X12039229Y-15634936D01*
X12039229Y-15634936D02*
X12048753Y-15615888D01*
X12048753Y-15615888D02*
X12048753Y-15577793D01*
X12048753Y-15577793D02*
X12039229Y-15558746D01*
X12039229Y-15558746D02*
X12029705Y-15549222D01*
X12029705Y-15549222D02*
X12010658Y-15539698D01*
X12229705Y-15453984D02*
X12134467Y-15453984D01*
X12134467Y-15453984D02*
X12124943Y-15549222D01*
X12124943Y-15549222D02*
X12134467Y-15539698D01*
X12134467Y-15539698D02*
X12153515Y-15530174D01*
X12153515Y-15530174D02*
X12201134Y-15530174D01*
X12201134Y-15530174D02*
X12220182Y-15539698D01*
X12220182Y-15539698D02*
X12229705Y-15549222D01*
X12229705Y-15549222D02*
X12239229Y-15568269D01*
X12239229Y-15568269D02*
X12239229Y-15615888D01*
X12239229Y-15615888D02*
X12229705Y-15634936D01*
X12229705Y-15634936D02*
X12220182Y-15644460D01*
X12220182Y-15644460D02*
X12201134Y-15653984D01*
X12201134Y-15653984D02*
X12153515Y-15653984D01*
X12153515Y-15653984D02*
X12134467Y-15644460D01*
X12134467Y-15644460D02*
X12124943Y-15634936D01*
X12363039Y-15453984D02*
X12382086Y-15453984D01*
X12382086Y-15453984D02*
X12401134Y-15463508D01*
X12401134Y-15463508D02*
X12410658Y-15473031D01*
X12410658Y-15473031D02*
X12420182Y-15492079D01*
X12420182Y-15492079D02*
X12429705Y-15530174D01*
X12429705Y-15530174D02*
X12429705Y-15577793D01*
X12429705Y-15577793D02*
X12420182Y-15615888D01*
X12420182Y-15615888D02*
X12410658Y-15634936D01*
X12410658Y-15634936D02*
X12401134Y-15644460D01*
X12401134Y-15644460D02*
X12382086Y-15653984D01*
X12382086Y-15653984D02*
X12363039Y-15653984D01*
X12363039Y-15653984D02*
X12343991Y-15644460D01*
X12343991Y-15644460D02*
X12334467Y-15634936D01*
X12334467Y-15634936D02*
X12324943Y-15615888D01*
X12324943Y-15615888D02*
X12315420Y-15577793D01*
X12315420Y-15577793D02*
X12315420Y-15530174D01*
X12315420Y-15530174D02*
X12324943Y-15492079D01*
X12324943Y-15492079D02*
X12334467Y-15473031D01*
X12334467Y-15473031D02*
X12343991Y-15463508D01*
X12343991Y-15463508D02*
X12363039Y-15453984D01*
X12515420Y-15653984D02*
X12515420Y-15520650D01*
X12515420Y-15539698D02*
X12524943Y-15530174D01*
X12524943Y-15530174D02*
X12543991Y-15520650D01*
X12543991Y-15520650D02*
X12572563Y-15520650D01*
X12572563Y-15520650D02*
X12591610Y-15530174D01*
X12591610Y-15530174D02*
X12601134Y-15549222D01*
X12601134Y-15549222D02*
X12601134Y-15653984D01*
X12601134Y-15549222D02*
X12610658Y-15530174D01*
X12610658Y-15530174D02*
X12629705Y-15520650D01*
X12629705Y-15520650D02*
X12658277Y-15520650D01*
X12658277Y-15520650D02*
X12677324Y-15530174D01*
X12677324Y-15530174D02*
X12686848Y-15549222D01*
X12686848Y-15549222D02*
X12686848Y-15653984D01*
X12782086Y-15653984D02*
X12782086Y-15520650D01*
X12782086Y-15539698D02*
X12791610Y-15530174D01*
X12791610Y-15530174D02*
X12810658Y-15520650D01*
X12810658Y-15520650D02*
X12839229Y-15520650D01*
X12839229Y-15520650D02*
X12858277Y-15530174D01*
X12858277Y-15530174D02*
X12867801Y-15549222D01*
X12867801Y-15549222D02*
X12867801Y-15653984D01*
X12867801Y-15549222D02*
X12877324Y-15530174D01*
X12877324Y-15530174D02*
X12896372Y-15520650D01*
X12896372Y-15520650D02*
X12924943Y-15520650D01*
X12924943Y-15520650D02*
X12943991Y-15530174D01*
X12943991Y-15530174D02*
X12953515Y-15549222D01*
X12953515Y-15549222D02*
X12953515Y-15653984D01*
X13343991Y-15444460D02*
X13172563Y-15701603D01*
X13601134Y-15453984D02*
X13620182Y-15453984D01*
X13620182Y-15453984D02*
X13639229Y-15463508D01*
X13639229Y-15463508D02*
X13648753Y-15473031D01*
X13648753Y-15473031D02*
X13658277Y-15492079D01*
X13658277Y-15492079D02*
X13667801Y-15530174D01*
X13667801Y-15530174D02*
X13667801Y-15577793D01*
X13667801Y-15577793D02*
X13658277Y-15615888D01*
X13658277Y-15615888D02*
X13648753Y-15634936D01*
X13648753Y-15634936D02*
X13639229Y-15644460D01*
X13639229Y-15644460D02*
X13620182Y-15653984D01*
X13620182Y-15653984D02*
X13601134Y-15653984D01*
X13601134Y-15653984D02*
X13582086Y-15644460D01*
X13582086Y-15644460D02*
X13572563Y-15634936D01*
X13572563Y-15634936D02*
X13563039Y-15615888D01*
X13563039Y-15615888D02*
X13553515Y-15577793D01*
X13553515Y-15577793D02*
X13553515Y-15530174D01*
X13553515Y-15530174D02*
X13563039Y-15492079D01*
X13563039Y-15492079D02*
X13572563Y-15473031D01*
X13572563Y-15473031D02*
X13582086Y-15463508D01*
X13582086Y-15463508D02*
X13601134Y-15453984D01*
X13753515Y-15634936D02*
X13763039Y-15644460D01*
X13763039Y-15644460D02*
X13753515Y-15653984D01*
X13753515Y-15653984D02*
X13743991Y-15644460D01*
X13743991Y-15644460D02*
X13753515Y-15634936D01*
X13753515Y-15634936D02*
X13753515Y-15653984D01*
X13886848Y-15453984D02*
X13905896Y-15453984D01*
X13905896Y-15453984D02*
X13924944Y-15463508D01*
X13924944Y-15463508D02*
X13934467Y-15473031D01*
X13934467Y-15473031D02*
X13943991Y-15492079D01*
X13943991Y-15492079D02*
X13953515Y-15530174D01*
X13953515Y-15530174D02*
X13953515Y-15577793D01*
X13953515Y-15577793D02*
X13943991Y-15615888D01*
X13943991Y-15615888D02*
X13934467Y-15634936D01*
X13934467Y-15634936D02*
X13924944Y-15644460D01*
X13924944Y-15644460D02*
X13905896Y-15653984D01*
X13905896Y-15653984D02*
X13886848Y-15653984D01*
X13886848Y-15653984D02*
X13867801Y-15644460D01*
X13867801Y-15644460D02*
X13858277Y-15634936D01*
X13858277Y-15634936D02*
X13848753Y-15615888D01*
X13848753Y-15615888D02*
X13839229Y-15577793D01*
X13839229Y-15577793D02*
X13839229Y-15530174D01*
X13839229Y-15530174D02*
X13848753Y-15492079D01*
X13848753Y-15492079D02*
X13858277Y-15473031D01*
X13858277Y-15473031D02*
X13867801Y-15463508D01*
X13867801Y-15463508D02*
X13886848Y-15453984D01*
X14020182Y-15453984D02*
X14143991Y-15453984D01*
X14143991Y-15453984D02*
X14077325Y-15530174D01*
X14077325Y-15530174D02*
X14105896Y-15530174D01*
X14105896Y-15530174D02*
X14124944Y-15539698D01*
X14124944Y-15539698D02*
X14134467Y-15549222D01*
X14134467Y-15549222D02*
X14143991Y-15568269D01*
X14143991Y-15568269D02*
X14143991Y-15615888D01*
X14143991Y-15615888D02*
X14134467Y-15634936D01*
X14134467Y-15634936D02*
X14124944Y-15644460D01*
X14124944Y-15644460D02*
X14105896Y-15653984D01*
X14105896Y-15653984D02*
X14048753Y-15653984D01*
X14048753Y-15653984D02*
X14029706Y-15644460D01*
X14029706Y-15644460D02*
X14020182Y-15634936D01*
X14210658Y-15453984D02*
X14334467Y-15453984D01*
X14334467Y-15453984D02*
X14267801Y-15530174D01*
X14267801Y-15530174D02*
X14296372Y-15530174D01*
X14296372Y-15530174D02*
X14315420Y-15539698D01*
X14315420Y-15539698D02*
X14324944Y-15549222D01*
X14324944Y-15549222D02*
X14334467Y-15568269D01*
X14334467Y-15568269D02*
X14334467Y-15615888D01*
X14334467Y-15615888D02*
X14324944Y-15634936D01*
X14324944Y-15634936D02*
X14315420Y-15644460D01*
X14315420Y-15644460D02*
X14296372Y-15653984D01*
X14296372Y-15653984D02*
X14239229Y-15653984D01*
X14239229Y-15653984D02*
X14220182Y-15644460D01*
X14220182Y-15644460D02*
X14210658Y-15634936D01*
X14515420Y-15453984D02*
X14420182Y-15453984D01*
X14420182Y-15453984D02*
X14410658Y-15549222D01*
X14410658Y-15549222D02*
X14420182Y-15539698D01*
X14420182Y-15539698D02*
X14439229Y-15530174D01*
X14439229Y-15530174D02*
X14486848Y-15530174D01*
X14486848Y-15530174D02*
X14505896Y-15539698D01*
X14505896Y-15539698D02*
X14515420Y-15549222D01*
X14515420Y-15549222D02*
X14524944Y-15568269D01*
X14524944Y-15568269D02*
X14524944Y-15615888D01*
X14524944Y-15615888D02*
X14515420Y-15634936D01*
X14515420Y-15634936D02*
X14505896Y-15644460D01*
X14505896Y-15644460D02*
X14486848Y-15653984D01*
X14486848Y-15653984D02*
X14439229Y-15653984D01*
X14439229Y-15653984D02*
X14420182Y-15644460D01*
X14420182Y-15644460D02*
X14410658Y-15634936D01*
X14601134Y-15453984D02*
X14601134Y-15492079D01*
X14677325Y-15453984D02*
X14677325Y-15492079D01*
X14972563Y-15730174D02*
X14963039Y-15720650D01*
X14963039Y-15720650D02*
X14943991Y-15692079D01*
X14943991Y-15692079D02*
X14934468Y-15673031D01*
X14934468Y-15673031D02*
X14924944Y-15644460D01*
X14924944Y-15644460D02*
X14915420Y-15596841D01*
X14915420Y-15596841D02*
X14915420Y-15558746D01*
X14915420Y-15558746D02*
X14924944Y-15511127D01*
X14924944Y-15511127D02*
X14934468Y-15482555D01*
X14934468Y-15482555D02*
X14943991Y-15463508D01*
X14943991Y-15463508D02*
X14963039Y-15434936D01*
X14963039Y-15434936D02*
X14972563Y-15425412D01*
X15143991Y-15453984D02*
X15048753Y-15453984D01*
X15048753Y-15453984D02*
X15039229Y-15549222D01*
X15039229Y-15549222D02*
X15048753Y-15539698D01*
X15048753Y-15539698D02*
X15067801Y-15530174D01*
X15067801Y-15530174D02*
X15115420Y-15530174D01*
X15115420Y-15530174D02*
X15134468Y-15539698D01*
X15134468Y-15539698D02*
X15143991Y-15549222D01*
X15143991Y-15549222D02*
X15153515Y-15568269D01*
X15153515Y-15568269D02*
X15153515Y-15615888D01*
X15153515Y-15615888D02*
X15143991Y-15634936D01*
X15143991Y-15634936D02*
X15134468Y-15644460D01*
X15134468Y-15644460D02*
X15115420Y-15653984D01*
X15115420Y-15653984D02*
X15067801Y-15653984D01*
X15067801Y-15653984D02*
X15048753Y-15644460D01*
X15048753Y-15644460D02*
X15039229Y-15634936D01*
X15391610Y-15653984D02*
X15391610Y-15453984D01*
X15477325Y-15653984D02*
X15477325Y-15549222D01*
X15477325Y-15549222D02*
X15467801Y-15530174D01*
X15467801Y-15530174D02*
X15448753Y-15520650D01*
X15448753Y-15520650D02*
X15420182Y-15520650D01*
X15420182Y-15520650D02*
X15401134Y-15530174D01*
X15401134Y-15530174D02*
X15391610Y-15539698D01*
X15601134Y-15653984D02*
X15582087Y-15644460D01*
X15582087Y-15644460D02*
X15572563Y-15634936D01*
X15572563Y-15634936D02*
X15563039Y-15615888D01*
X15563039Y-15615888D02*
X15563039Y-15558746D01*
X15563039Y-15558746D02*
X15572563Y-15539698D01*
X15572563Y-15539698D02*
X15582087Y-15530174D01*
X15582087Y-15530174D02*
X15601134Y-15520650D01*
X15601134Y-15520650D02*
X15629706Y-15520650D01*
X15629706Y-15520650D02*
X15648753Y-15530174D01*
X15648753Y-15530174D02*
X15658277Y-15539698D01*
X15658277Y-15539698D02*
X15667801Y-15558746D01*
X15667801Y-15558746D02*
X15667801Y-15615888D01*
X15667801Y-15615888D02*
X15658277Y-15634936D01*
X15658277Y-15634936D02*
X15648753Y-15644460D01*
X15648753Y-15644460D02*
X15629706Y-15653984D01*
X15629706Y-15653984D02*
X15601134Y-15653984D01*
X15782087Y-15653984D02*
X15763039Y-15644460D01*
X15763039Y-15644460D02*
X15753515Y-15625412D01*
X15753515Y-15625412D02*
X15753515Y-15453984D01*
X15934468Y-15644460D02*
X15915420Y-15653984D01*
X15915420Y-15653984D02*
X15877325Y-15653984D01*
X15877325Y-15653984D02*
X15858277Y-15644460D01*
X15858277Y-15644460D02*
X15848753Y-15625412D01*
X15848753Y-15625412D02*
X15848753Y-15549222D01*
X15848753Y-15549222D02*
X15858277Y-15530174D01*
X15858277Y-15530174D02*
X15877325Y-15520650D01*
X15877325Y-15520650D02*
X15915420Y-15520650D01*
X15915420Y-15520650D02*
X15934468Y-15530174D01*
X15934468Y-15530174D02*
X15943991Y-15549222D01*
X15943991Y-15549222D02*
X15943991Y-15568269D01*
X15943991Y-15568269D02*
X15848753Y-15587317D01*
X16020182Y-15644460D02*
X16039230Y-15653984D01*
X16039230Y-15653984D02*
X16077325Y-15653984D01*
X16077325Y-15653984D02*
X16096372Y-15644460D01*
X16096372Y-15644460D02*
X16105896Y-15625412D01*
X16105896Y-15625412D02*
X16105896Y-15615888D01*
X16105896Y-15615888D02*
X16096372Y-15596841D01*
X16096372Y-15596841D02*
X16077325Y-15587317D01*
X16077325Y-15587317D02*
X16048753Y-15587317D01*
X16048753Y-15587317D02*
X16029706Y-15577793D01*
X16029706Y-15577793D02*
X16020182Y-15558746D01*
X16020182Y-15558746D02*
X16020182Y-15549222D01*
X16020182Y-15549222D02*
X16029706Y-15530174D01*
X16029706Y-15530174D02*
X16048753Y-15520650D01*
X16048753Y-15520650D02*
X16077325Y-15520650D01*
X16077325Y-15520650D02*
X16096372Y-15530174D01*
X16172563Y-15730174D02*
X16182087Y-15720650D01*
X16182087Y-15720650D02*
X16201134Y-15692079D01*
X16201134Y-15692079D02*
X16210658Y-15673031D01*
X16210658Y-15673031D02*
X16220182Y-15644460D01*
X16220182Y-15644460D02*
X16229706Y-15596841D01*
X16229706Y-15596841D02*
X16229706Y-15558746D01*
X16229706Y-15558746D02*
X16220182Y-15511127D01*
X16220182Y-15511127D02*
X16210658Y-15482555D01*
X16210658Y-15482555D02*
X16201134Y-15463508D01*
X16201134Y-15463508D02*
X16182087Y-15434936D01*
X16182087Y-15434936D02*
X16172563Y-15425412D01*
D12*
X11302500Y-15779000D02*
X11397500Y-15874000D01*
X11397500Y-15779000D02*
X11302500Y-15874000D01*
X11350000Y-15779000D02*
X11350000Y-15874000D01*
X11302500Y-15826500D02*
X11397500Y-15826500D01*
D11*
X11696372Y-15717984D02*
X11715420Y-15717984D01*
X11715420Y-15717984D02*
X11734467Y-15727508D01*
X11734467Y-15727508D02*
X11743991Y-15737031D01*
X11743991Y-15737031D02*
X11753515Y-15756079D01*
X11753515Y-15756079D02*
X11763039Y-15794174D01*
X11763039Y-15794174D02*
X11763039Y-15841793D01*
X11763039Y-15841793D02*
X11753515Y-15879888D01*
X11753515Y-15879888D02*
X11743991Y-15898936D01*
X11743991Y-15898936D02*
X11734467Y-15908460D01*
X11734467Y-15908460D02*
X11715420Y-15917984D01*
X11715420Y-15917984D02*
X11696372Y-15917984D01*
X11696372Y-15917984D02*
X11677324Y-15908460D01*
X11677324Y-15908460D02*
X11667801Y-15898936D01*
X11667801Y-15898936D02*
X11658277Y-15879888D01*
X11658277Y-15879888D02*
X11648753Y-15841793D01*
X11648753Y-15841793D02*
X11648753Y-15794174D01*
X11648753Y-15794174D02*
X11658277Y-15756079D01*
X11658277Y-15756079D02*
X11667801Y-15737031D01*
X11667801Y-15737031D02*
X11677324Y-15727508D01*
X11677324Y-15727508D02*
X11696372Y-15717984D01*
X11848753Y-15898936D02*
X11858277Y-15908460D01*
X11858277Y-15908460D02*
X11848753Y-15917984D01*
X11848753Y-15917984D02*
X11839229Y-15908460D01*
X11839229Y-15908460D02*
X11848753Y-15898936D01*
X11848753Y-15898936D02*
X11848753Y-15917984D01*
X11953515Y-15917984D02*
X11991610Y-15917984D01*
X11991610Y-15917984D02*
X12010658Y-15908460D01*
X12010658Y-15908460D02*
X12020182Y-15898936D01*
X12020182Y-15898936D02*
X12039229Y-15870365D01*
X12039229Y-15870365D02*
X12048753Y-15832269D01*
X12048753Y-15832269D02*
X12048753Y-15756079D01*
X12048753Y-15756079D02*
X12039229Y-15737031D01*
X12039229Y-15737031D02*
X12029705Y-15727508D01*
X12029705Y-15727508D02*
X12010658Y-15717984D01*
X12010658Y-15717984D02*
X11972562Y-15717984D01*
X11972562Y-15717984D02*
X11953515Y-15727508D01*
X11953515Y-15727508D02*
X11943991Y-15737031D01*
X11943991Y-15737031D02*
X11934467Y-15756079D01*
X11934467Y-15756079D02*
X11934467Y-15803698D01*
X11934467Y-15803698D02*
X11943991Y-15822746D01*
X11943991Y-15822746D02*
X11953515Y-15832269D01*
X11953515Y-15832269D02*
X11972562Y-15841793D01*
X11972562Y-15841793D02*
X12010658Y-15841793D01*
X12010658Y-15841793D02*
X12029705Y-15832269D01*
X12029705Y-15832269D02*
X12039229Y-15822746D01*
X12039229Y-15822746D02*
X12048753Y-15803698D01*
X12229705Y-15717984D02*
X12134467Y-15717984D01*
X12134467Y-15717984D02*
X12124943Y-15813222D01*
X12124943Y-15813222D02*
X12134467Y-15803698D01*
X12134467Y-15803698D02*
X12153515Y-15794174D01*
X12153515Y-15794174D02*
X12201134Y-15794174D01*
X12201134Y-15794174D02*
X12220182Y-15803698D01*
X12220182Y-15803698D02*
X12229705Y-15813222D01*
X12229705Y-15813222D02*
X12239229Y-15832269D01*
X12239229Y-15832269D02*
X12239229Y-15879888D01*
X12239229Y-15879888D02*
X12229705Y-15898936D01*
X12229705Y-15898936D02*
X12220182Y-15908460D01*
X12220182Y-15908460D02*
X12201134Y-15917984D01*
X12201134Y-15917984D02*
X12153515Y-15917984D01*
X12153515Y-15917984D02*
X12134467Y-15908460D01*
X12134467Y-15908460D02*
X12124943Y-15898936D01*
X12363039Y-15717984D02*
X12382086Y-15717984D01*
X12382086Y-15717984D02*
X12401134Y-15727508D01*
X12401134Y-15727508D02*
X12410658Y-15737031D01*
X12410658Y-15737031D02*
X12420182Y-15756079D01*
X12420182Y-15756079D02*
X12429705Y-15794174D01*
X12429705Y-15794174D02*
X12429705Y-15841793D01*
X12429705Y-15841793D02*
X12420182Y-15879888D01*
X12420182Y-15879888D02*
X12410658Y-15898936D01*
X12410658Y-15898936D02*
X12401134Y-15908460D01*
X12401134Y-15908460D02*
X12382086Y-15917984D01*
X12382086Y-15917984D02*
X12363039Y-15917984D01*
X12363039Y-15917984D02*
X12343991Y-15908460D01*
X12343991Y-15908460D02*
X12334467Y-15898936D01*
X12334467Y-15898936D02*
X12324943Y-15879888D01*
X12324943Y-15879888D02*
X12315420Y-15841793D01*
X12315420Y-15841793D02*
X12315420Y-15794174D01*
X12315420Y-15794174D02*
X12324943Y-15756079D01*
X12324943Y-15756079D02*
X12334467Y-15737031D01*
X12334467Y-15737031D02*
X12343991Y-15727508D01*
X12343991Y-15727508D02*
X12363039Y-15717984D01*
X12515420Y-15917984D02*
X12515420Y-15784650D01*
X12515420Y-15803698D02*
X12524943Y-15794174D01*
X12524943Y-15794174D02*
X12543991Y-15784650D01*
X12543991Y-15784650D02*
X12572563Y-15784650D01*
X12572563Y-15784650D02*
X12591610Y-15794174D01*
X12591610Y-15794174D02*
X12601134Y-15813222D01*
X12601134Y-15813222D02*
X12601134Y-15917984D01*
X12601134Y-15813222D02*
X12610658Y-15794174D01*
X12610658Y-15794174D02*
X12629705Y-15784650D01*
X12629705Y-15784650D02*
X12658277Y-15784650D01*
X12658277Y-15784650D02*
X12677324Y-15794174D01*
X12677324Y-15794174D02*
X12686848Y-15813222D01*
X12686848Y-15813222D02*
X12686848Y-15917984D01*
X12782086Y-15917984D02*
X12782086Y-15784650D01*
X12782086Y-15803698D02*
X12791610Y-15794174D01*
X12791610Y-15794174D02*
X12810658Y-15784650D01*
X12810658Y-15784650D02*
X12839229Y-15784650D01*
X12839229Y-15784650D02*
X12858277Y-15794174D01*
X12858277Y-15794174D02*
X12867801Y-15813222D01*
X12867801Y-15813222D02*
X12867801Y-15917984D01*
X12867801Y-15813222D02*
X12877324Y-15794174D01*
X12877324Y-15794174D02*
X12896372Y-15784650D01*
X12896372Y-15784650D02*
X12924943Y-15784650D01*
X12924943Y-15784650D02*
X12943991Y-15794174D01*
X12943991Y-15794174D02*
X12953515Y-15813222D01*
X12953515Y-15813222D02*
X12953515Y-15917984D01*
X13343991Y-15708460D02*
X13172563Y-15965603D01*
X13601134Y-15717984D02*
X13620182Y-15717984D01*
X13620182Y-15717984D02*
X13639229Y-15727508D01*
X13639229Y-15727508D02*
X13648753Y-15737031D01*
X13648753Y-15737031D02*
X13658277Y-15756079D01*
X13658277Y-15756079D02*
X13667801Y-15794174D01*
X13667801Y-15794174D02*
X13667801Y-15841793D01*
X13667801Y-15841793D02*
X13658277Y-15879888D01*
X13658277Y-15879888D02*
X13648753Y-15898936D01*
X13648753Y-15898936D02*
X13639229Y-15908460D01*
X13639229Y-15908460D02*
X13620182Y-15917984D01*
X13620182Y-15917984D02*
X13601134Y-15917984D01*
X13601134Y-15917984D02*
X13582086Y-15908460D01*
X13582086Y-15908460D02*
X13572563Y-15898936D01*
X13572563Y-15898936D02*
X13563039Y-15879888D01*
X13563039Y-15879888D02*
X13553515Y-15841793D01*
X13553515Y-15841793D02*
X13553515Y-15794174D01*
X13553515Y-15794174D02*
X13563039Y-15756079D01*
X13563039Y-15756079D02*
X13572563Y-15737031D01*
X13572563Y-15737031D02*
X13582086Y-15727508D01*
X13582086Y-15727508D02*
X13601134Y-15717984D01*
X13753515Y-15898936D02*
X13763039Y-15908460D01*
X13763039Y-15908460D02*
X13753515Y-15917984D01*
X13753515Y-15917984D02*
X13743991Y-15908460D01*
X13743991Y-15908460D02*
X13753515Y-15898936D01*
X13753515Y-15898936D02*
X13753515Y-15917984D01*
X13886848Y-15717984D02*
X13905896Y-15717984D01*
X13905896Y-15717984D02*
X13924944Y-15727508D01*
X13924944Y-15727508D02*
X13934467Y-15737031D01*
X13934467Y-15737031D02*
X13943991Y-15756079D01*
X13943991Y-15756079D02*
X13953515Y-15794174D01*
X13953515Y-15794174D02*
X13953515Y-15841793D01*
X13953515Y-15841793D02*
X13943991Y-15879888D01*
X13943991Y-15879888D02*
X13934467Y-15898936D01*
X13934467Y-15898936D02*
X13924944Y-15908460D01*
X13924944Y-15908460D02*
X13905896Y-15917984D01*
X13905896Y-15917984D02*
X13886848Y-15917984D01*
X13886848Y-15917984D02*
X13867801Y-15908460D01*
X13867801Y-15908460D02*
X13858277Y-15898936D01*
X13858277Y-15898936D02*
X13848753Y-15879888D01*
X13848753Y-15879888D02*
X13839229Y-15841793D01*
X13839229Y-15841793D02*
X13839229Y-15794174D01*
X13839229Y-15794174D02*
X13848753Y-15756079D01*
X13848753Y-15756079D02*
X13858277Y-15737031D01*
X13858277Y-15737031D02*
X13867801Y-15727508D01*
X13867801Y-15727508D02*
X13886848Y-15717984D01*
X14020182Y-15717984D02*
X14143991Y-15717984D01*
X14143991Y-15717984D02*
X14077325Y-15794174D01*
X14077325Y-15794174D02*
X14105896Y-15794174D01*
X14105896Y-15794174D02*
X14124944Y-15803698D01*
X14124944Y-15803698D02*
X14134467Y-15813222D01*
X14134467Y-15813222D02*
X14143991Y-15832269D01*
X14143991Y-15832269D02*
X14143991Y-15879888D01*
X14143991Y-15879888D02*
X14134467Y-15898936D01*
X14134467Y-15898936D02*
X14124944Y-15908460D01*
X14124944Y-15908460D02*
X14105896Y-15917984D01*
X14105896Y-15917984D02*
X14048753Y-15917984D01*
X14048753Y-15917984D02*
X14029706Y-15908460D01*
X14029706Y-15908460D02*
X14020182Y-15898936D01*
X14210658Y-15717984D02*
X14343991Y-15717984D01*
X14343991Y-15717984D02*
X14258277Y-15917984D01*
X14505896Y-15784650D02*
X14505896Y-15917984D01*
X14458277Y-15708460D02*
X14410658Y-15851317D01*
X14410658Y-15851317D02*
X14534467Y-15851317D01*
X14601134Y-15717984D02*
X14601134Y-15756079D01*
X14677325Y-15717984D02*
X14677325Y-15756079D01*
X14972563Y-15994174D02*
X14963039Y-15984650D01*
X14963039Y-15984650D02*
X14943991Y-15956079D01*
X14943991Y-15956079D02*
X14934468Y-15937031D01*
X14934468Y-15937031D02*
X14924944Y-15908460D01*
X14924944Y-15908460D02*
X14915420Y-15860841D01*
X14915420Y-15860841D02*
X14915420Y-15822746D01*
X14915420Y-15822746D02*
X14924944Y-15775127D01*
X14924944Y-15775127D02*
X14934468Y-15746555D01*
X14934468Y-15746555D02*
X14943991Y-15727508D01*
X14943991Y-15727508D02*
X14963039Y-15698936D01*
X14963039Y-15698936D02*
X14972563Y-15689412D01*
X15029706Y-15717984D02*
X15153515Y-15717984D01*
X15153515Y-15717984D02*
X15086848Y-15794174D01*
X15086848Y-15794174D02*
X15115420Y-15794174D01*
X15115420Y-15794174D02*
X15134468Y-15803698D01*
X15134468Y-15803698D02*
X15143991Y-15813222D01*
X15143991Y-15813222D02*
X15153515Y-15832269D01*
X15153515Y-15832269D02*
X15153515Y-15879888D01*
X15153515Y-15879888D02*
X15143991Y-15898936D01*
X15143991Y-15898936D02*
X15134468Y-15908460D01*
X15134468Y-15908460D02*
X15115420Y-15917984D01*
X15115420Y-15917984D02*
X15058277Y-15917984D01*
X15058277Y-15917984D02*
X15039229Y-15908460D01*
X15039229Y-15908460D02*
X15029706Y-15898936D01*
X15391610Y-15917984D02*
X15391610Y-15717984D01*
X15477325Y-15917984D02*
X15477325Y-15813222D01*
X15477325Y-15813222D02*
X15467801Y-15794174D01*
X15467801Y-15794174D02*
X15448753Y-15784650D01*
X15448753Y-15784650D02*
X15420182Y-15784650D01*
X15420182Y-15784650D02*
X15401134Y-15794174D01*
X15401134Y-15794174D02*
X15391610Y-15803698D01*
X15601134Y-15917984D02*
X15582087Y-15908460D01*
X15582087Y-15908460D02*
X15572563Y-15898936D01*
X15572563Y-15898936D02*
X15563039Y-15879888D01*
X15563039Y-15879888D02*
X15563039Y-15822746D01*
X15563039Y-15822746D02*
X15572563Y-15803698D01*
X15572563Y-15803698D02*
X15582087Y-15794174D01*
X15582087Y-15794174D02*
X15601134Y-15784650D01*
X15601134Y-15784650D02*
X15629706Y-15784650D01*
X15629706Y-15784650D02*
X15648753Y-15794174D01*
X15648753Y-15794174D02*
X15658277Y-15803698D01*
X15658277Y-15803698D02*
X15667801Y-15822746D01*
X15667801Y-15822746D02*
X15667801Y-15879888D01*
X15667801Y-15879888D02*
X15658277Y-15898936D01*
X15658277Y-15898936D02*
X15648753Y-15908460D01*
X15648753Y-15908460D02*
X15629706Y-15917984D01*
X15629706Y-15917984D02*
X15601134Y-15917984D01*
X15782087Y-15917984D02*
X15763039Y-15908460D01*
X15763039Y-15908460D02*
X15753515Y-15889412D01*
X15753515Y-15889412D02*
X15753515Y-15717984D01*
X15934468Y-15908460D02*
X15915420Y-15917984D01*
X15915420Y-15917984D02*
X15877325Y-15917984D01*
X15877325Y-15917984D02*
X15858277Y-15908460D01*
X15858277Y-15908460D02*
X15848753Y-15889412D01*
X15848753Y-15889412D02*
X15848753Y-15813222D01*
X15848753Y-15813222D02*
X15858277Y-15794174D01*
X15858277Y-15794174D02*
X15877325Y-15784650D01*
X15877325Y-15784650D02*
X15915420Y-15784650D01*
X15915420Y-15784650D02*
X15934468Y-15794174D01*
X15934468Y-15794174D02*
X15943991Y-15813222D01*
X15943991Y-15813222D02*
X15943991Y-15832269D01*
X15943991Y-15832269D02*
X15848753Y-15851317D01*
X16020182Y-15908460D02*
X16039230Y-15917984D01*
X16039230Y-15917984D02*
X16077325Y-15917984D01*
X16077325Y-15917984D02*
X16096372Y-15908460D01*
X16096372Y-15908460D02*
X16105896Y-15889412D01*
X16105896Y-15889412D02*
X16105896Y-15879888D01*
X16105896Y-15879888D02*
X16096372Y-15860841D01*
X16096372Y-15860841D02*
X16077325Y-15851317D01*
X16077325Y-15851317D02*
X16048753Y-15851317D01*
X16048753Y-15851317D02*
X16029706Y-15841793D01*
X16029706Y-15841793D02*
X16020182Y-15822746D01*
X16020182Y-15822746D02*
X16020182Y-15813222D01*
X16020182Y-15813222D02*
X16029706Y-15794174D01*
X16029706Y-15794174D02*
X16048753Y-15784650D01*
X16048753Y-15784650D02*
X16077325Y-15784650D01*
X16077325Y-15784650D02*
X16096372Y-15794174D01*
X16172563Y-15994174D02*
X16182087Y-15984650D01*
X16182087Y-15984650D02*
X16201134Y-15956079D01*
X16201134Y-15956079D02*
X16210658Y-15937031D01*
X16210658Y-15937031D02*
X16220182Y-15908460D01*
X16220182Y-15908460D02*
X16229706Y-15860841D01*
X16229706Y-15860841D02*
X16229706Y-15822746D01*
X16229706Y-15822746D02*
X16220182Y-15775127D01*
X16220182Y-15775127D02*
X16210658Y-15746555D01*
X16210658Y-15746555D02*
X16201134Y-15727508D01*
X16201134Y-15727508D02*
X16182087Y-15698936D01*
X16182087Y-15698936D02*
X16172563Y-15689412D01*
D12*
X11297500Y-16040500D02*
X11397500Y-16140500D01*
X11397500Y-16040500D02*
X11297500Y-16140500D01*
X11382856Y-16125856D02*
X11382856Y-16055144D01*
X11312144Y-16055144D01*
X11312144Y-16125856D01*
X11382856Y-16125856D01*
D11*
X11763039Y-16181984D02*
X11648753Y-16181984D01*
X11705896Y-16181984D02*
X11705896Y-15981984D01*
X11705896Y-15981984D02*
X11686848Y-16010555D01*
X11686848Y-16010555D02*
X11667801Y-16029603D01*
X11667801Y-16029603D02*
X11648753Y-16039127D01*
X11848753Y-16162936D02*
X11858277Y-16172460D01*
X11858277Y-16172460D02*
X11848753Y-16181984D01*
X11848753Y-16181984D02*
X11839229Y-16172460D01*
X11839229Y-16172460D02*
X11848753Y-16162936D01*
X11848753Y-16162936D02*
X11848753Y-16181984D01*
X11982086Y-15981984D02*
X12001134Y-15981984D01*
X12001134Y-15981984D02*
X12020182Y-15991508D01*
X12020182Y-15991508D02*
X12029705Y-16001031D01*
X12029705Y-16001031D02*
X12039229Y-16020079D01*
X12039229Y-16020079D02*
X12048753Y-16058174D01*
X12048753Y-16058174D02*
X12048753Y-16105793D01*
X12048753Y-16105793D02*
X12039229Y-16143888D01*
X12039229Y-16143888D02*
X12029705Y-16162936D01*
X12029705Y-16162936D02*
X12020182Y-16172460D01*
X12020182Y-16172460D02*
X12001134Y-16181984D01*
X12001134Y-16181984D02*
X11982086Y-16181984D01*
X11982086Y-16181984D02*
X11963039Y-16172460D01*
X11963039Y-16172460D02*
X11953515Y-16162936D01*
X11953515Y-16162936D02*
X11943991Y-16143888D01*
X11943991Y-16143888D02*
X11934467Y-16105793D01*
X11934467Y-16105793D02*
X11934467Y-16058174D01*
X11934467Y-16058174D02*
X11943991Y-16020079D01*
X11943991Y-16020079D02*
X11953515Y-16001031D01*
X11953515Y-16001031D02*
X11963039Y-15991508D01*
X11963039Y-15991508D02*
X11982086Y-15981984D01*
X12172562Y-15981984D02*
X12191610Y-15981984D01*
X12191610Y-15981984D02*
X12210658Y-15991508D01*
X12210658Y-15991508D02*
X12220182Y-16001031D01*
X12220182Y-16001031D02*
X12229705Y-16020079D01*
X12229705Y-16020079D02*
X12239229Y-16058174D01*
X12239229Y-16058174D02*
X12239229Y-16105793D01*
X12239229Y-16105793D02*
X12229705Y-16143888D01*
X12229705Y-16143888D02*
X12220182Y-16162936D01*
X12220182Y-16162936D02*
X12210658Y-16172460D01*
X12210658Y-16172460D02*
X12191610Y-16181984D01*
X12191610Y-16181984D02*
X12172562Y-16181984D01*
X12172562Y-16181984D02*
X12153515Y-16172460D01*
X12153515Y-16172460D02*
X12143991Y-16162936D01*
X12143991Y-16162936D02*
X12134467Y-16143888D01*
X12134467Y-16143888D02*
X12124943Y-16105793D01*
X12124943Y-16105793D02*
X12124943Y-16058174D01*
X12124943Y-16058174D02*
X12134467Y-16020079D01*
X12134467Y-16020079D02*
X12143991Y-16001031D01*
X12143991Y-16001031D02*
X12153515Y-15991508D01*
X12153515Y-15991508D02*
X12172562Y-15981984D01*
X12363039Y-15981984D02*
X12382086Y-15981984D01*
X12382086Y-15981984D02*
X12401134Y-15991508D01*
X12401134Y-15991508D02*
X12410658Y-16001031D01*
X12410658Y-16001031D02*
X12420182Y-16020079D01*
X12420182Y-16020079D02*
X12429705Y-16058174D01*
X12429705Y-16058174D02*
X12429705Y-16105793D01*
X12429705Y-16105793D02*
X12420182Y-16143888D01*
X12420182Y-16143888D02*
X12410658Y-16162936D01*
X12410658Y-16162936D02*
X12401134Y-16172460D01*
X12401134Y-16172460D02*
X12382086Y-16181984D01*
X12382086Y-16181984D02*
X12363039Y-16181984D01*
X12363039Y-16181984D02*
X12343991Y-16172460D01*
X12343991Y-16172460D02*
X12334467Y-16162936D01*
X12334467Y-16162936D02*
X12324943Y-16143888D01*
X12324943Y-16143888D02*
X12315420Y-16105793D01*
X12315420Y-16105793D02*
X12315420Y-16058174D01*
X12315420Y-16058174D02*
X12324943Y-16020079D01*
X12324943Y-16020079D02*
X12334467Y-16001031D01*
X12334467Y-16001031D02*
X12343991Y-15991508D01*
X12343991Y-15991508D02*
X12363039Y-15981984D01*
X12515420Y-16181984D02*
X12515420Y-16048650D01*
X12515420Y-16067698D02*
X12524943Y-16058174D01*
X12524943Y-16058174D02*
X12543991Y-16048650D01*
X12543991Y-16048650D02*
X12572563Y-16048650D01*
X12572563Y-16048650D02*
X12591610Y-16058174D01*
X12591610Y-16058174D02*
X12601134Y-16077222D01*
X12601134Y-16077222D02*
X12601134Y-16181984D01*
X12601134Y-16077222D02*
X12610658Y-16058174D01*
X12610658Y-16058174D02*
X12629705Y-16048650D01*
X12629705Y-16048650D02*
X12658277Y-16048650D01*
X12658277Y-16048650D02*
X12677324Y-16058174D01*
X12677324Y-16058174D02*
X12686848Y-16077222D01*
X12686848Y-16077222D02*
X12686848Y-16181984D01*
X12782086Y-16181984D02*
X12782086Y-16048650D01*
X12782086Y-16067698D02*
X12791610Y-16058174D01*
X12791610Y-16058174D02*
X12810658Y-16048650D01*
X12810658Y-16048650D02*
X12839229Y-16048650D01*
X12839229Y-16048650D02*
X12858277Y-16058174D01*
X12858277Y-16058174D02*
X12867801Y-16077222D01*
X12867801Y-16077222D02*
X12867801Y-16181984D01*
X12867801Y-16077222D02*
X12877324Y-16058174D01*
X12877324Y-16058174D02*
X12896372Y-16048650D01*
X12896372Y-16048650D02*
X12924943Y-16048650D01*
X12924943Y-16048650D02*
X12943991Y-16058174D01*
X12943991Y-16058174D02*
X12953515Y-16077222D01*
X12953515Y-16077222D02*
X12953515Y-16181984D01*
X13343991Y-15972460D02*
X13172563Y-16229603D01*
X13601134Y-15981984D02*
X13620182Y-15981984D01*
X13620182Y-15981984D02*
X13639229Y-15991508D01*
X13639229Y-15991508D02*
X13648753Y-16001031D01*
X13648753Y-16001031D02*
X13658277Y-16020079D01*
X13658277Y-16020079D02*
X13667801Y-16058174D01*
X13667801Y-16058174D02*
X13667801Y-16105793D01*
X13667801Y-16105793D02*
X13658277Y-16143888D01*
X13658277Y-16143888D02*
X13648753Y-16162936D01*
X13648753Y-16162936D02*
X13639229Y-16172460D01*
X13639229Y-16172460D02*
X13620182Y-16181984D01*
X13620182Y-16181984D02*
X13601134Y-16181984D01*
X13601134Y-16181984D02*
X13582086Y-16172460D01*
X13582086Y-16172460D02*
X13572563Y-16162936D01*
X13572563Y-16162936D02*
X13563039Y-16143888D01*
X13563039Y-16143888D02*
X13553515Y-16105793D01*
X13553515Y-16105793D02*
X13553515Y-16058174D01*
X13553515Y-16058174D02*
X13563039Y-16020079D01*
X13563039Y-16020079D02*
X13572563Y-16001031D01*
X13572563Y-16001031D02*
X13582086Y-15991508D01*
X13582086Y-15991508D02*
X13601134Y-15981984D01*
X13753515Y-16162936D02*
X13763039Y-16172460D01*
X13763039Y-16172460D02*
X13753515Y-16181984D01*
X13753515Y-16181984D02*
X13743991Y-16172460D01*
X13743991Y-16172460D02*
X13753515Y-16162936D01*
X13753515Y-16162936D02*
X13753515Y-16181984D01*
X13886848Y-15981984D02*
X13905896Y-15981984D01*
X13905896Y-15981984D02*
X13924944Y-15991508D01*
X13924944Y-15991508D02*
X13934467Y-16001031D01*
X13934467Y-16001031D02*
X13943991Y-16020079D01*
X13943991Y-16020079D02*
X13953515Y-16058174D01*
X13953515Y-16058174D02*
X13953515Y-16105793D01*
X13953515Y-16105793D02*
X13943991Y-16143888D01*
X13943991Y-16143888D02*
X13934467Y-16162936D01*
X13934467Y-16162936D02*
X13924944Y-16172460D01*
X13924944Y-16172460D02*
X13905896Y-16181984D01*
X13905896Y-16181984D02*
X13886848Y-16181984D01*
X13886848Y-16181984D02*
X13867801Y-16172460D01*
X13867801Y-16172460D02*
X13858277Y-16162936D01*
X13858277Y-16162936D02*
X13848753Y-16143888D01*
X13848753Y-16143888D02*
X13839229Y-16105793D01*
X13839229Y-16105793D02*
X13839229Y-16058174D01*
X13839229Y-16058174D02*
X13848753Y-16020079D01*
X13848753Y-16020079D02*
X13858277Y-16001031D01*
X13858277Y-16001031D02*
X13867801Y-15991508D01*
X13867801Y-15991508D02*
X13886848Y-15981984D01*
X14020182Y-15981984D02*
X14143991Y-15981984D01*
X14143991Y-15981984D02*
X14077325Y-16058174D01*
X14077325Y-16058174D02*
X14105896Y-16058174D01*
X14105896Y-16058174D02*
X14124944Y-16067698D01*
X14124944Y-16067698D02*
X14134467Y-16077222D01*
X14134467Y-16077222D02*
X14143991Y-16096269D01*
X14143991Y-16096269D02*
X14143991Y-16143888D01*
X14143991Y-16143888D02*
X14134467Y-16162936D01*
X14134467Y-16162936D02*
X14124944Y-16172460D01*
X14124944Y-16172460D02*
X14105896Y-16181984D01*
X14105896Y-16181984D02*
X14048753Y-16181984D01*
X14048753Y-16181984D02*
X14029706Y-16172460D01*
X14029706Y-16172460D02*
X14020182Y-16162936D01*
X14239229Y-16181984D02*
X14277325Y-16181984D01*
X14277325Y-16181984D02*
X14296372Y-16172460D01*
X14296372Y-16172460D02*
X14305896Y-16162936D01*
X14305896Y-16162936D02*
X14324944Y-16134365D01*
X14324944Y-16134365D02*
X14334467Y-16096269D01*
X14334467Y-16096269D02*
X14334467Y-16020079D01*
X14334467Y-16020079D02*
X14324944Y-16001031D01*
X14324944Y-16001031D02*
X14315420Y-15991508D01*
X14315420Y-15991508D02*
X14296372Y-15981984D01*
X14296372Y-15981984D02*
X14258277Y-15981984D01*
X14258277Y-15981984D02*
X14239229Y-15991508D01*
X14239229Y-15991508D02*
X14229706Y-16001031D01*
X14229706Y-16001031D02*
X14220182Y-16020079D01*
X14220182Y-16020079D02*
X14220182Y-16067698D01*
X14220182Y-16067698D02*
X14229706Y-16086746D01*
X14229706Y-16086746D02*
X14239229Y-16096269D01*
X14239229Y-16096269D02*
X14258277Y-16105793D01*
X14258277Y-16105793D02*
X14296372Y-16105793D01*
X14296372Y-16105793D02*
X14315420Y-16096269D01*
X14315420Y-16096269D02*
X14324944Y-16086746D01*
X14324944Y-16086746D02*
X14334467Y-16067698D01*
X14505896Y-16048650D02*
X14505896Y-16181984D01*
X14458277Y-15972460D02*
X14410658Y-16115317D01*
X14410658Y-16115317D02*
X14534467Y-16115317D01*
X14601134Y-15981984D02*
X14601134Y-16020079D01*
X14677325Y-15981984D02*
X14677325Y-16020079D01*
X14972563Y-16258174D02*
X14963039Y-16248650D01*
X14963039Y-16248650D02*
X14943991Y-16220079D01*
X14943991Y-16220079D02*
X14934468Y-16201031D01*
X14934468Y-16201031D02*
X14924944Y-16172460D01*
X14924944Y-16172460D02*
X14915420Y-16124841D01*
X14915420Y-16124841D02*
X14915420Y-16086746D01*
X14915420Y-16086746D02*
X14924944Y-16039127D01*
X14924944Y-16039127D02*
X14934468Y-16010555D01*
X14934468Y-16010555D02*
X14943991Y-15991508D01*
X14943991Y-15991508D02*
X14963039Y-15962936D01*
X14963039Y-15962936D02*
X14972563Y-15953412D01*
X15153515Y-16181984D02*
X15039229Y-16181984D01*
X15096372Y-16181984D02*
X15096372Y-15981984D01*
X15096372Y-15981984D02*
X15077325Y-16010555D01*
X15077325Y-16010555D02*
X15058277Y-16029603D01*
X15058277Y-16029603D02*
X15039229Y-16039127D01*
X15343991Y-16181984D02*
X15229706Y-16181984D01*
X15286848Y-16181984D02*
X15286848Y-15981984D01*
X15286848Y-15981984D02*
X15267801Y-16010555D01*
X15267801Y-16010555D02*
X15248753Y-16029603D01*
X15248753Y-16029603D02*
X15229706Y-16039127D01*
X15582087Y-16181984D02*
X15582087Y-15981984D01*
X15667801Y-16181984D02*
X15667801Y-16077222D01*
X15667801Y-16077222D02*
X15658277Y-16058174D01*
X15658277Y-16058174D02*
X15639230Y-16048650D01*
X15639230Y-16048650D02*
X15610658Y-16048650D01*
X15610658Y-16048650D02*
X15591610Y-16058174D01*
X15591610Y-16058174D02*
X15582087Y-16067698D01*
X15791610Y-16181984D02*
X15772563Y-16172460D01*
X15772563Y-16172460D02*
X15763039Y-16162936D01*
X15763039Y-16162936D02*
X15753515Y-16143888D01*
X15753515Y-16143888D02*
X15753515Y-16086746D01*
X15753515Y-16086746D02*
X15763039Y-16067698D01*
X15763039Y-16067698D02*
X15772563Y-16058174D01*
X15772563Y-16058174D02*
X15791610Y-16048650D01*
X15791610Y-16048650D02*
X15820182Y-16048650D01*
X15820182Y-16048650D02*
X15839230Y-16058174D01*
X15839230Y-16058174D02*
X15848753Y-16067698D01*
X15848753Y-16067698D02*
X15858277Y-16086746D01*
X15858277Y-16086746D02*
X15858277Y-16143888D01*
X15858277Y-16143888D02*
X15848753Y-16162936D01*
X15848753Y-16162936D02*
X15839230Y-16172460D01*
X15839230Y-16172460D02*
X15820182Y-16181984D01*
X15820182Y-16181984D02*
X15791610Y-16181984D01*
X15972563Y-16181984D02*
X15953515Y-16172460D01*
X15953515Y-16172460D02*
X15943991Y-16153412D01*
X15943991Y-16153412D02*
X15943991Y-15981984D01*
X16124944Y-16172460D02*
X16105896Y-16181984D01*
X16105896Y-16181984D02*
X16067801Y-16181984D01*
X16067801Y-16181984D02*
X16048753Y-16172460D01*
X16048753Y-16172460D02*
X16039230Y-16153412D01*
X16039230Y-16153412D02*
X16039230Y-16077222D01*
X16039230Y-16077222D02*
X16048753Y-16058174D01*
X16048753Y-16058174D02*
X16067801Y-16048650D01*
X16067801Y-16048650D02*
X16105896Y-16048650D01*
X16105896Y-16048650D02*
X16124944Y-16058174D01*
X16124944Y-16058174D02*
X16134468Y-16077222D01*
X16134468Y-16077222D02*
X16134468Y-16096269D01*
X16134468Y-16096269D02*
X16039230Y-16115317D01*
X16210658Y-16172460D02*
X16229706Y-16181984D01*
X16229706Y-16181984D02*
X16267801Y-16181984D01*
X16267801Y-16181984D02*
X16286849Y-16172460D01*
X16286849Y-16172460D02*
X16296372Y-16153412D01*
X16296372Y-16153412D02*
X16296372Y-16143888D01*
X16296372Y-16143888D02*
X16286849Y-16124841D01*
X16286849Y-16124841D02*
X16267801Y-16115317D01*
X16267801Y-16115317D02*
X16239230Y-16115317D01*
X16239230Y-16115317D02*
X16220182Y-16105793D01*
X16220182Y-16105793D02*
X16210658Y-16086746D01*
X16210658Y-16086746D02*
X16210658Y-16077222D01*
X16210658Y-16077222D02*
X16220182Y-16058174D01*
X16220182Y-16058174D02*
X16239230Y-16048650D01*
X16239230Y-16048650D02*
X16267801Y-16048650D01*
X16267801Y-16048650D02*
X16286849Y-16058174D01*
X16363039Y-16258174D02*
X16372563Y-16248650D01*
X16372563Y-16248650D02*
X16391611Y-16220079D01*
X16391611Y-16220079D02*
X16401134Y-16201031D01*
X16401134Y-16201031D02*
X16410658Y-16172460D01*
X16410658Y-16172460D02*
X16420182Y-16124841D01*
X16420182Y-16124841D02*
X16420182Y-16086746D01*
X16420182Y-16086746D02*
X16410658Y-16039127D01*
X16410658Y-16039127D02*
X16401134Y-16010555D01*
X16401134Y-16010555D02*
X16391611Y-15991508D01*
X16391611Y-15991508D02*
X16372563Y-15962936D01*
X16372563Y-15962936D02*
X16363039Y-15953412D01*
D13*
X11292500Y-16302000D02*
X11397500Y-16407000D01*
X11397500Y-16302000D02*
X11292500Y-16407000D01*
X11345000Y-16407000D02*
X11397500Y-16354500D01*
X11345000Y-16302000D01*
X11292500Y-16354500D01*
X11345000Y-16407000D01*
D11*
X11763039Y-16445984D02*
X11648753Y-16445984D01*
X11705896Y-16445984D02*
X11705896Y-16245984D01*
X11705896Y-16245984D02*
X11686848Y-16274555D01*
X11686848Y-16274555D02*
X11667801Y-16293603D01*
X11667801Y-16293603D02*
X11648753Y-16303127D01*
X11848753Y-16426936D02*
X11858277Y-16436460D01*
X11858277Y-16436460D02*
X11848753Y-16445984D01*
X11848753Y-16445984D02*
X11839229Y-16436460D01*
X11839229Y-16436460D02*
X11848753Y-16426936D01*
X11848753Y-16426936D02*
X11848753Y-16445984D01*
X11982086Y-16245984D02*
X12001134Y-16245984D01*
X12001134Y-16245984D02*
X12020182Y-16255508D01*
X12020182Y-16255508D02*
X12029705Y-16265031D01*
X12029705Y-16265031D02*
X12039229Y-16284079D01*
X12039229Y-16284079D02*
X12048753Y-16322174D01*
X12048753Y-16322174D02*
X12048753Y-16369793D01*
X12048753Y-16369793D02*
X12039229Y-16407888D01*
X12039229Y-16407888D02*
X12029705Y-16426936D01*
X12029705Y-16426936D02*
X12020182Y-16436460D01*
X12020182Y-16436460D02*
X12001134Y-16445984D01*
X12001134Y-16445984D02*
X11982086Y-16445984D01*
X11982086Y-16445984D02*
X11963039Y-16436460D01*
X11963039Y-16436460D02*
X11953515Y-16426936D01*
X11953515Y-16426936D02*
X11943991Y-16407888D01*
X11943991Y-16407888D02*
X11934467Y-16369793D01*
X11934467Y-16369793D02*
X11934467Y-16322174D01*
X11934467Y-16322174D02*
X11943991Y-16284079D01*
X11943991Y-16284079D02*
X11953515Y-16265031D01*
X11953515Y-16265031D02*
X11963039Y-16255508D01*
X11963039Y-16255508D02*
X11982086Y-16245984D01*
X12229705Y-16245984D02*
X12134467Y-16245984D01*
X12134467Y-16245984D02*
X12124943Y-16341222D01*
X12124943Y-16341222D02*
X12134467Y-16331698D01*
X12134467Y-16331698D02*
X12153515Y-16322174D01*
X12153515Y-16322174D02*
X12201134Y-16322174D01*
X12201134Y-16322174D02*
X12220182Y-16331698D01*
X12220182Y-16331698D02*
X12229705Y-16341222D01*
X12229705Y-16341222D02*
X12239229Y-16360269D01*
X12239229Y-16360269D02*
X12239229Y-16407888D01*
X12239229Y-16407888D02*
X12229705Y-16426936D01*
X12229705Y-16426936D02*
X12220182Y-16436460D01*
X12220182Y-16436460D02*
X12201134Y-16445984D01*
X12201134Y-16445984D02*
X12153515Y-16445984D01*
X12153515Y-16445984D02*
X12134467Y-16436460D01*
X12134467Y-16436460D02*
X12124943Y-16426936D01*
X12363039Y-16245984D02*
X12382086Y-16245984D01*
X12382086Y-16245984D02*
X12401134Y-16255508D01*
X12401134Y-16255508D02*
X12410658Y-16265031D01*
X12410658Y-16265031D02*
X12420182Y-16284079D01*
X12420182Y-16284079D02*
X12429705Y-16322174D01*
X12429705Y-16322174D02*
X12429705Y-16369793D01*
X12429705Y-16369793D02*
X12420182Y-16407888D01*
X12420182Y-16407888D02*
X12410658Y-16426936D01*
X12410658Y-16426936D02*
X12401134Y-16436460D01*
X12401134Y-16436460D02*
X12382086Y-16445984D01*
X12382086Y-16445984D02*
X12363039Y-16445984D01*
X12363039Y-16445984D02*
X12343991Y-16436460D01*
X12343991Y-16436460D02*
X12334467Y-16426936D01*
X12334467Y-16426936D02*
X12324943Y-16407888D01*
X12324943Y-16407888D02*
X12315420Y-16369793D01*
X12315420Y-16369793D02*
X12315420Y-16322174D01*
X12315420Y-16322174D02*
X12324943Y-16284079D01*
X12324943Y-16284079D02*
X12334467Y-16265031D01*
X12334467Y-16265031D02*
X12343991Y-16255508D01*
X12343991Y-16255508D02*
X12363039Y-16245984D01*
X12515420Y-16445984D02*
X12515420Y-16312650D01*
X12515420Y-16331698D02*
X12524943Y-16322174D01*
X12524943Y-16322174D02*
X12543991Y-16312650D01*
X12543991Y-16312650D02*
X12572563Y-16312650D01*
X12572563Y-16312650D02*
X12591610Y-16322174D01*
X12591610Y-16322174D02*
X12601134Y-16341222D01*
X12601134Y-16341222D02*
X12601134Y-16445984D01*
X12601134Y-16341222D02*
X12610658Y-16322174D01*
X12610658Y-16322174D02*
X12629705Y-16312650D01*
X12629705Y-16312650D02*
X12658277Y-16312650D01*
X12658277Y-16312650D02*
X12677324Y-16322174D01*
X12677324Y-16322174D02*
X12686848Y-16341222D01*
X12686848Y-16341222D02*
X12686848Y-16445984D01*
X12782086Y-16445984D02*
X12782086Y-16312650D01*
X12782086Y-16331698D02*
X12791610Y-16322174D01*
X12791610Y-16322174D02*
X12810658Y-16312650D01*
X12810658Y-16312650D02*
X12839229Y-16312650D01*
X12839229Y-16312650D02*
X12858277Y-16322174D01*
X12858277Y-16322174D02*
X12867801Y-16341222D01*
X12867801Y-16341222D02*
X12867801Y-16445984D01*
X12867801Y-16341222D02*
X12877324Y-16322174D01*
X12877324Y-16322174D02*
X12896372Y-16312650D01*
X12896372Y-16312650D02*
X12924943Y-16312650D01*
X12924943Y-16312650D02*
X12943991Y-16322174D01*
X12943991Y-16322174D02*
X12953515Y-16341222D01*
X12953515Y-16341222D02*
X12953515Y-16445984D01*
X13343991Y-16236460D02*
X13172563Y-16493603D01*
X13601134Y-16245984D02*
X13620182Y-16245984D01*
X13620182Y-16245984D02*
X13639229Y-16255508D01*
X13639229Y-16255508D02*
X13648753Y-16265031D01*
X13648753Y-16265031D02*
X13658277Y-16284079D01*
X13658277Y-16284079D02*
X13667801Y-16322174D01*
X13667801Y-16322174D02*
X13667801Y-16369793D01*
X13667801Y-16369793D02*
X13658277Y-16407888D01*
X13658277Y-16407888D02*
X13648753Y-16426936D01*
X13648753Y-16426936D02*
X13639229Y-16436460D01*
X13639229Y-16436460D02*
X13620182Y-16445984D01*
X13620182Y-16445984D02*
X13601134Y-16445984D01*
X13601134Y-16445984D02*
X13582086Y-16436460D01*
X13582086Y-16436460D02*
X13572563Y-16426936D01*
X13572563Y-16426936D02*
X13563039Y-16407888D01*
X13563039Y-16407888D02*
X13553515Y-16369793D01*
X13553515Y-16369793D02*
X13553515Y-16322174D01*
X13553515Y-16322174D02*
X13563039Y-16284079D01*
X13563039Y-16284079D02*
X13572563Y-16265031D01*
X13572563Y-16265031D02*
X13582086Y-16255508D01*
X13582086Y-16255508D02*
X13601134Y-16245984D01*
X13753515Y-16426936D02*
X13763039Y-16436460D01*
X13763039Y-16436460D02*
X13753515Y-16445984D01*
X13753515Y-16445984D02*
X13743991Y-16436460D01*
X13743991Y-16436460D02*
X13753515Y-16426936D01*
X13753515Y-16426936D02*
X13753515Y-16445984D01*
X13886848Y-16245984D02*
X13905896Y-16245984D01*
X13905896Y-16245984D02*
X13924944Y-16255508D01*
X13924944Y-16255508D02*
X13934467Y-16265031D01*
X13934467Y-16265031D02*
X13943991Y-16284079D01*
X13943991Y-16284079D02*
X13953515Y-16322174D01*
X13953515Y-16322174D02*
X13953515Y-16369793D01*
X13953515Y-16369793D02*
X13943991Y-16407888D01*
X13943991Y-16407888D02*
X13934467Y-16426936D01*
X13934467Y-16426936D02*
X13924944Y-16436460D01*
X13924944Y-16436460D02*
X13905896Y-16445984D01*
X13905896Y-16445984D02*
X13886848Y-16445984D01*
X13886848Y-16445984D02*
X13867801Y-16436460D01*
X13867801Y-16436460D02*
X13858277Y-16426936D01*
X13858277Y-16426936D02*
X13848753Y-16407888D01*
X13848753Y-16407888D02*
X13839229Y-16369793D01*
X13839229Y-16369793D02*
X13839229Y-16322174D01*
X13839229Y-16322174D02*
X13848753Y-16284079D01*
X13848753Y-16284079D02*
X13858277Y-16265031D01*
X13858277Y-16265031D02*
X13867801Y-16255508D01*
X13867801Y-16255508D02*
X13886848Y-16245984D01*
X14124944Y-16312650D02*
X14124944Y-16445984D01*
X14077325Y-16236460D02*
X14029706Y-16379317D01*
X14029706Y-16379317D02*
X14153515Y-16379317D01*
X14334467Y-16445984D02*
X14220182Y-16445984D01*
X14277325Y-16445984D02*
X14277325Y-16245984D01*
X14277325Y-16245984D02*
X14258277Y-16274555D01*
X14258277Y-16274555D02*
X14239229Y-16293603D01*
X14239229Y-16293603D02*
X14220182Y-16303127D01*
X14401134Y-16245984D02*
X14524944Y-16245984D01*
X14524944Y-16245984D02*
X14458277Y-16322174D01*
X14458277Y-16322174D02*
X14486848Y-16322174D01*
X14486848Y-16322174D02*
X14505896Y-16331698D01*
X14505896Y-16331698D02*
X14515420Y-16341222D01*
X14515420Y-16341222D02*
X14524944Y-16360269D01*
X14524944Y-16360269D02*
X14524944Y-16407888D01*
X14524944Y-16407888D02*
X14515420Y-16426936D01*
X14515420Y-16426936D02*
X14505896Y-16436460D01*
X14505896Y-16436460D02*
X14486848Y-16445984D01*
X14486848Y-16445984D02*
X14429706Y-16445984D01*
X14429706Y-16445984D02*
X14410658Y-16436460D01*
X14410658Y-16436460D02*
X14401134Y-16426936D01*
X14601134Y-16245984D02*
X14601134Y-16284079D01*
X14677325Y-16245984D02*
X14677325Y-16284079D01*
X14972563Y-16522174D02*
X14963039Y-16512650D01*
X14963039Y-16512650D02*
X14943991Y-16484079D01*
X14943991Y-16484079D02*
X14934468Y-16465031D01*
X14934468Y-16465031D02*
X14924944Y-16436460D01*
X14924944Y-16436460D02*
X14915420Y-16388841D01*
X14915420Y-16388841D02*
X14915420Y-16350746D01*
X14915420Y-16350746D02*
X14924944Y-16303127D01*
X14924944Y-16303127D02*
X14934468Y-16274555D01*
X14934468Y-16274555D02*
X14943991Y-16255508D01*
X14943991Y-16255508D02*
X14963039Y-16226936D01*
X14963039Y-16226936D02*
X14972563Y-16217412D01*
X15039229Y-16265031D02*
X15048753Y-16255508D01*
X15048753Y-16255508D02*
X15067801Y-16245984D01*
X15067801Y-16245984D02*
X15115420Y-16245984D01*
X15115420Y-16245984D02*
X15134468Y-16255508D01*
X15134468Y-16255508D02*
X15143991Y-16265031D01*
X15143991Y-16265031D02*
X15153515Y-16284079D01*
X15153515Y-16284079D02*
X15153515Y-16303127D01*
X15153515Y-16303127D02*
X15143991Y-16331698D01*
X15143991Y-16331698D02*
X15029706Y-16445984D01*
X15029706Y-16445984D02*
X15153515Y-16445984D01*
X15391610Y-16445984D02*
X15391610Y-16245984D01*
X15477325Y-16445984D02*
X15477325Y-16341222D01*
X15477325Y-16341222D02*
X15467801Y-16322174D01*
X15467801Y-16322174D02*
X15448753Y-16312650D01*
X15448753Y-16312650D02*
X15420182Y-16312650D01*
X15420182Y-16312650D02*
X15401134Y-16322174D01*
X15401134Y-16322174D02*
X15391610Y-16331698D01*
X15601134Y-16445984D02*
X15582087Y-16436460D01*
X15582087Y-16436460D02*
X15572563Y-16426936D01*
X15572563Y-16426936D02*
X15563039Y-16407888D01*
X15563039Y-16407888D02*
X15563039Y-16350746D01*
X15563039Y-16350746D02*
X15572563Y-16331698D01*
X15572563Y-16331698D02*
X15582087Y-16322174D01*
X15582087Y-16322174D02*
X15601134Y-16312650D01*
X15601134Y-16312650D02*
X15629706Y-16312650D01*
X15629706Y-16312650D02*
X15648753Y-16322174D01*
X15648753Y-16322174D02*
X15658277Y-16331698D01*
X15658277Y-16331698D02*
X15667801Y-16350746D01*
X15667801Y-16350746D02*
X15667801Y-16407888D01*
X15667801Y-16407888D02*
X15658277Y-16426936D01*
X15658277Y-16426936D02*
X15648753Y-16436460D01*
X15648753Y-16436460D02*
X15629706Y-16445984D01*
X15629706Y-16445984D02*
X15601134Y-16445984D01*
X15782087Y-16445984D02*
X15763039Y-16436460D01*
X15763039Y-16436460D02*
X15753515Y-16417412D01*
X15753515Y-16417412D02*
X15753515Y-16245984D01*
X15934468Y-16436460D02*
X15915420Y-16445984D01*
X15915420Y-16445984D02*
X15877325Y-16445984D01*
X15877325Y-16445984D02*
X15858277Y-16436460D01*
X15858277Y-16436460D02*
X15848753Y-16417412D01*
X15848753Y-16417412D02*
X15848753Y-16341222D01*
X15848753Y-16341222D02*
X15858277Y-16322174D01*
X15858277Y-16322174D02*
X15877325Y-16312650D01*
X15877325Y-16312650D02*
X15915420Y-16312650D01*
X15915420Y-16312650D02*
X15934468Y-16322174D01*
X15934468Y-16322174D02*
X15943991Y-16341222D01*
X15943991Y-16341222D02*
X15943991Y-16360269D01*
X15943991Y-16360269D02*
X15848753Y-16379317D01*
X16020182Y-16436460D02*
X16039230Y-16445984D01*
X16039230Y-16445984D02*
X16077325Y-16445984D01*
X16077325Y-16445984D02*
X16096372Y-16436460D01*
X16096372Y-16436460D02*
X16105896Y-16417412D01*
X16105896Y-16417412D02*
X16105896Y-16407888D01*
X16105896Y-16407888D02*
X16096372Y-16388841D01*
X16096372Y-16388841D02*
X16077325Y-16379317D01*
X16077325Y-16379317D02*
X16048753Y-16379317D01*
X16048753Y-16379317D02*
X16029706Y-16369793D01*
X16029706Y-16369793D02*
X16020182Y-16350746D01*
X16020182Y-16350746D02*
X16020182Y-16341222D01*
X16020182Y-16341222D02*
X16029706Y-16322174D01*
X16029706Y-16322174D02*
X16048753Y-16312650D01*
X16048753Y-16312650D02*
X16077325Y-16312650D01*
X16077325Y-16312650D02*
X16096372Y-16322174D01*
X16172563Y-16522174D02*
X16182087Y-16512650D01*
X16182087Y-16512650D02*
X16201134Y-16484079D01*
X16201134Y-16484079D02*
X16210658Y-16465031D01*
X16210658Y-16465031D02*
X16220182Y-16436460D01*
X16220182Y-16436460D02*
X16229706Y-16388841D01*
X16229706Y-16388841D02*
X16229706Y-16350746D01*
X16229706Y-16350746D02*
X16220182Y-16303127D01*
X16220182Y-16303127D02*
X16210658Y-16274555D01*
X16210658Y-16274555D02*
X16201134Y-16255508D01*
X16201134Y-16255508D02*
X16182087Y-16226936D01*
X16182087Y-16226936D02*
X16172563Y-16217412D01*
D14*
X11332500Y-16553500D02*
X11332500Y-16683500D01*
X11267500Y-16618500D02*
X11397500Y-16618500D01*
X11397500Y-16618500D02*
G75*
G02*
X11267500Y-16618500I-65000J0D01*
G01*
X11267500Y-16618500D02*
G75*
G02*
X11397500Y-16618500I65000J0D01*
G01*
D11*
X11763039Y-16709984D02*
X11648753Y-16709984D01*
X11705896Y-16709984D02*
X11705896Y-16509984D01*
X11705896Y-16509984D02*
X11686848Y-16538555D01*
X11686848Y-16538555D02*
X11667801Y-16557603D01*
X11667801Y-16557603D02*
X11648753Y-16567127D01*
X11848753Y-16690936D02*
X11858277Y-16700460D01*
X11858277Y-16700460D02*
X11848753Y-16709984D01*
X11848753Y-16709984D02*
X11839229Y-16700460D01*
X11839229Y-16700460D02*
X11848753Y-16690936D01*
X11848753Y-16690936D02*
X11848753Y-16709984D01*
X11924943Y-16509984D02*
X12048753Y-16509984D01*
X12048753Y-16509984D02*
X11982086Y-16586174D01*
X11982086Y-16586174D02*
X12010658Y-16586174D01*
X12010658Y-16586174D02*
X12029705Y-16595698D01*
X12029705Y-16595698D02*
X12039229Y-16605222D01*
X12039229Y-16605222D02*
X12048753Y-16624269D01*
X12048753Y-16624269D02*
X12048753Y-16671888D01*
X12048753Y-16671888D02*
X12039229Y-16690936D01*
X12039229Y-16690936D02*
X12029705Y-16700460D01*
X12029705Y-16700460D02*
X12010658Y-16709984D01*
X12010658Y-16709984D02*
X11953515Y-16709984D01*
X11953515Y-16709984D02*
X11934467Y-16700460D01*
X11934467Y-16700460D02*
X11924943Y-16690936D01*
X12172562Y-16509984D02*
X12191610Y-16509984D01*
X12191610Y-16509984D02*
X12210658Y-16519508D01*
X12210658Y-16519508D02*
X12220182Y-16529031D01*
X12220182Y-16529031D02*
X12229705Y-16548079D01*
X12229705Y-16548079D02*
X12239229Y-16586174D01*
X12239229Y-16586174D02*
X12239229Y-16633793D01*
X12239229Y-16633793D02*
X12229705Y-16671888D01*
X12229705Y-16671888D02*
X12220182Y-16690936D01*
X12220182Y-16690936D02*
X12210658Y-16700460D01*
X12210658Y-16700460D02*
X12191610Y-16709984D01*
X12191610Y-16709984D02*
X12172562Y-16709984D01*
X12172562Y-16709984D02*
X12153515Y-16700460D01*
X12153515Y-16700460D02*
X12143991Y-16690936D01*
X12143991Y-16690936D02*
X12134467Y-16671888D01*
X12134467Y-16671888D02*
X12124943Y-16633793D01*
X12124943Y-16633793D02*
X12124943Y-16586174D01*
X12124943Y-16586174D02*
X12134467Y-16548079D01*
X12134467Y-16548079D02*
X12143991Y-16529031D01*
X12143991Y-16529031D02*
X12153515Y-16519508D01*
X12153515Y-16519508D02*
X12172562Y-16509984D01*
X12363039Y-16509984D02*
X12382086Y-16509984D01*
X12382086Y-16509984D02*
X12401134Y-16519508D01*
X12401134Y-16519508D02*
X12410658Y-16529031D01*
X12410658Y-16529031D02*
X12420182Y-16548079D01*
X12420182Y-16548079D02*
X12429705Y-16586174D01*
X12429705Y-16586174D02*
X12429705Y-16633793D01*
X12429705Y-16633793D02*
X12420182Y-16671888D01*
X12420182Y-16671888D02*
X12410658Y-16690936D01*
X12410658Y-16690936D02*
X12401134Y-16700460D01*
X12401134Y-16700460D02*
X12382086Y-16709984D01*
X12382086Y-16709984D02*
X12363039Y-16709984D01*
X12363039Y-16709984D02*
X12343991Y-16700460D01*
X12343991Y-16700460D02*
X12334467Y-16690936D01*
X12334467Y-16690936D02*
X12324943Y-16671888D01*
X12324943Y-16671888D02*
X12315420Y-16633793D01*
X12315420Y-16633793D02*
X12315420Y-16586174D01*
X12315420Y-16586174D02*
X12324943Y-16548079D01*
X12324943Y-16548079D02*
X12334467Y-16529031D01*
X12334467Y-16529031D02*
X12343991Y-16519508D01*
X12343991Y-16519508D02*
X12363039Y-16509984D01*
X12515420Y-16709984D02*
X12515420Y-16576650D01*
X12515420Y-16595698D02*
X12524943Y-16586174D01*
X12524943Y-16586174D02*
X12543991Y-16576650D01*
X12543991Y-16576650D02*
X12572563Y-16576650D01*
X12572563Y-16576650D02*
X12591610Y-16586174D01*
X12591610Y-16586174D02*
X12601134Y-16605222D01*
X12601134Y-16605222D02*
X12601134Y-16709984D01*
X12601134Y-16605222D02*
X12610658Y-16586174D01*
X12610658Y-16586174D02*
X12629705Y-16576650D01*
X12629705Y-16576650D02*
X12658277Y-16576650D01*
X12658277Y-16576650D02*
X12677324Y-16586174D01*
X12677324Y-16586174D02*
X12686848Y-16605222D01*
X12686848Y-16605222D02*
X12686848Y-16709984D01*
X12782086Y-16709984D02*
X12782086Y-16576650D01*
X12782086Y-16595698D02*
X12791610Y-16586174D01*
X12791610Y-16586174D02*
X12810658Y-16576650D01*
X12810658Y-16576650D02*
X12839229Y-16576650D01*
X12839229Y-16576650D02*
X12858277Y-16586174D01*
X12858277Y-16586174D02*
X12867801Y-16605222D01*
X12867801Y-16605222D02*
X12867801Y-16709984D01*
X12867801Y-16605222D02*
X12877324Y-16586174D01*
X12877324Y-16586174D02*
X12896372Y-16576650D01*
X12896372Y-16576650D02*
X12924943Y-16576650D01*
X12924943Y-16576650D02*
X12943991Y-16586174D01*
X12943991Y-16586174D02*
X12953515Y-16605222D01*
X12953515Y-16605222D02*
X12953515Y-16709984D01*
X13343991Y-16500460D02*
X13172563Y-16757603D01*
X13601134Y-16509984D02*
X13620182Y-16509984D01*
X13620182Y-16509984D02*
X13639229Y-16519508D01*
X13639229Y-16519508D02*
X13648753Y-16529031D01*
X13648753Y-16529031D02*
X13658277Y-16548079D01*
X13658277Y-16548079D02*
X13667801Y-16586174D01*
X13667801Y-16586174D02*
X13667801Y-16633793D01*
X13667801Y-16633793D02*
X13658277Y-16671888D01*
X13658277Y-16671888D02*
X13648753Y-16690936D01*
X13648753Y-16690936D02*
X13639229Y-16700460D01*
X13639229Y-16700460D02*
X13620182Y-16709984D01*
X13620182Y-16709984D02*
X13601134Y-16709984D01*
X13601134Y-16709984D02*
X13582086Y-16700460D01*
X13582086Y-16700460D02*
X13572563Y-16690936D01*
X13572563Y-16690936D02*
X13563039Y-16671888D01*
X13563039Y-16671888D02*
X13553515Y-16633793D01*
X13553515Y-16633793D02*
X13553515Y-16586174D01*
X13553515Y-16586174D02*
X13563039Y-16548079D01*
X13563039Y-16548079D02*
X13572563Y-16529031D01*
X13572563Y-16529031D02*
X13582086Y-16519508D01*
X13582086Y-16519508D02*
X13601134Y-16509984D01*
X13753515Y-16690936D02*
X13763039Y-16700460D01*
X13763039Y-16700460D02*
X13753515Y-16709984D01*
X13753515Y-16709984D02*
X13743991Y-16700460D01*
X13743991Y-16700460D02*
X13753515Y-16690936D01*
X13753515Y-16690936D02*
X13753515Y-16709984D01*
X13886848Y-16509984D02*
X13905896Y-16509984D01*
X13905896Y-16509984D02*
X13924944Y-16519508D01*
X13924944Y-16519508D02*
X13934467Y-16529031D01*
X13934467Y-16529031D02*
X13943991Y-16548079D01*
X13943991Y-16548079D02*
X13953515Y-16586174D01*
X13953515Y-16586174D02*
X13953515Y-16633793D01*
X13953515Y-16633793D02*
X13943991Y-16671888D01*
X13943991Y-16671888D02*
X13934467Y-16690936D01*
X13934467Y-16690936D02*
X13924944Y-16700460D01*
X13924944Y-16700460D02*
X13905896Y-16709984D01*
X13905896Y-16709984D02*
X13886848Y-16709984D01*
X13886848Y-16709984D02*
X13867801Y-16700460D01*
X13867801Y-16700460D02*
X13858277Y-16690936D01*
X13858277Y-16690936D02*
X13848753Y-16671888D01*
X13848753Y-16671888D02*
X13839229Y-16633793D01*
X13839229Y-16633793D02*
X13839229Y-16586174D01*
X13839229Y-16586174D02*
X13848753Y-16548079D01*
X13848753Y-16548079D02*
X13858277Y-16529031D01*
X13858277Y-16529031D02*
X13867801Y-16519508D01*
X13867801Y-16519508D02*
X13886848Y-16509984D01*
X14134467Y-16509984D02*
X14039229Y-16509984D01*
X14039229Y-16509984D02*
X14029706Y-16605222D01*
X14029706Y-16605222D02*
X14039229Y-16595698D01*
X14039229Y-16595698D02*
X14058277Y-16586174D01*
X14058277Y-16586174D02*
X14105896Y-16586174D01*
X14105896Y-16586174D02*
X14124944Y-16595698D01*
X14124944Y-16595698D02*
X14134467Y-16605222D01*
X14134467Y-16605222D02*
X14143991Y-16624269D01*
X14143991Y-16624269D02*
X14143991Y-16671888D01*
X14143991Y-16671888D02*
X14134467Y-16690936D01*
X14134467Y-16690936D02*
X14124944Y-16700460D01*
X14124944Y-16700460D02*
X14105896Y-16709984D01*
X14105896Y-16709984D02*
X14058277Y-16709984D01*
X14058277Y-16709984D02*
X14039229Y-16700460D01*
X14039229Y-16700460D02*
X14029706Y-16690936D01*
X14334467Y-16709984D02*
X14220182Y-16709984D01*
X14277325Y-16709984D02*
X14277325Y-16509984D01*
X14277325Y-16509984D02*
X14258277Y-16538555D01*
X14258277Y-16538555D02*
X14239229Y-16557603D01*
X14239229Y-16557603D02*
X14220182Y-16567127D01*
X14410658Y-16529031D02*
X14420182Y-16519508D01*
X14420182Y-16519508D02*
X14439229Y-16509984D01*
X14439229Y-16509984D02*
X14486848Y-16509984D01*
X14486848Y-16509984D02*
X14505896Y-16519508D01*
X14505896Y-16519508D02*
X14515420Y-16529031D01*
X14515420Y-16529031D02*
X14524944Y-16548079D01*
X14524944Y-16548079D02*
X14524944Y-16567127D01*
X14524944Y-16567127D02*
X14515420Y-16595698D01*
X14515420Y-16595698D02*
X14401134Y-16709984D01*
X14401134Y-16709984D02*
X14524944Y-16709984D01*
X14601134Y-16509984D02*
X14601134Y-16548079D01*
X14677325Y-16509984D02*
X14677325Y-16548079D01*
X14972563Y-16786174D02*
X14963039Y-16776650D01*
X14963039Y-16776650D02*
X14943991Y-16748079D01*
X14943991Y-16748079D02*
X14934468Y-16729031D01*
X14934468Y-16729031D02*
X14924944Y-16700460D01*
X14924944Y-16700460D02*
X14915420Y-16652841D01*
X14915420Y-16652841D02*
X14915420Y-16614746D01*
X14915420Y-16614746D02*
X14924944Y-16567127D01*
X14924944Y-16567127D02*
X14934468Y-16538555D01*
X14934468Y-16538555D02*
X14943991Y-16519508D01*
X14943991Y-16519508D02*
X14963039Y-16490936D01*
X14963039Y-16490936D02*
X14972563Y-16481412D01*
X15058277Y-16709984D02*
X15096372Y-16709984D01*
X15096372Y-16709984D02*
X15115420Y-16700460D01*
X15115420Y-16700460D02*
X15124944Y-16690936D01*
X15124944Y-16690936D02*
X15143991Y-16662365D01*
X15143991Y-16662365D02*
X15153515Y-16624269D01*
X15153515Y-16624269D02*
X15153515Y-16548079D01*
X15153515Y-16548079D02*
X15143991Y-16529031D01*
X15143991Y-16529031D02*
X15134468Y-16519508D01*
X15134468Y-16519508D02*
X15115420Y-16509984D01*
X15115420Y-16509984D02*
X15077325Y-16509984D01*
X15077325Y-16509984D02*
X15058277Y-16519508D01*
X15058277Y-16519508D02*
X15048753Y-16529031D01*
X15048753Y-16529031D02*
X15039229Y-16548079D01*
X15039229Y-16548079D02*
X15039229Y-16595698D01*
X15039229Y-16595698D02*
X15048753Y-16614746D01*
X15048753Y-16614746D02*
X15058277Y-16624269D01*
X15058277Y-16624269D02*
X15077325Y-16633793D01*
X15077325Y-16633793D02*
X15115420Y-16633793D01*
X15115420Y-16633793D02*
X15134468Y-16624269D01*
X15134468Y-16624269D02*
X15143991Y-16614746D01*
X15143991Y-16614746D02*
X15153515Y-16595698D01*
X15391610Y-16709984D02*
X15391610Y-16509984D01*
X15477325Y-16709984D02*
X15477325Y-16605222D01*
X15477325Y-16605222D02*
X15467801Y-16586174D01*
X15467801Y-16586174D02*
X15448753Y-16576650D01*
X15448753Y-16576650D02*
X15420182Y-16576650D01*
X15420182Y-16576650D02*
X15401134Y-16586174D01*
X15401134Y-16586174D02*
X15391610Y-16595698D01*
X15601134Y-16709984D02*
X15582087Y-16700460D01*
X15582087Y-16700460D02*
X15572563Y-16690936D01*
X15572563Y-16690936D02*
X15563039Y-16671888D01*
X15563039Y-16671888D02*
X15563039Y-16614746D01*
X15563039Y-16614746D02*
X15572563Y-16595698D01*
X15572563Y-16595698D02*
X15582087Y-16586174D01*
X15582087Y-16586174D02*
X15601134Y-16576650D01*
X15601134Y-16576650D02*
X15629706Y-16576650D01*
X15629706Y-16576650D02*
X15648753Y-16586174D01*
X15648753Y-16586174D02*
X15658277Y-16595698D01*
X15658277Y-16595698D02*
X15667801Y-16614746D01*
X15667801Y-16614746D02*
X15667801Y-16671888D01*
X15667801Y-16671888D02*
X15658277Y-16690936D01*
X15658277Y-16690936D02*
X15648753Y-16700460D01*
X15648753Y-16700460D02*
X15629706Y-16709984D01*
X15629706Y-16709984D02*
X15601134Y-16709984D01*
X15782087Y-16709984D02*
X15763039Y-16700460D01*
X15763039Y-16700460D02*
X15753515Y-16681412D01*
X15753515Y-16681412D02*
X15753515Y-16509984D01*
X15934468Y-16700460D02*
X15915420Y-16709984D01*
X15915420Y-16709984D02*
X15877325Y-16709984D01*
X15877325Y-16709984D02*
X15858277Y-16700460D01*
X15858277Y-16700460D02*
X15848753Y-16681412D01*
X15848753Y-16681412D02*
X15848753Y-16605222D01*
X15848753Y-16605222D02*
X15858277Y-16586174D01*
X15858277Y-16586174D02*
X15877325Y-16576650D01*
X15877325Y-16576650D02*
X15915420Y-16576650D01*
X15915420Y-16576650D02*
X15934468Y-16586174D01*
X15934468Y-16586174D02*
X15943991Y-16605222D01*
X15943991Y-16605222D02*
X15943991Y-16624269D01*
X15943991Y-16624269D02*
X15848753Y-16643317D01*
X16020182Y-16700460D02*
X16039230Y-16709984D01*
X16039230Y-16709984D02*
X16077325Y-16709984D01*
X16077325Y-16709984D02*
X16096372Y-16700460D01*
X16096372Y-16700460D02*
X16105896Y-16681412D01*
X16105896Y-16681412D02*
X16105896Y-16671888D01*
X16105896Y-16671888D02*
X16096372Y-16652841D01*
X16096372Y-16652841D02*
X16077325Y-16643317D01*
X16077325Y-16643317D02*
X16048753Y-16643317D01*
X16048753Y-16643317D02*
X16029706Y-16633793D01*
X16029706Y-16633793D02*
X16020182Y-16614746D01*
X16020182Y-16614746D02*
X16020182Y-16605222D01*
X16020182Y-16605222D02*
X16029706Y-16586174D01*
X16029706Y-16586174D02*
X16048753Y-16576650D01*
X16048753Y-16576650D02*
X16077325Y-16576650D01*
X16077325Y-16576650D02*
X16096372Y-16586174D01*
X16172563Y-16786174D02*
X16182087Y-16776650D01*
X16182087Y-16776650D02*
X16201134Y-16748079D01*
X16201134Y-16748079D02*
X16210658Y-16729031D01*
X16210658Y-16729031D02*
X16220182Y-16700460D01*
X16220182Y-16700460D02*
X16229706Y-16652841D01*
X16229706Y-16652841D02*
X16229706Y-16614746D01*
X16229706Y-16614746D02*
X16220182Y-16567127D01*
X16220182Y-16567127D02*
X16210658Y-16538555D01*
X16210658Y-16538555D02*
X16201134Y-16519508D01*
X16201134Y-16519508D02*
X16182087Y-16490936D01*
X16182087Y-16490936D02*
X16172563Y-16481412D01*
X11368211Y-16953211D02*
X11368211Y-16811789D01*
X11226789Y-16811789D01*
X11226789Y-16953211D01*
X11368211Y-16953211D01*
X11397500Y-16882500D02*
G75*
G02*
X11197500Y-16882500I-100000J0D01*
G01*
X11197500Y-16882500D02*
G75*
G02*
X11397500Y-16882500I100000J0D01*
G01*
X11639229Y-16773984D02*
X11763039Y-16773984D01*
X11763039Y-16773984D02*
X11696372Y-16850174D01*
X11696372Y-16850174D02*
X11724943Y-16850174D01*
X11724943Y-16850174D02*
X11743991Y-16859698D01*
X11743991Y-16859698D02*
X11753515Y-16869222D01*
X11753515Y-16869222D02*
X11763039Y-16888270D01*
X11763039Y-16888270D02*
X11763039Y-16935889D01*
X11763039Y-16935889D02*
X11753515Y-16954936D01*
X11753515Y-16954936D02*
X11743991Y-16964460D01*
X11743991Y-16964460D02*
X11724943Y-16973984D01*
X11724943Y-16973984D02*
X11667801Y-16973984D01*
X11667801Y-16973984D02*
X11648753Y-16964460D01*
X11648753Y-16964460D02*
X11639229Y-16954936D01*
X11848753Y-16954936D02*
X11858277Y-16964460D01*
X11858277Y-16964460D02*
X11848753Y-16973984D01*
X11848753Y-16973984D02*
X11839229Y-16964460D01*
X11839229Y-16964460D02*
X11848753Y-16954936D01*
X11848753Y-16954936D02*
X11848753Y-16973984D01*
X11934467Y-16793031D02*
X11943991Y-16783508D01*
X11943991Y-16783508D02*
X11963039Y-16773984D01*
X11963039Y-16773984D02*
X12010658Y-16773984D01*
X12010658Y-16773984D02*
X12029705Y-16783508D01*
X12029705Y-16783508D02*
X12039229Y-16793031D01*
X12039229Y-16793031D02*
X12048753Y-16812079D01*
X12048753Y-16812079D02*
X12048753Y-16831127D01*
X12048753Y-16831127D02*
X12039229Y-16859698D01*
X12039229Y-16859698D02*
X11924943Y-16973984D01*
X11924943Y-16973984D02*
X12048753Y-16973984D01*
X12172562Y-16773984D02*
X12191610Y-16773984D01*
X12191610Y-16773984D02*
X12210658Y-16783508D01*
X12210658Y-16783508D02*
X12220182Y-16793031D01*
X12220182Y-16793031D02*
X12229705Y-16812079D01*
X12229705Y-16812079D02*
X12239229Y-16850174D01*
X12239229Y-16850174D02*
X12239229Y-16897793D01*
X12239229Y-16897793D02*
X12229705Y-16935889D01*
X12229705Y-16935889D02*
X12220182Y-16954936D01*
X12220182Y-16954936D02*
X12210658Y-16964460D01*
X12210658Y-16964460D02*
X12191610Y-16973984D01*
X12191610Y-16973984D02*
X12172562Y-16973984D01*
X12172562Y-16973984D02*
X12153515Y-16964460D01*
X12153515Y-16964460D02*
X12143991Y-16954936D01*
X12143991Y-16954936D02*
X12134467Y-16935889D01*
X12134467Y-16935889D02*
X12124943Y-16897793D01*
X12124943Y-16897793D02*
X12124943Y-16850174D01*
X12124943Y-16850174D02*
X12134467Y-16812079D01*
X12134467Y-16812079D02*
X12143991Y-16793031D01*
X12143991Y-16793031D02*
X12153515Y-16783508D01*
X12153515Y-16783508D02*
X12172562Y-16773984D01*
X12363039Y-16773984D02*
X12382086Y-16773984D01*
X12382086Y-16773984D02*
X12401134Y-16783508D01*
X12401134Y-16783508D02*
X12410658Y-16793031D01*
X12410658Y-16793031D02*
X12420182Y-16812079D01*
X12420182Y-16812079D02*
X12429705Y-16850174D01*
X12429705Y-16850174D02*
X12429705Y-16897793D01*
X12429705Y-16897793D02*
X12420182Y-16935889D01*
X12420182Y-16935889D02*
X12410658Y-16954936D01*
X12410658Y-16954936D02*
X12401134Y-16964460D01*
X12401134Y-16964460D02*
X12382086Y-16973984D01*
X12382086Y-16973984D02*
X12363039Y-16973984D01*
X12363039Y-16973984D02*
X12343991Y-16964460D01*
X12343991Y-16964460D02*
X12334467Y-16954936D01*
X12334467Y-16954936D02*
X12324943Y-16935889D01*
X12324943Y-16935889D02*
X12315420Y-16897793D01*
X12315420Y-16897793D02*
X12315420Y-16850174D01*
X12315420Y-16850174D02*
X12324943Y-16812079D01*
X12324943Y-16812079D02*
X12334467Y-16793031D01*
X12334467Y-16793031D02*
X12343991Y-16783508D01*
X12343991Y-16783508D02*
X12363039Y-16773984D01*
X12515420Y-16973984D02*
X12515420Y-16840650D01*
X12515420Y-16859698D02*
X12524943Y-16850174D01*
X12524943Y-16850174D02*
X12543991Y-16840650D01*
X12543991Y-16840650D02*
X12572563Y-16840650D01*
X12572563Y-16840650D02*
X12591610Y-16850174D01*
X12591610Y-16850174D02*
X12601134Y-16869222D01*
X12601134Y-16869222D02*
X12601134Y-16973984D01*
X12601134Y-16869222D02*
X12610658Y-16850174D01*
X12610658Y-16850174D02*
X12629705Y-16840650D01*
X12629705Y-16840650D02*
X12658277Y-16840650D01*
X12658277Y-16840650D02*
X12677324Y-16850174D01*
X12677324Y-16850174D02*
X12686848Y-16869222D01*
X12686848Y-16869222D02*
X12686848Y-16973984D01*
X12782086Y-16973984D02*
X12782086Y-16840650D01*
X12782086Y-16859698D02*
X12791610Y-16850174D01*
X12791610Y-16850174D02*
X12810658Y-16840650D01*
X12810658Y-16840650D02*
X12839229Y-16840650D01*
X12839229Y-16840650D02*
X12858277Y-16850174D01*
X12858277Y-16850174D02*
X12867801Y-16869222D01*
X12867801Y-16869222D02*
X12867801Y-16973984D01*
X12867801Y-16869222D02*
X12877324Y-16850174D01*
X12877324Y-16850174D02*
X12896372Y-16840650D01*
X12896372Y-16840650D02*
X12924943Y-16840650D01*
X12924943Y-16840650D02*
X12943991Y-16850174D01*
X12943991Y-16850174D02*
X12953515Y-16869222D01*
X12953515Y-16869222D02*
X12953515Y-16973984D01*
X13343991Y-16764460D02*
X13172563Y-17021603D01*
X13601134Y-16773984D02*
X13620182Y-16773984D01*
X13620182Y-16773984D02*
X13639229Y-16783508D01*
X13639229Y-16783508D02*
X13648753Y-16793031D01*
X13648753Y-16793031D02*
X13658277Y-16812079D01*
X13658277Y-16812079D02*
X13667801Y-16850174D01*
X13667801Y-16850174D02*
X13667801Y-16897793D01*
X13667801Y-16897793D02*
X13658277Y-16935889D01*
X13658277Y-16935889D02*
X13648753Y-16954936D01*
X13648753Y-16954936D02*
X13639229Y-16964460D01*
X13639229Y-16964460D02*
X13620182Y-16973984D01*
X13620182Y-16973984D02*
X13601134Y-16973984D01*
X13601134Y-16973984D02*
X13582086Y-16964460D01*
X13582086Y-16964460D02*
X13572563Y-16954936D01*
X13572563Y-16954936D02*
X13563039Y-16935889D01*
X13563039Y-16935889D02*
X13553515Y-16897793D01*
X13553515Y-16897793D02*
X13553515Y-16850174D01*
X13553515Y-16850174D02*
X13563039Y-16812079D01*
X13563039Y-16812079D02*
X13572563Y-16793031D01*
X13572563Y-16793031D02*
X13582086Y-16783508D01*
X13582086Y-16783508D02*
X13601134Y-16773984D01*
X13753515Y-16954936D02*
X13763039Y-16964460D01*
X13763039Y-16964460D02*
X13753515Y-16973984D01*
X13753515Y-16973984D02*
X13743991Y-16964460D01*
X13743991Y-16964460D02*
X13753515Y-16954936D01*
X13753515Y-16954936D02*
X13753515Y-16973984D01*
X13953515Y-16973984D02*
X13839229Y-16973984D01*
X13896372Y-16973984D02*
X13896372Y-16773984D01*
X13896372Y-16773984D02*
X13877325Y-16802555D01*
X13877325Y-16802555D02*
X13858277Y-16821603D01*
X13858277Y-16821603D02*
X13839229Y-16831127D01*
X14029706Y-16793031D02*
X14039229Y-16783508D01*
X14039229Y-16783508D02*
X14058277Y-16773984D01*
X14058277Y-16773984D02*
X14105896Y-16773984D01*
X14105896Y-16773984D02*
X14124944Y-16783508D01*
X14124944Y-16783508D02*
X14134467Y-16793031D01*
X14134467Y-16793031D02*
X14143991Y-16812079D01*
X14143991Y-16812079D02*
X14143991Y-16831127D01*
X14143991Y-16831127D02*
X14134467Y-16859698D01*
X14134467Y-16859698D02*
X14020182Y-16973984D01*
X14020182Y-16973984D02*
X14143991Y-16973984D01*
X14315420Y-16773984D02*
X14277325Y-16773984D01*
X14277325Y-16773984D02*
X14258277Y-16783508D01*
X14258277Y-16783508D02*
X14248753Y-16793031D01*
X14248753Y-16793031D02*
X14229706Y-16821603D01*
X14229706Y-16821603D02*
X14220182Y-16859698D01*
X14220182Y-16859698D02*
X14220182Y-16935889D01*
X14220182Y-16935889D02*
X14229706Y-16954936D01*
X14229706Y-16954936D02*
X14239229Y-16964460D01*
X14239229Y-16964460D02*
X14258277Y-16973984D01*
X14258277Y-16973984D02*
X14296372Y-16973984D01*
X14296372Y-16973984D02*
X14315420Y-16964460D01*
X14315420Y-16964460D02*
X14324944Y-16954936D01*
X14324944Y-16954936D02*
X14334467Y-16935889D01*
X14334467Y-16935889D02*
X14334467Y-16888270D01*
X14334467Y-16888270D02*
X14324944Y-16869222D01*
X14324944Y-16869222D02*
X14315420Y-16859698D01*
X14315420Y-16859698D02*
X14296372Y-16850174D01*
X14296372Y-16850174D02*
X14258277Y-16850174D01*
X14258277Y-16850174D02*
X14239229Y-16859698D01*
X14239229Y-16859698D02*
X14229706Y-16869222D01*
X14229706Y-16869222D02*
X14220182Y-16888270D01*
X14458277Y-16773984D02*
X14477325Y-16773984D01*
X14477325Y-16773984D02*
X14496372Y-16783508D01*
X14496372Y-16783508D02*
X14505896Y-16793031D01*
X14505896Y-16793031D02*
X14515420Y-16812079D01*
X14515420Y-16812079D02*
X14524944Y-16850174D01*
X14524944Y-16850174D02*
X14524944Y-16897793D01*
X14524944Y-16897793D02*
X14515420Y-16935889D01*
X14515420Y-16935889D02*
X14505896Y-16954936D01*
X14505896Y-16954936D02*
X14496372Y-16964460D01*
X14496372Y-16964460D02*
X14477325Y-16973984D01*
X14477325Y-16973984D02*
X14458277Y-16973984D01*
X14458277Y-16973984D02*
X14439229Y-16964460D01*
X14439229Y-16964460D02*
X14429706Y-16954936D01*
X14429706Y-16954936D02*
X14420182Y-16935889D01*
X14420182Y-16935889D02*
X14410658Y-16897793D01*
X14410658Y-16897793D02*
X14410658Y-16850174D01*
X14410658Y-16850174D02*
X14420182Y-16812079D01*
X14420182Y-16812079D02*
X14429706Y-16793031D01*
X14429706Y-16793031D02*
X14439229Y-16783508D01*
X14439229Y-16783508D02*
X14458277Y-16773984D01*
X14601134Y-16773984D02*
X14601134Y-16812079D01*
X14677325Y-16773984D02*
X14677325Y-16812079D01*
X14972563Y-17050174D02*
X14963039Y-17040650D01*
X14963039Y-17040650D02*
X14943991Y-17012079D01*
X14943991Y-17012079D02*
X14934468Y-16993031D01*
X14934468Y-16993031D02*
X14924944Y-16964460D01*
X14924944Y-16964460D02*
X14915420Y-16916841D01*
X14915420Y-16916841D02*
X14915420Y-16878746D01*
X14915420Y-16878746D02*
X14924944Y-16831127D01*
X14924944Y-16831127D02*
X14934468Y-16802555D01*
X14934468Y-16802555D02*
X14943991Y-16783508D01*
X14943991Y-16783508D02*
X14963039Y-16754936D01*
X14963039Y-16754936D02*
X14972563Y-16745412D01*
X15134468Y-16840650D02*
X15134468Y-16973984D01*
X15086848Y-16764460D02*
X15039229Y-16907317D01*
X15039229Y-16907317D02*
X15163039Y-16907317D01*
X15391610Y-16973984D02*
X15391610Y-16773984D01*
X15477325Y-16973984D02*
X15477325Y-16869222D01*
X15477325Y-16869222D02*
X15467801Y-16850174D01*
X15467801Y-16850174D02*
X15448753Y-16840650D01*
X15448753Y-16840650D02*
X15420182Y-16840650D01*
X15420182Y-16840650D02*
X15401134Y-16850174D01*
X15401134Y-16850174D02*
X15391610Y-16859698D01*
X15601134Y-16973984D02*
X15582087Y-16964460D01*
X15582087Y-16964460D02*
X15572563Y-16954936D01*
X15572563Y-16954936D02*
X15563039Y-16935889D01*
X15563039Y-16935889D02*
X15563039Y-16878746D01*
X15563039Y-16878746D02*
X15572563Y-16859698D01*
X15572563Y-16859698D02*
X15582087Y-16850174D01*
X15582087Y-16850174D02*
X15601134Y-16840650D01*
X15601134Y-16840650D02*
X15629706Y-16840650D01*
X15629706Y-16840650D02*
X15648753Y-16850174D01*
X15648753Y-16850174D02*
X15658277Y-16859698D01*
X15658277Y-16859698D02*
X15667801Y-16878746D01*
X15667801Y-16878746D02*
X15667801Y-16935889D01*
X15667801Y-16935889D02*
X15658277Y-16954936D01*
X15658277Y-16954936D02*
X15648753Y-16964460D01*
X15648753Y-16964460D02*
X15629706Y-16973984D01*
X15629706Y-16973984D02*
X15601134Y-16973984D01*
X15782087Y-16973984D02*
X15763039Y-16964460D01*
X15763039Y-16964460D02*
X15753515Y-16945412D01*
X15753515Y-16945412D02*
X15753515Y-16773984D01*
X15934468Y-16964460D02*
X15915420Y-16973984D01*
X15915420Y-16973984D02*
X15877325Y-16973984D01*
X15877325Y-16973984D02*
X15858277Y-16964460D01*
X15858277Y-16964460D02*
X15848753Y-16945412D01*
X15848753Y-16945412D02*
X15848753Y-16869222D01*
X15848753Y-16869222D02*
X15858277Y-16850174D01*
X15858277Y-16850174D02*
X15877325Y-16840650D01*
X15877325Y-16840650D02*
X15915420Y-16840650D01*
X15915420Y-16840650D02*
X15934468Y-16850174D01*
X15934468Y-16850174D02*
X15943991Y-16869222D01*
X15943991Y-16869222D02*
X15943991Y-16888270D01*
X15943991Y-16888270D02*
X15848753Y-16907317D01*
X16020182Y-16964460D02*
X16039230Y-16973984D01*
X16039230Y-16973984D02*
X16077325Y-16973984D01*
X16077325Y-16973984D02*
X16096372Y-16964460D01*
X16096372Y-16964460D02*
X16105896Y-16945412D01*
X16105896Y-16945412D02*
X16105896Y-16935889D01*
X16105896Y-16935889D02*
X16096372Y-16916841D01*
X16096372Y-16916841D02*
X16077325Y-16907317D01*
X16077325Y-16907317D02*
X16048753Y-16907317D01*
X16048753Y-16907317D02*
X16029706Y-16897793D01*
X16029706Y-16897793D02*
X16020182Y-16878746D01*
X16020182Y-16878746D02*
X16020182Y-16869222D01*
X16020182Y-16869222D02*
X16029706Y-16850174D01*
X16029706Y-16850174D02*
X16048753Y-16840650D01*
X16048753Y-16840650D02*
X16077325Y-16840650D01*
X16077325Y-16840650D02*
X16096372Y-16850174D01*
X16172563Y-17050174D02*
X16182087Y-17040650D01*
X16182087Y-17040650D02*
X16201134Y-17012079D01*
X16201134Y-17012079D02*
X16210658Y-16993031D01*
X16210658Y-16993031D02*
X16220182Y-16964460D01*
X16220182Y-16964460D02*
X16229706Y-16916841D01*
X16229706Y-16916841D02*
X16229706Y-16878746D01*
X16229706Y-16878746D02*
X16220182Y-16831127D01*
X16220182Y-16831127D02*
X16210658Y-16802555D01*
X16210658Y-16802555D02*
X16201134Y-16783508D01*
X16201134Y-16783508D02*
X16182087Y-16754936D01*
X16182087Y-16754936D02*
X16172563Y-16745412D01*
M02*
