%TF.GenerationSoftware,KiCad,Pcbnew,9.0.0*%
%TF.CreationDate,2025-05-14T11:22:42+02:00*%
%TF.ProjectId,Alarme,416c6172-6d65-42e6-9b69-6361645f7063,V0*%
%TF.SameCoordinates,Original*%
%TF.FileFunction,Drillmap*%
%TF.FilePolarity,Positive*%
%FSLAX45Y45*%
G04 Gerber Fmt 4.5, Leading zero omitted, Abs format (unit mm)*
G04 Created by KiCad (PCBNEW 9.0.0) date 2025-05-14 11:22:42*
%MOMM*%
%LPD*%
G01*
G04 APERTURE LIST*
%ADD10C,0.050000*%
%ADD11C,0.200000*%
G04 APERTURE END LIST*
D10*
X18000000Y-6400000D02*
G75*
G02*
X18600000Y-7000000I0J-600000D01*
G01*
X18600000Y-7000000D02*
X18600000Y-13000000D01*
X18000000Y-13600000D02*
X12000000Y-13600000D01*
X11400000Y-7000000D02*
G75*
G02*
X12000000Y-6400000I600000J0D01*
G01*
X12000000Y-6400000D02*
X18000000Y-6400000D01*
X12000000Y-13600000D02*
G75*
G02*
X11400000Y-13000000I0J600000D01*
G01*
X11400000Y-13000000D02*
X11400000Y-7000000D01*
X18600000Y-13000000D02*
G75*
G02*
X18000000Y-13600000I-600000J0D01*
G01*
D11*
X11658277Y-13913984D02*
X11658277Y-13713984D01*
X11658277Y-13713984D02*
X11705896Y-13713984D01*
X11705896Y-13713984D02*
X11734467Y-13723508D01*
X11734467Y-13723508D02*
X11753515Y-13742555D01*
X11753515Y-13742555D02*
X11763039Y-13761603D01*
X11763039Y-13761603D02*
X11772562Y-13799698D01*
X11772562Y-13799698D02*
X11772562Y-13828269D01*
X11772562Y-13828269D02*
X11763039Y-13866365D01*
X11763039Y-13866365D02*
X11753515Y-13885412D01*
X11753515Y-13885412D02*
X11734467Y-13904460D01*
X11734467Y-13904460D02*
X11705896Y-13913984D01*
X11705896Y-13913984D02*
X11658277Y-13913984D01*
X11858277Y-13913984D02*
X11858277Y-13780650D01*
X11858277Y-13818746D02*
X11867801Y-13799698D01*
X11867801Y-13799698D02*
X11877324Y-13790174D01*
X11877324Y-13790174D02*
X11896372Y-13780650D01*
X11896372Y-13780650D02*
X11915420Y-13780650D01*
X11982086Y-13913984D02*
X11982086Y-13780650D01*
X11982086Y-13713984D02*
X11972562Y-13723508D01*
X11972562Y-13723508D02*
X11982086Y-13733031D01*
X11982086Y-13733031D02*
X11991610Y-13723508D01*
X11991610Y-13723508D02*
X11982086Y-13713984D01*
X11982086Y-13713984D02*
X11982086Y-13733031D01*
X12105896Y-13913984D02*
X12086848Y-13904460D01*
X12086848Y-13904460D02*
X12077324Y-13885412D01*
X12077324Y-13885412D02*
X12077324Y-13713984D01*
X12210658Y-13913984D02*
X12191610Y-13904460D01*
X12191610Y-13904460D02*
X12182086Y-13885412D01*
X12182086Y-13885412D02*
X12182086Y-13713984D01*
X12439229Y-13913984D02*
X12439229Y-13713984D01*
X12439229Y-13713984D02*
X12505896Y-13856841D01*
X12505896Y-13856841D02*
X12572562Y-13713984D01*
X12572562Y-13713984D02*
X12572562Y-13913984D01*
X12753515Y-13913984D02*
X12753515Y-13809222D01*
X12753515Y-13809222D02*
X12743991Y-13790174D01*
X12743991Y-13790174D02*
X12724943Y-13780650D01*
X12724943Y-13780650D02*
X12686848Y-13780650D01*
X12686848Y-13780650D02*
X12667801Y-13790174D01*
X12753515Y-13904460D02*
X12734467Y-13913984D01*
X12734467Y-13913984D02*
X12686848Y-13913984D01*
X12686848Y-13913984D02*
X12667801Y-13904460D01*
X12667801Y-13904460D02*
X12658277Y-13885412D01*
X12658277Y-13885412D02*
X12658277Y-13866365D01*
X12658277Y-13866365D02*
X12667801Y-13847317D01*
X12667801Y-13847317D02*
X12686848Y-13837793D01*
X12686848Y-13837793D02*
X12734467Y-13837793D01*
X12734467Y-13837793D02*
X12753515Y-13828269D01*
X12848753Y-13780650D02*
X12848753Y-13980650D01*
X12848753Y-13790174D02*
X12867801Y-13780650D01*
X12867801Y-13780650D02*
X12905896Y-13780650D01*
X12905896Y-13780650D02*
X12924943Y-13790174D01*
X12924943Y-13790174D02*
X12934467Y-13799698D01*
X12934467Y-13799698D02*
X12943991Y-13818746D01*
X12943991Y-13818746D02*
X12943991Y-13875888D01*
X12943991Y-13875888D02*
X12934467Y-13894936D01*
X12934467Y-13894936D02*
X12924943Y-13904460D01*
X12924943Y-13904460D02*
X12905896Y-13913984D01*
X12905896Y-13913984D02*
X12867801Y-13913984D01*
X12867801Y-13913984D02*
X12848753Y-13904460D01*
X13029705Y-13894936D02*
X13039229Y-13904460D01*
X13039229Y-13904460D02*
X13029705Y-13913984D01*
X13029705Y-13913984D02*
X13020182Y-13904460D01*
X13020182Y-13904460D02*
X13029705Y-13894936D01*
X13029705Y-13894936D02*
X13029705Y-13913984D01*
X13029705Y-13790174D02*
X13039229Y-13799698D01*
X13039229Y-13799698D02*
X13029705Y-13809222D01*
X13029705Y-13809222D02*
X13020182Y-13799698D01*
X13020182Y-13799698D02*
X13029705Y-13790174D01*
X13029705Y-13790174D02*
X13029705Y-13809222D01*
M02*
